%TF.GenerationSoftware,KiCad,Pcbnew,9.0.6*%
%TF.CreationDate,2026-03-05T18:58:58+01:00*%
%TF.ProjectId,Flight controller 1.0.0,466c6967-6874-4206-936f-6e74726f6c6c,rev?*%
%TF.SameCoordinates,Original*%
%TF.FileFunction,Copper,L4,Bot*%
%TF.FilePolarity,Positive*%
%FSLAX46Y46*%
G04 Gerber Fmt 4.6, Leading zero omitted, Abs format (unit mm)*
G04 Created by KiCad (PCBNEW 9.0.6) date 2026-03-05 18:58:58*
%MOMM*%
%LPD*%
G01*
G04 APERTURE LIST*
%TA.AperFunction,HeatsinkPad*%
%ADD10C,0.550000*%
%TD*%
%TA.AperFunction,HeatsinkPad*%
%ADD11R,1.651000X2.845000*%
%TD*%
%TA.AperFunction,ComponentPad*%
%ADD12R,1.700000X1.700000*%
%TD*%
%TA.AperFunction,ComponentPad*%
%ADD13C,1.700000*%
%TD*%
%TA.AperFunction,HeatsinkPad*%
%ADD14O,2.100000X1.000000*%
%TD*%
%TA.AperFunction,HeatsinkPad*%
%ADD15O,1.600000X1.000000*%
%TD*%
%TA.AperFunction,ViaPad*%
%ADD16C,0.600000*%
%TD*%
%TA.AperFunction,Conductor*%
%ADD17C,0.800000*%
%TD*%
%TA.AperFunction,Conductor*%
%ADD18C,0.700000*%
%TD*%
%TA.AperFunction,Conductor*%
%ADD19C,0.400000*%
%TD*%
%TA.AperFunction,Conductor*%
%ADD20C,1.500000*%
%TD*%
%TA.AperFunction,Conductor*%
%ADD21C,0.300000*%
%TD*%
%TA.AperFunction,Conductor*%
%ADD22C,0.150000*%
%TD*%
%TA.AperFunction,Conductor*%
%ADD23C,0.200000*%
%TD*%
G04 APERTURE END LIST*
D10*
%TO.P,BUCK,17,GND*%
%TO.N,GND*%
X137940000Y-119800000D03*
X137940000Y-120947500D03*
X137940000Y-122095000D03*
D11*
X138490500Y-120947500D03*
D10*
X139041000Y-119800000D03*
X139041000Y-120947500D03*
X139041000Y-122095000D03*
%TD*%
D12*
%TO.P,J4,1,Pin_1*%
%TO.N,+5V_BUCK*%
X127000000Y-100130000D03*
D13*
%TO.P,J4,2,Pin_2*%
%TO.N,VTX_RX*%
X127000000Y-102670000D03*
%TO.P,J4,3,Pin_3*%
%TO.N,VTX_TX*%
X127000000Y-105210000D03*
%TO.P,J4,4,Pin_4*%
%TO.N,GND*%
X127000000Y-107750000D03*
%TD*%
D12*
%TO.P,J3,1,Pin_1*%
%TO.N,SWDIO*%
X145110000Y-93750000D03*
D13*
%TO.P,J3,2,Pin_2*%
%TO.N,SWCLK*%
X147650000Y-93750000D03*
%TO.P,J3,3,Pin_3*%
%TO.N,+3.3V*%
X150190000Y-93750000D03*
%TO.P,J3,4,Pin_4*%
%TO.N,GND*%
X152730000Y-93750000D03*
%TD*%
D12*
%TO.P,J5,1,Pin_1*%
%TO.N,+5V_BUCK*%
X133520000Y-93750000D03*
D13*
%TO.P,J5,2,Pin_2*%
%TO.N,ELRS_RX*%
X136060000Y-93750000D03*
%TO.P,J5,3,Pin_3*%
%TO.N,ELRS_TX*%
X138600000Y-93750000D03*
%TO.P,J5,4,Pin_4*%
%TO.N,GND*%
X141140000Y-93750000D03*
%TD*%
D14*
%TO.P,J1,S1,SHIELD*%
%TO.N,GND*%
X155270000Y-108170000D03*
D15*
X159450000Y-108170000D03*
D14*
X155270000Y-99530000D03*
D15*
X159450000Y-99530000D03*
%TD*%
D16*
%TO.N,+5V*%
X148400000Y-96550000D03*
X149200000Y-96550000D03*
X155000000Y-117000000D03*
X155000000Y-117900000D03*
%TO.N,GND*%
X139750000Y-111950000D03*
X147650000Y-97950000D03*
X134500000Y-98250000D03*
X131350000Y-120400000D03*
X134500000Y-123550000D03*
X135850000Y-111400000D03*
X135600000Y-123550000D03*
X153400000Y-117900000D03*
X145000000Y-106150000D03*
X136200000Y-118350000D03*
X146050000Y-118700000D03*
X153600000Y-98000000D03*
X142948441Y-114794023D03*
X141050000Y-125000000D03*
X134000000Y-104500000D03*
X139800000Y-102487500D03*
X144500000Y-113700000D03*
X154850000Y-113800000D03*
X140600000Y-97050000D03*
X139800000Y-106037500D03*
X139800000Y-105150000D03*
X137900000Y-109400000D03*
X136650000Y-123550000D03*
X143150000Y-109900000D03*
X141050000Y-126700000D03*
X144500000Y-122000000D03*
X141000000Y-106037500D03*
X143150000Y-104250000D03*
X138750000Y-123550000D03*
X145000000Y-105262500D03*
X144100000Y-106150000D03*
X135000000Y-104100000D03*
X139800000Y-101650000D03*
X146250000Y-123250000D03*
X141000000Y-102487500D03*
X141050000Y-125800000D03*
X133450000Y-123500000D03*
X153800000Y-108650000D03*
X130650000Y-110500000D03*
X137750000Y-123550000D03*
X142150000Y-103375000D03*
X138500000Y-99350000D03*
X142150000Y-104262500D03*
X137450000Y-118250000D03*
X145400000Y-126900000D03*
X139700000Y-123550000D03*
X139800000Y-100800000D03*
X139600000Y-113900000D03*
X146550000Y-116750000D03*
X139800000Y-103375000D03*
X139800000Y-104262500D03*
X155000000Y-110700000D03*
X151150000Y-108750000D03*
X133800000Y-102750000D03*
X142150000Y-105150000D03*
X151650000Y-107350000D03*
X141000000Y-104262500D03*
X148050000Y-113350000D03*
X132950000Y-118850000D03*
X139750000Y-111250000D03*
X155000000Y-112150000D03*
X145400000Y-126000000D03*
X143800000Y-109450000D03*
X141000000Y-105150000D03*
X141000000Y-103375000D03*
%TO.N,+3.3V*%
X146550000Y-98550000D03*
X151700000Y-104650000D03*
%TO.N,VBat*%
X127100000Y-112100000D03*
X130800000Y-122300000D03*
X131100000Y-121700000D03*
X131200000Y-122800000D03*
X127125000Y-112900000D03*
%TO.N,+5V_BUCK*%
X142550000Y-126650000D03*
X159199997Y-120200000D03*
X159900000Y-120200000D03*
X141950000Y-118250000D03*
X158499994Y-120200000D03*
X142100000Y-120200000D03*
X143450000Y-126700000D03*
X127700000Y-114000000D03*
X127700000Y-114800000D03*
X144350000Y-126700000D03*
X127700000Y-115600000D03*
%TO.N,Curr_sensor*%
X135400000Y-107150000D03*
X131650000Y-118900000D03*
%TO.N,M3*%
X132800000Y-116850000D03*
X148900000Y-105000000D03*
%TO.N,M4*%
X148850000Y-103850000D03*
X132800000Y-117850000D03*
%TO.N,M1*%
X132800000Y-114850000D03*
X147925707Y-106825707D03*
%TO.N,M2*%
X132800000Y-115850000D03*
X148500707Y-106050000D03*
%TO.N,SWDIO*%
X144800000Y-102150000D03*
%TO.N,VTX_RX*%
X130750000Y-102670000D03*
X141900000Y-96850000D03*
%TO.N,VTX_TX*%
X130750000Y-105210000D03*
X143100000Y-97100000D03*
%TO.N,SPI1_SCK*%
X140100000Y-109900000D03*
X141800000Y-110000000D03*
%TO.N,Interrupt*%
X139450000Y-112700000D03*
X144800000Y-103950000D03*
%TO.N,/BOOT0*%
X141200000Y-101050000D03*
X150700000Y-117800000D03*
%TO.N,Batt_control*%
X135600000Y-109800000D03*
X136400000Y-108200000D03*
%TO.N,/LED_STM32*%
X149300000Y-109050000D03*
X143550000Y-101050000D03*
%TD*%
D17*
%TO.N,+5V*%
X153875000Y-116775000D02*
X155000000Y-117900000D01*
X151350000Y-98700000D02*
X149200000Y-96550000D01*
X154100000Y-117000000D02*
X155000000Y-117000000D01*
D18*
X148400000Y-96550000D02*
X150550000Y-98700000D01*
X150550000Y-98700000D02*
X151350000Y-98700000D01*
D17*
X152900000Y-115800000D02*
X152900000Y-100250000D01*
X153875000Y-116775000D02*
X152900000Y-115800000D01*
X152900000Y-100250000D02*
X151350000Y-98700000D01*
X153875000Y-116775000D02*
X154100000Y-117000000D01*
D19*
%TO.N,+3.3V*%
X147200000Y-98550000D02*
X146550000Y-98550000D01*
X151700000Y-103050000D02*
X147200000Y-98550000D01*
X151700000Y-104650000D02*
X151700000Y-103050000D01*
D20*
%TO.N,VBat*%
X129200000Y-122300000D02*
X130800000Y-122300000D01*
X126100000Y-113100000D02*
X127100000Y-112100000D01*
X127030818Y-112900000D02*
X127077909Y-112852909D01*
X126100000Y-119200000D02*
X129200000Y-122300000D01*
X126400000Y-112900000D02*
X126100000Y-113200000D01*
X126400000Y-112900000D02*
X127030818Y-112900000D01*
X126100000Y-113200000D02*
X126100000Y-119200000D01*
X126100000Y-113200000D02*
X126100000Y-113100000D01*
D21*
%TO.N,+5V_BUCK*%
X142550000Y-126150000D02*
X142100000Y-125700000D01*
D18*
X127700000Y-114800000D02*
X127700000Y-114000000D01*
X127700000Y-114000000D02*
X127900000Y-114200000D01*
D21*
X142100000Y-125700000D02*
X142100000Y-120200000D01*
D18*
X127700000Y-114800000D02*
X128300000Y-114200000D01*
X128730000Y-100130000D02*
X127000000Y-100130000D01*
D22*
X141950000Y-118250000D02*
X141950000Y-120050000D01*
D17*
X129550000Y-113750000D02*
X129550000Y-112950000D01*
D18*
X129550000Y-100950000D02*
X128730000Y-100130000D01*
D21*
X142550000Y-126650000D02*
X142550000Y-126150000D01*
D18*
X129550000Y-112950000D02*
X129550000Y-100950000D01*
X127900000Y-114200000D02*
X128300000Y-114200000D01*
D22*
X141950000Y-120050000D02*
X142100000Y-120200000D01*
D17*
X127700000Y-115600000D02*
X129550000Y-113750000D01*
D18*
X128300000Y-114200000D02*
X129550000Y-112950000D01*
D22*
%TO.N,Curr_sensor*%
X131650000Y-110900000D02*
X135400000Y-107150000D01*
X131650000Y-118900000D02*
X131650000Y-110900000D01*
%TO.N,M3*%
X149050000Y-105000000D02*
X149450000Y-105400000D01*
X139300000Y-116900000D02*
X132850000Y-116900000D01*
X132850000Y-116900000D02*
X132800000Y-116850000D01*
X148900000Y-105000000D02*
X149050000Y-105000000D01*
X149450000Y-106750000D02*
X139300000Y-116900000D01*
X149450000Y-105400000D02*
X149450000Y-106750000D01*
%TO.N,M4*%
X148850000Y-103850000D02*
X148850000Y-103900000D01*
X149900000Y-107100000D02*
X139276000Y-117724000D01*
X132926000Y-117724000D02*
X132800000Y-117850000D01*
X139276000Y-117724000D02*
X132926000Y-117724000D01*
X148850000Y-103900000D02*
X149900000Y-104950000D01*
X149900000Y-104950000D02*
X149900000Y-107100000D01*
%TO.N,M1*%
X132850000Y-114900000D02*
X132800000Y-114850000D01*
X139850000Y-114900000D02*
X132850000Y-114900000D01*
X147925707Y-106825707D02*
X147924293Y-106825707D01*
X147924293Y-106825707D02*
X139850000Y-114900000D01*
%TO.N,M2*%
X148750000Y-106814588D02*
X139664588Y-115900000D01*
X148750000Y-106299293D02*
X148750000Y-106814588D01*
X132850000Y-115900000D02*
X132800000Y-115850000D01*
X139664588Y-115900000D02*
X132850000Y-115900000D01*
X148500707Y-106050000D02*
X148750000Y-106299293D01*
%TO.N,SWDIO*%
X144800000Y-102150000D02*
X144800000Y-94060000D01*
X144800000Y-94060000D02*
X145110000Y-93750000D01*
%TO.N,VTX_RX*%
X130770000Y-102650000D02*
X130750000Y-102670000D01*
D23*
X139076000Y-96324000D02*
X132750000Y-102650000D01*
X141374000Y-96324000D02*
X139076000Y-96324000D01*
X132750000Y-102650000D02*
X130770000Y-102650000D01*
X141900000Y-96850000D02*
X141374000Y-96324000D01*
%TO.N,VTX_TX*%
X136950000Y-100750000D02*
X136950000Y-99650000D01*
D22*
X130750000Y-105210000D02*
X130810000Y-105150000D01*
D23*
X138900000Y-97700000D02*
X142500000Y-97700000D01*
X142500000Y-97700000D02*
X143100000Y-97100000D01*
X132550000Y-105150000D02*
X136950000Y-100750000D01*
X136950000Y-99650000D02*
X138900000Y-97700000D01*
X130810000Y-105150000D02*
X132550000Y-105150000D01*
D22*
%TO.N,SPI1_SCK*%
X141700000Y-109900000D02*
X140100000Y-109900000D01*
X141800000Y-110000000D02*
X141700000Y-109900000D01*
%TO.N,Interrupt*%
X144800000Y-103950000D02*
X138750000Y-110000000D01*
X138750000Y-110000000D02*
X138750000Y-112000000D01*
X138750000Y-112000000D02*
X139450000Y-112700000D01*
%TO.N,/BOOT0*%
X149082123Y-108524000D02*
X148600000Y-109006123D01*
X150500000Y-104450000D02*
X150500000Y-107250000D01*
X141200000Y-101050000D02*
X143474000Y-103324000D01*
X149374000Y-103324000D02*
X150500000Y-104450000D01*
X150700000Y-112350000D02*
X150700000Y-117800000D01*
X150500000Y-107250000D02*
X149226000Y-108524000D01*
X148600000Y-110250000D02*
X150700000Y-112350000D01*
X149226000Y-108524000D02*
X149082123Y-108524000D01*
X143474000Y-103324000D02*
X149374000Y-103324000D01*
X148600000Y-109006123D02*
X148600000Y-110250000D01*
%TO.N,Batt_control*%
X136400000Y-109600000D02*
X136400000Y-108200000D01*
X136000000Y-110000000D02*
X136400000Y-109600000D01*
X135600000Y-109800000D02*
X135800000Y-110000000D01*
X135800000Y-110000000D02*
X136000000Y-110000000D01*
%TO.N,/LED_STM32*%
X143550000Y-102050000D02*
X143550000Y-101000000D01*
X149650000Y-109050000D02*
X151000000Y-107700000D01*
X151000000Y-107700000D02*
X151000000Y-104150000D01*
X144350000Y-102850000D02*
X143550000Y-102050000D01*
X149700000Y-102850000D02*
X144350000Y-102850000D01*
X149300000Y-109050000D02*
X149650000Y-109050000D01*
X151000000Y-104150000D02*
X149700000Y-102850000D01*
%TD*%
%TA.AperFunction,Conductor*%
%TO.N,GND*%
G36*
X157802065Y-92050615D02*
G01*
X158120504Y-92068498D01*
X158128739Y-92069427D01*
X158441097Y-92122500D01*
X158449186Y-92124346D01*
X158604864Y-92169195D01*
X158753655Y-92212061D01*
X158761474Y-92214796D01*
X159054205Y-92336050D01*
X159061681Y-92339650D01*
X159339000Y-92492918D01*
X159346014Y-92497326D01*
X159539665Y-92634729D01*
X159604414Y-92680671D01*
X159610901Y-92685843D01*
X159847162Y-92896979D01*
X159853020Y-92902837D01*
X159977785Y-93042449D01*
X160064155Y-93139097D01*
X160069328Y-93145585D01*
X160252669Y-93403979D01*
X160257084Y-93411004D01*
X160269725Y-93433876D01*
X160410349Y-93688318D01*
X160413949Y-93695794D01*
X160535199Y-93988515D01*
X160537940Y-93996349D01*
X160625653Y-94300813D01*
X160627499Y-94308902D01*
X160680571Y-94621254D01*
X160681501Y-94629501D01*
X160699384Y-94947934D01*
X160699500Y-94952083D01*
X160699500Y-98907128D01*
X160677826Y-98959454D01*
X160625500Y-98981128D01*
X160573174Y-98959454D01*
X160563972Y-98948241D01*
X160526755Y-98892542D01*
X160387459Y-98753246D01*
X160223675Y-98643809D01*
X160041693Y-98568430D01*
X160041682Y-98568427D01*
X159848490Y-98530000D01*
X159700000Y-98530000D01*
X159700000Y-99230000D01*
X159200000Y-99230000D01*
X159200000Y-98530000D01*
X159051510Y-98530000D01*
X158858317Y-98568427D01*
X158858306Y-98568430D01*
X158676324Y-98643809D01*
X158512540Y-98753246D01*
X158373246Y-98892540D01*
X158263809Y-99056324D01*
X158188430Y-99238306D01*
X158188427Y-99238317D01*
X158180136Y-99279999D01*
X158180137Y-99280000D01*
X158983012Y-99280000D01*
X158965795Y-99289940D01*
X158909940Y-99345795D01*
X158870444Y-99414204D01*
X158850000Y-99490504D01*
X158850000Y-99569496D01*
X158870444Y-99645796D01*
X158909940Y-99714205D01*
X158965795Y-99770060D01*
X158983012Y-99780000D01*
X158180137Y-99780000D01*
X158188427Y-99821682D01*
X158188430Y-99821693D01*
X158263809Y-100003675D01*
X158373246Y-100167459D01*
X158512540Y-100306753D01*
X158676324Y-100416190D01*
X158858306Y-100491569D01*
X158858317Y-100491572D01*
X159051510Y-100530000D01*
X159200000Y-100530000D01*
X159200000Y-99830000D01*
X159700000Y-99830000D01*
X159700000Y-100530000D01*
X159848490Y-100530000D01*
X160041682Y-100491572D01*
X160041693Y-100491569D01*
X160223675Y-100416190D01*
X160387459Y-100306753D01*
X160526753Y-100167459D01*
X160563971Y-100111759D01*
X160611063Y-100080293D01*
X160666612Y-100091342D01*
X160698078Y-100138434D01*
X160699500Y-100152871D01*
X160699500Y-107547128D01*
X160677826Y-107599454D01*
X160625500Y-107621128D01*
X160573174Y-107599454D01*
X160563972Y-107588241D01*
X160526755Y-107532542D01*
X160387459Y-107393246D01*
X160223675Y-107283809D01*
X160041693Y-107208430D01*
X160041682Y-107208427D01*
X159848490Y-107170000D01*
X159700000Y-107170000D01*
X159700000Y-107870000D01*
X159200000Y-107870000D01*
X159200000Y-107170000D01*
X159051510Y-107170000D01*
X158858317Y-107208427D01*
X158858306Y-107208430D01*
X158676324Y-107283809D01*
X158512540Y-107393246D01*
X158373246Y-107532540D01*
X158263809Y-107696324D01*
X158188430Y-107878306D01*
X158188427Y-107878317D01*
X158180136Y-107919999D01*
X158180137Y-107920000D01*
X158983012Y-107920000D01*
X158965795Y-107929940D01*
X158909940Y-107985795D01*
X158870444Y-108054204D01*
X158850000Y-108130504D01*
X158850000Y-108209496D01*
X158870444Y-108285796D01*
X158909940Y-108354205D01*
X158965795Y-108410060D01*
X158983012Y-108420000D01*
X158180137Y-108420000D01*
X158188427Y-108461682D01*
X158188430Y-108461693D01*
X158263809Y-108643675D01*
X158373246Y-108807459D01*
X158512540Y-108946753D01*
X158676324Y-109056190D01*
X158858306Y-109131569D01*
X158858317Y-109131572D01*
X159051510Y-109170000D01*
X159200000Y-109170000D01*
X159200000Y-108470000D01*
X159700000Y-108470000D01*
X159700000Y-109170000D01*
X159848490Y-109170000D01*
X160041682Y-109131572D01*
X160041693Y-109131569D01*
X160223675Y-109056190D01*
X160387459Y-108946753D01*
X160526753Y-108807459D01*
X160563971Y-108751759D01*
X160611063Y-108720293D01*
X160666612Y-108731342D01*
X160698078Y-108778434D01*
X160699500Y-108792871D01*
X160699500Y-124547916D01*
X160699384Y-124552065D01*
X160681501Y-124870498D01*
X160680571Y-124878745D01*
X160627499Y-125191097D01*
X160625653Y-125199186D01*
X160537940Y-125503650D01*
X160535199Y-125511484D01*
X160413949Y-125804205D01*
X160410349Y-125811681D01*
X160257085Y-126088993D01*
X160252669Y-126096020D01*
X160069328Y-126354414D01*
X160064155Y-126360902D01*
X159853025Y-126597157D01*
X159847157Y-126603025D01*
X159610902Y-126814155D01*
X159604414Y-126819328D01*
X159346020Y-127002669D01*
X159338993Y-127007085D01*
X159061681Y-127160349D01*
X159054205Y-127163949D01*
X158761484Y-127285199D01*
X158753650Y-127287940D01*
X158449186Y-127375653D01*
X158441097Y-127377499D01*
X158128745Y-127430571D01*
X158120498Y-127431501D01*
X157802066Y-127449384D01*
X157797917Y-127449500D01*
X128202083Y-127449500D01*
X128197934Y-127449384D01*
X127879501Y-127431501D01*
X127871254Y-127430571D01*
X127558902Y-127377499D01*
X127550813Y-127375653D01*
X127246349Y-127287940D01*
X127238515Y-127285199D01*
X126945794Y-127163949D01*
X126938318Y-127160349D01*
X126661006Y-127007085D01*
X126653979Y-127002669D01*
X126546788Y-126926613D01*
X126514393Y-126903627D01*
X126395585Y-126819328D01*
X126389097Y-126814155D01*
X126329812Y-126761175D01*
X126152837Y-126603020D01*
X126146979Y-126597162D01*
X125935843Y-126360901D01*
X125930671Y-126354414D01*
X125916946Y-126335071D01*
X125747326Y-126096014D01*
X125742918Y-126089000D01*
X125589650Y-125811681D01*
X125586050Y-125804205D01*
X125555605Y-125730705D01*
X125464796Y-125511474D01*
X125462059Y-125503650D01*
X125374346Y-125199186D01*
X125372500Y-125191097D01*
X125321117Y-124888686D01*
X125319424Y-124878724D01*
X125319423Y-124878713D01*
X125899500Y-124878713D01*
X125899500Y-125121286D01*
X125931160Y-125361782D01*
X125931162Y-125361791D01*
X125993945Y-125596099D01*
X126086772Y-125820203D01*
X126086775Y-125820211D01*
X126208061Y-126030285D01*
X126208065Y-126030291D01*
X126258501Y-126096020D01*
X126355735Y-126222738D01*
X126527262Y-126394265D01*
X126611012Y-126458528D01*
X126719708Y-126541934D01*
X126719714Y-126541938D01*
X126820724Y-126600256D01*
X126929788Y-126663224D01*
X127153900Y-126756054D01*
X127388211Y-126818838D01*
X127388214Y-126818838D01*
X127388217Y-126818839D01*
X127494951Y-126832890D01*
X127628712Y-126850500D01*
X127628714Y-126850500D01*
X127871286Y-126850500D01*
X127871288Y-126850500D01*
X128056575Y-126826106D01*
X128111782Y-126818839D01*
X128111782Y-126818838D01*
X128111789Y-126818838D01*
X128346100Y-126756054D01*
X128570212Y-126663224D01*
X128780289Y-126541936D01*
X128972738Y-126394265D01*
X129144265Y-126222738D01*
X129291936Y-126030289D01*
X129413224Y-125820212D01*
X129506054Y-125596100D01*
X129568838Y-125361789D01*
X129600500Y-125121288D01*
X129600500Y-124878712D01*
X129568838Y-124638211D01*
X129506054Y-124403900D01*
X129413224Y-124179788D01*
X129291936Y-123969711D01*
X129144265Y-123777262D01*
X128972738Y-123605735D01*
X128780291Y-123458065D01*
X128780285Y-123458061D01*
X128570211Y-123336775D01*
X128570203Y-123336772D01*
X128346099Y-123243945D01*
X128111791Y-123181162D01*
X128111782Y-123181160D01*
X127918480Y-123155712D01*
X127871288Y-123149500D01*
X127628712Y-123149500D01*
X127585736Y-123155157D01*
X127388217Y-123181160D01*
X127388208Y-123181162D01*
X127153900Y-123243945D01*
X126929796Y-123336772D01*
X126929788Y-123336775D01*
X126719714Y-123458061D01*
X126719708Y-123458065D01*
X126527261Y-123605735D01*
X126355735Y-123777261D01*
X126208065Y-123969708D01*
X126208061Y-123969714D01*
X126086775Y-124179788D01*
X126086772Y-124179796D01*
X125993945Y-124403900D01*
X125931162Y-124638208D01*
X125931160Y-124638217D01*
X125899500Y-124878713D01*
X125319423Y-124878713D01*
X125318498Y-124870498D01*
X125305453Y-124638208D01*
X125300616Y-124552065D01*
X125300500Y-124547916D01*
X125300500Y-119852652D01*
X125322174Y-119800326D01*
X125374500Y-119778652D01*
X125426826Y-119800326D01*
X128625964Y-122999464D01*
X128685038Y-123038934D01*
X128685039Y-123038936D01*
X128685040Y-123038936D01*
X128773451Y-123098012D01*
X128773452Y-123098012D01*
X128773453Y-123098013D01*
X128855393Y-123131953D01*
X128937334Y-123165895D01*
X129111308Y-123200500D01*
X129111309Y-123200500D01*
X130888689Y-123200500D01*
X130888691Y-123200500D01*
X130938723Y-123190547D01*
X130990159Y-123199040D01*
X131026110Y-123219797D01*
X131026112Y-123219797D01*
X131026114Y-123219799D01*
X131026115Y-123219799D01*
X131026117Y-123219800D01*
X131083402Y-123235149D01*
X131140688Y-123250499D01*
X131140689Y-123250500D01*
X131140691Y-123250500D01*
X131259311Y-123250500D01*
X131259311Y-123250499D01*
X131373886Y-123219799D01*
X131476613Y-123160489D01*
X131560489Y-123076613D01*
X131619799Y-122973886D01*
X131650499Y-122859311D01*
X131650500Y-122859311D01*
X131650500Y-122791711D01*
X137596840Y-122791711D01*
X137713940Y-122840216D01*
X137713946Y-122840218D01*
X137863671Y-122870000D01*
X138016329Y-122870000D01*
X138166053Y-122840218D01*
X138166059Y-122840216D01*
X138283158Y-122791711D01*
X138697840Y-122791711D01*
X138814940Y-122840216D01*
X138814946Y-122840218D01*
X138964671Y-122870000D01*
X139117329Y-122870000D01*
X139267053Y-122840218D01*
X139267059Y-122840216D01*
X139384158Y-122791711D01*
X139041000Y-122448553D01*
X138697840Y-122791711D01*
X138283158Y-122791711D01*
X137940000Y-122448553D01*
X137596840Y-122791711D01*
X131650500Y-122791711D01*
X131650500Y-122773848D01*
X131650500Y-122740691D01*
X131633251Y-122676319D01*
X131632692Y-122673159D01*
X131635252Y-122661582D01*
X131637194Y-122631952D01*
X131665894Y-122562666D01*
X131700500Y-122388691D01*
X131700500Y-122211309D01*
X131665894Y-122037334D01*
X131658163Y-122018670D01*
X137165000Y-122018670D01*
X137165000Y-122171329D01*
X137194781Y-122321053D01*
X137194784Y-122321063D01*
X137243286Y-122438158D01*
X137243287Y-122438159D01*
X137586446Y-122095000D01*
X137586446Y-122094999D01*
X137556610Y-122065163D01*
X137790000Y-122065163D01*
X137790000Y-122124837D01*
X137812836Y-122179968D01*
X137855032Y-122222164D01*
X137910163Y-122245000D01*
X137969837Y-122245000D01*
X138024968Y-122222164D01*
X138067164Y-122179968D01*
X138090000Y-122124837D01*
X138090000Y-122094999D01*
X138293553Y-122094999D01*
X138490499Y-122291946D01*
X138687446Y-122095000D01*
X138687446Y-122094999D01*
X138657610Y-122065163D01*
X138891000Y-122065163D01*
X138891000Y-122124837D01*
X138913836Y-122179968D01*
X138956032Y-122222164D01*
X139011163Y-122245000D01*
X139070837Y-122245000D01*
X139125968Y-122222164D01*
X139168164Y-122179968D01*
X139191000Y-122124837D01*
X139191000Y-122094999D01*
X139394553Y-122094999D01*
X139394553Y-122095000D01*
X139737711Y-122438158D01*
X139786216Y-122321059D01*
X139786218Y-122321053D01*
X139816000Y-122171329D01*
X139816000Y-122018670D01*
X139786218Y-121868946D01*
X139786216Y-121868940D01*
X139737711Y-121751840D01*
X139394553Y-122094999D01*
X139191000Y-122094999D01*
X139191000Y-122065163D01*
X139168164Y-122010032D01*
X139125968Y-121967836D01*
X139070837Y-121945000D01*
X139011163Y-121945000D01*
X138956032Y-121967836D01*
X138913836Y-122010032D01*
X138891000Y-122065163D01*
X138657610Y-122065163D01*
X138490500Y-121898053D01*
X138293553Y-122094999D01*
X138090000Y-122094999D01*
X138090000Y-122065163D01*
X138067164Y-122010032D01*
X138024968Y-121967836D01*
X137969837Y-121945000D01*
X137910163Y-121945000D01*
X137855032Y-121967836D01*
X137812836Y-122010032D01*
X137790000Y-122065163D01*
X137556610Y-122065163D01*
X137243286Y-121751840D01*
X137194784Y-121868936D01*
X137194781Y-121868946D01*
X137165000Y-122018670D01*
X131658163Y-122018670D01*
X131598013Y-121873453D01*
X131560895Y-121817902D01*
X131550206Y-121764164D01*
X131549867Y-121764120D01*
X131549998Y-121763118D01*
X131549847Y-121762356D01*
X131550425Y-121759873D01*
X131550500Y-121759311D01*
X131550500Y-121640689D01*
X131550499Y-121640688D01*
X131519800Y-121526117D01*
X131519799Y-121526116D01*
X131519799Y-121526114D01*
X131516990Y-121521249D01*
X137719803Y-121521249D01*
X137939999Y-121741446D01*
X138160196Y-121521250D01*
X138160196Y-121521249D01*
X138820803Y-121521249D01*
X139040999Y-121741446D01*
X139261196Y-121521250D01*
X139261196Y-121521249D01*
X139041000Y-121301053D01*
X138820803Y-121521249D01*
X138160196Y-121521249D01*
X137940000Y-121301053D01*
X137719803Y-121521249D01*
X131516990Y-121521249D01*
X131460489Y-121423387D01*
X131376613Y-121339511D01*
X131376610Y-121339509D01*
X131376609Y-121339508D01*
X131273887Y-121280201D01*
X131273882Y-121280199D01*
X131159311Y-121249500D01*
X131159309Y-121249500D01*
X131040691Y-121249500D01*
X131040689Y-121249500D01*
X130926117Y-121280199D01*
X130926112Y-121280201D01*
X130823390Y-121339508D01*
X130785071Y-121377827D01*
X130732746Y-121399500D01*
X129603652Y-121399500D01*
X129551326Y-121377826D01*
X129044670Y-120871170D01*
X137165000Y-120871170D01*
X137165000Y-121023829D01*
X137194781Y-121173553D01*
X137194784Y-121173563D01*
X137243286Y-121290658D01*
X137243287Y-121290659D01*
X137586446Y-120947500D01*
X137586446Y-120947499D01*
X137556610Y-120917663D01*
X137790000Y-120917663D01*
X137790000Y-120977337D01*
X137812836Y-121032468D01*
X137855032Y-121074664D01*
X137910163Y-121097500D01*
X137969837Y-121097500D01*
X138024968Y-121074664D01*
X138067164Y-121032468D01*
X138090000Y-120977337D01*
X138090000Y-120947499D01*
X138293553Y-120947499D01*
X138490499Y-121144446D01*
X138687446Y-120947500D01*
X138687446Y-120947499D01*
X138657610Y-120917663D01*
X138891000Y-120917663D01*
X138891000Y-120977337D01*
X138913836Y-121032468D01*
X138956032Y-121074664D01*
X139011163Y-121097500D01*
X139070837Y-121097500D01*
X139125968Y-121074664D01*
X139168164Y-121032468D01*
X139191000Y-120977337D01*
X139191000Y-120947499D01*
X139394553Y-120947499D01*
X139394553Y-120947500D01*
X139737711Y-121290658D01*
X139786216Y-121173559D01*
X139786218Y-121173553D01*
X139816000Y-121023829D01*
X139816000Y-120871170D01*
X139786218Y-120721446D01*
X139786216Y-120721440D01*
X139737711Y-120604340D01*
X139394553Y-120947499D01*
X139191000Y-120947499D01*
X139191000Y-120917663D01*
X139168164Y-120862532D01*
X139125968Y-120820336D01*
X139070837Y-120797500D01*
X139011163Y-120797500D01*
X138956032Y-120820336D01*
X138913836Y-120862532D01*
X138891000Y-120917663D01*
X138657610Y-120917663D01*
X138490500Y-120750553D01*
X138293553Y-120947499D01*
X138090000Y-120947499D01*
X138090000Y-120917663D01*
X138067164Y-120862532D01*
X138024968Y-120820336D01*
X137969837Y-120797500D01*
X137910163Y-120797500D01*
X137855032Y-120820336D01*
X137812836Y-120862532D01*
X137790000Y-120917663D01*
X137556610Y-120917663D01*
X137243286Y-120604340D01*
X137194784Y-120721436D01*
X137194781Y-120721446D01*
X137165000Y-120871170D01*
X129044670Y-120871170D01*
X128547249Y-120373749D01*
X137719803Y-120373749D01*
X137939999Y-120593946D01*
X138160196Y-120373750D01*
X138160196Y-120373749D01*
X138820803Y-120373749D01*
X139040999Y-120593946D01*
X139261196Y-120373750D01*
X139261196Y-120373749D01*
X139041000Y-120153553D01*
X138820803Y-120373749D01*
X138160196Y-120373749D01*
X137940000Y-120153553D01*
X137719803Y-120373749D01*
X128547249Y-120373749D01*
X127897170Y-119723670D01*
X137165000Y-119723670D01*
X137165000Y-119876329D01*
X137194781Y-120026053D01*
X137194784Y-120026063D01*
X137243286Y-120143158D01*
X137243287Y-120143159D01*
X137586446Y-119800000D01*
X137586446Y-119799999D01*
X137556610Y-119770163D01*
X137790000Y-119770163D01*
X137790000Y-119829837D01*
X137812836Y-119884968D01*
X137855032Y-119927164D01*
X137910163Y-119950000D01*
X137969837Y-119950000D01*
X138024968Y-119927164D01*
X138067164Y-119884968D01*
X138090000Y-119829837D01*
X138090000Y-119799999D01*
X138293553Y-119799999D01*
X138490499Y-119996946D01*
X138687446Y-119800000D01*
X138687446Y-119799999D01*
X138657610Y-119770163D01*
X138891000Y-119770163D01*
X138891000Y-119829837D01*
X138913836Y-119884968D01*
X138956032Y-119927164D01*
X139011163Y-119950000D01*
X139070837Y-119950000D01*
X139125968Y-119927164D01*
X139168164Y-119884968D01*
X139191000Y-119829837D01*
X139191000Y-119799999D01*
X139394553Y-119799999D01*
X139394553Y-119800000D01*
X139737711Y-120143158D01*
X139786216Y-120026059D01*
X139786218Y-120026053D01*
X139816000Y-119876329D01*
X139816000Y-119723670D01*
X139786218Y-119573946D01*
X139786216Y-119573940D01*
X139737711Y-119456840D01*
X139394553Y-119799999D01*
X139191000Y-119799999D01*
X139191000Y-119770163D01*
X139168164Y-119715032D01*
X139125968Y-119672836D01*
X139070837Y-119650000D01*
X139011163Y-119650000D01*
X138956032Y-119672836D01*
X138913836Y-119715032D01*
X138891000Y-119770163D01*
X138657610Y-119770163D01*
X138490500Y-119603053D01*
X138293553Y-119799999D01*
X138090000Y-119799999D01*
X138090000Y-119770163D01*
X138067164Y-119715032D01*
X138024968Y-119672836D01*
X137969837Y-119650000D01*
X137910163Y-119650000D01*
X137855032Y-119672836D01*
X137812836Y-119715032D01*
X137790000Y-119770163D01*
X137556610Y-119770163D01*
X137243286Y-119456840D01*
X137194784Y-119573936D01*
X137194781Y-119573946D01*
X137165000Y-119723670D01*
X127897170Y-119723670D01*
X127022174Y-118848674D01*
X127018866Y-118840688D01*
X131199500Y-118840688D01*
X131199500Y-118959311D01*
X131230199Y-119073882D01*
X131230201Y-119073887D01*
X131289508Y-119176609D01*
X131289509Y-119176610D01*
X131289511Y-119176613D01*
X131373387Y-119260489D01*
X131476114Y-119319799D01*
X131476115Y-119319799D01*
X131476117Y-119319800D01*
X131533402Y-119335149D01*
X131590688Y-119350499D01*
X131590689Y-119350500D01*
X131590691Y-119350500D01*
X131709311Y-119350500D01*
X131709311Y-119350499D01*
X131823886Y-119319799D01*
X131926613Y-119260489D01*
X132010489Y-119176613D01*
X132052825Y-119103286D01*
X137596840Y-119103286D01*
X137939999Y-119446446D01*
X138283159Y-119103287D01*
X138283158Y-119103286D01*
X138697840Y-119103286D01*
X139040999Y-119446446D01*
X139384159Y-119103287D01*
X139384158Y-119103286D01*
X139267063Y-119054784D01*
X139267053Y-119054781D01*
X139117329Y-119025000D01*
X138964671Y-119025000D01*
X138814946Y-119054781D01*
X138814936Y-119054784D01*
X138697840Y-119103286D01*
X138283158Y-119103286D01*
X138166063Y-119054784D01*
X138166053Y-119054781D01*
X138016329Y-119025000D01*
X137863671Y-119025000D01*
X137713946Y-119054781D01*
X137713936Y-119054784D01*
X137596840Y-119103286D01*
X132052825Y-119103286D01*
X132069799Y-119073886D01*
X132100499Y-118959311D01*
X132100500Y-118959311D01*
X132100500Y-118840689D01*
X132100499Y-118840688D01*
X132069800Y-118726117D01*
X132069798Y-118726112D01*
X132010491Y-118623390D01*
X132010490Y-118623389D01*
X132010489Y-118623387D01*
X131926613Y-118539511D01*
X131912499Y-118531362D01*
X131878021Y-118486428D01*
X131875500Y-118467277D01*
X131875500Y-114790688D01*
X132349500Y-114790688D01*
X132349500Y-114909311D01*
X132380199Y-115023882D01*
X132380201Y-115023887D01*
X132439508Y-115126609D01*
X132439509Y-115126610D01*
X132439511Y-115126613D01*
X132523387Y-115210489D01*
X132523389Y-115210490D01*
X132523390Y-115210491D01*
X132612580Y-115261985D01*
X132626114Y-115269799D01*
X132626115Y-115269799D01*
X132626117Y-115269800D01*
X132658666Y-115278522D01*
X132703599Y-115313001D01*
X132710991Y-115369153D01*
X132676512Y-115414086D01*
X132658666Y-115421478D01*
X132626117Y-115430199D01*
X132626112Y-115430201D01*
X132523390Y-115489508D01*
X132439508Y-115573390D01*
X132380201Y-115676112D01*
X132380199Y-115676117D01*
X132349500Y-115790688D01*
X132349500Y-115909311D01*
X132380199Y-116023882D01*
X132380201Y-116023887D01*
X132439508Y-116126609D01*
X132439509Y-116126610D01*
X132439511Y-116126613D01*
X132523387Y-116210489D01*
X132626114Y-116269799D01*
X132626115Y-116269799D01*
X132626117Y-116269800D01*
X132658666Y-116278522D01*
X132703599Y-116313001D01*
X132710991Y-116369153D01*
X132676512Y-116414086D01*
X132658666Y-116421478D01*
X132626117Y-116430199D01*
X132626112Y-116430201D01*
X132523390Y-116489508D01*
X132439508Y-116573390D01*
X132380201Y-116676112D01*
X132380199Y-116676117D01*
X132349500Y-116790688D01*
X132349500Y-116909311D01*
X132380199Y-117023882D01*
X132380201Y-117023887D01*
X132439508Y-117126609D01*
X132439509Y-117126610D01*
X132439511Y-117126613D01*
X132523387Y-117210489D01*
X132523389Y-117210490D01*
X132523390Y-117210491D01*
X132565607Y-117234865D01*
X132626114Y-117269799D01*
X132626115Y-117269799D01*
X132626117Y-117269800D01*
X132658666Y-117278522D01*
X132703599Y-117313001D01*
X132710991Y-117369153D01*
X132676512Y-117414086D01*
X132658666Y-117421478D01*
X132626117Y-117430199D01*
X132626112Y-117430201D01*
X132523390Y-117489508D01*
X132439508Y-117573390D01*
X132380201Y-117676112D01*
X132380199Y-117676117D01*
X132349500Y-117790688D01*
X132349500Y-117909311D01*
X132380199Y-118023882D01*
X132380201Y-118023887D01*
X132439508Y-118126609D01*
X132439509Y-118126610D01*
X132439511Y-118126613D01*
X132523387Y-118210489D01*
X132523389Y-118210490D01*
X132523390Y-118210491D01*
X132592687Y-118250500D01*
X132626114Y-118269799D01*
X132626115Y-118269799D01*
X132626117Y-118269800D01*
X132683402Y-118285149D01*
X132740688Y-118300499D01*
X132740689Y-118300500D01*
X132740691Y-118300500D01*
X132859311Y-118300500D01*
X132859311Y-118300499D01*
X132973886Y-118269799D01*
X133076613Y-118210489D01*
X133096414Y-118190688D01*
X141499500Y-118190688D01*
X141499500Y-118309311D01*
X141530199Y-118423882D01*
X141530201Y-118423887D01*
X141589508Y-118526609D01*
X141589509Y-118526610D01*
X141589511Y-118526613D01*
X141673387Y-118610489D01*
X141687500Y-118618637D01*
X141721978Y-118663570D01*
X141724500Y-118682723D01*
X141724500Y-119929557D01*
X141714586Y-119966557D01*
X141680201Y-120026112D01*
X141680199Y-120026117D01*
X141649500Y-120140688D01*
X141649500Y-120259311D01*
X141680199Y-120373882D01*
X141680201Y-120373887D01*
X141739508Y-120476609D01*
X141739509Y-120476610D01*
X141739511Y-120476613D01*
X141777826Y-120514928D01*
X141799500Y-120567253D01*
X141799500Y-125739564D01*
X141819977Y-125815985D01*
X141819979Y-125815990D01*
X141851150Y-125869979D01*
X141859540Y-125884511D01*
X142216637Y-126241608D01*
X142238311Y-126293934D01*
X142216639Y-126346258D01*
X142189508Y-126373389D01*
X142130201Y-126476112D01*
X142130199Y-126476117D01*
X142099500Y-126590688D01*
X142099500Y-126709311D01*
X142130199Y-126823882D01*
X142130201Y-126823887D01*
X142189508Y-126926609D01*
X142189509Y-126926610D01*
X142189511Y-126926613D01*
X142273387Y-127010489D01*
X142273389Y-127010490D01*
X142273390Y-127010491D01*
X142359992Y-127060491D01*
X142376114Y-127069799D01*
X142376115Y-127069799D01*
X142376117Y-127069800D01*
X142433402Y-127085149D01*
X142490688Y-127100499D01*
X142490689Y-127100500D01*
X142490691Y-127100500D01*
X142609311Y-127100500D01*
X142609311Y-127100499D01*
X142723886Y-127069799D01*
X142826613Y-127010489D01*
X142910489Y-126926613D01*
X142921480Y-126907577D01*
X142966412Y-126873098D01*
X143022565Y-126880490D01*
X143049652Y-126907576D01*
X143089508Y-126976609D01*
X143089509Y-126976610D01*
X143089511Y-126976613D01*
X143173387Y-127060489D01*
X143173389Y-127060490D01*
X143173390Y-127060491D01*
X143242687Y-127100500D01*
X143276114Y-127119799D01*
X143276115Y-127119799D01*
X143276117Y-127119800D01*
X143333402Y-127135149D01*
X143390688Y-127150499D01*
X143390689Y-127150500D01*
X143390691Y-127150500D01*
X143509311Y-127150500D01*
X143509311Y-127150499D01*
X143623886Y-127119799D01*
X143726613Y-127060489D01*
X143810489Y-126976613D01*
X143835914Y-126932575D01*
X143880847Y-126898098D01*
X143937000Y-126905490D01*
X143964086Y-126932576D01*
X143989508Y-126976609D01*
X143989509Y-126976610D01*
X143989511Y-126976613D01*
X144073387Y-127060489D01*
X144073389Y-127060490D01*
X144073390Y-127060491D01*
X144142687Y-127100500D01*
X144176114Y-127119799D01*
X144176115Y-127119799D01*
X144176117Y-127119800D01*
X144233402Y-127135149D01*
X144290688Y-127150499D01*
X144290689Y-127150500D01*
X144290691Y-127150500D01*
X144409311Y-127150500D01*
X144409311Y-127150499D01*
X144523886Y-127119799D01*
X144626613Y-127060489D01*
X144710489Y-126976613D01*
X144769799Y-126873886D01*
X144800499Y-126759311D01*
X144800500Y-126759311D01*
X144800500Y-126640689D01*
X144800499Y-126640688D01*
X144799714Y-126637760D01*
X144769799Y-126526114D01*
X144737117Y-126469508D01*
X144710491Y-126423390D01*
X144710490Y-126423389D01*
X144710489Y-126423387D01*
X144626613Y-126339511D01*
X144626610Y-126339509D01*
X144626609Y-126339508D01*
X144523887Y-126280201D01*
X144523882Y-126280199D01*
X144409311Y-126249500D01*
X144409309Y-126249500D01*
X144290691Y-126249500D01*
X144290689Y-126249500D01*
X144176117Y-126280199D01*
X144176112Y-126280201D01*
X144073390Y-126339508D01*
X143989508Y-126423390D01*
X143964086Y-126467423D01*
X143919152Y-126501902D01*
X143863000Y-126494509D01*
X143835914Y-126467423D01*
X143810491Y-126423390D01*
X143810490Y-126423389D01*
X143810489Y-126423387D01*
X143726613Y-126339511D01*
X143726610Y-126339509D01*
X143726609Y-126339508D01*
X143623887Y-126280201D01*
X143623882Y-126280199D01*
X143509311Y-126249500D01*
X143509309Y-126249500D01*
X143390691Y-126249500D01*
X143390689Y-126249500D01*
X143276117Y-126280199D01*
X143276112Y-126280201D01*
X143173390Y-126339508D01*
X143089508Y-126423390D01*
X143078518Y-126442425D01*
X143033583Y-126476902D01*
X142977431Y-126469508D01*
X142950347Y-126442423D01*
X142939358Y-126423390D01*
X142922543Y-126394265D01*
X142910491Y-126373390D01*
X142910490Y-126373389D01*
X142910489Y-126373387D01*
X142872173Y-126335071D01*
X142850500Y-126282746D01*
X142850500Y-126110436D01*
X142850499Y-126110435D01*
X142830022Y-126034014D01*
X142830020Y-126034009D01*
X142790459Y-125965488D01*
X142422174Y-125597203D01*
X142400500Y-125544877D01*
X142400500Y-124878713D01*
X156399500Y-124878713D01*
X156399500Y-125121286D01*
X156431160Y-125361782D01*
X156431162Y-125361791D01*
X156493945Y-125596099D01*
X156586772Y-125820203D01*
X156586775Y-125820211D01*
X156708061Y-126030285D01*
X156708065Y-126030291D01*
X156758501Y-126096020D01*
X156855735Y-126222738D01*
X157027262Y-126394265D01*
X157111012Y-126458528D01*
X157219708Y-126541934D01*
X157219714Y-126541938D01*
X157320724Y-126600256D01*
X157429788Y-126663224D01*
X157653900Y-126756054D01*
X157888211Y-126818838D01*
X157888214Y-126818838D01*
X157888217Y-126818839D01*
X157994951Y-126832890D01*
X158128712Y-126850500D01*
X158128714Y-126850500D01*
X158371286Y-126850500D01*
X158371288Y-126850500D01*
X158556575Y-126826106D01*
X158611782Y-126818839D01*
X158611782Y-126818838D01*
X158611789Y-126818838D01*
X158846100Y-126756054D01*
X159070212Y-126663224D01*
X159280289Y-126541936D01*
X159472738Y-126394265D01*
X159644265Y-126222738D01*
X159791936Y-126030289D01*
X159913224Y-125820212D01*
X160006054Y-125596100D01*
X160068838Y-125361789D01*
X160100500Y-125121288D01*
X160100500Y-124878712D01*
X160068838Y-124638211D01*
X160006054Y-124403900D01*
X159913224Y-124179788D01*
X159791936Y-123969711D01*
X159644265Y-123777262D01*
X159472738Y-123605735D01*
X159280291Y-123458065D01*
X159280285Y-123458061D01*
X159070211Y-123336775D01*
X159070203Y-123336772D01*
X158846099Y-123243945D01*
X158611791Y-123181162D01*
X158611782Y-123181160D01*
X158418480Y-123155712D01*
X158371288Y-123149500D01*
X158128712Y-123149500D01*
X158085736Y-123155157D01*
X157888217Y-123181160D01*
X157888208Y-123181162D01*
X157653900Y-123243945D01*
X157429796Y-123336772D01*
X157429788Y-123336775D01*
X157219714Y-123458061D01*
X157219708Y-123458065D01*
X157027261Y-123605735D01*
X156855735Y-123777261D01*
X156708065Y-123969708D01*
X156708061Y-123969714D01*
X156586775Y-124179788D01*
X156586772Y-124179796D01*
X156493945Y-124403900D01*
X156431162Y-124638208D01*
X156431160Y-124638217D01*
X156399500Y-124878713D01*
X142400500Y-124878713D01*
X142400500Y-120567253D01*
X142422173Y-120514928D01*
X142460489Y-120476613D01*
X142519799Y-120373886D01*
X142550499Y-120259311D01*
X142550500Y-120259311D01*
X142550500Y-120140689D01*
X142550499Y-120140688D01*
X158049494Y-120140688D01*
X158049494Y-120259311D01*
X158080193Y-120373882D01*
X158080195Y-120373887D01*
X158139502Y-120476609D01*
X158139503Y-120476610D01*
X158139505Y-120476613D01*
X158223381Y-120560489D01*
X158223383Y-120560490D01*
X158223384Y-120560491D01*
X158299332Y-120604340D01*
X158326108Y-120619799D01*
X158326109Y-120619799D01*
X158326111Y-120619800D01*
X158383396Y-120635149D01*
X158440682Y-120650499D01*
X158440683Y-120650500D01*
X158440685Y-120650500D01*
X158559305Y-120650500D01*
X158559305Y-120650499D01*
X158673880Y-120619799D01*
X158776607Y-120560489D01*
X158797669Y-120539426D01*
X158849993Y-120517752D01*
X158902320Y-120539425D01*
X158923384Y-120560489D01*
X158923386Y-120560490D01*
X158923387Y-120560491D01*
X158999335Y-120604340D01*
X159026111Y-120619799D01*
X159026112Y-120619799D01*
X159026114Y-120619800D01*
X159083399Y-120635149D01*
X159140685Y-120650499D01*
X159140686Y-120650500D01*
X159140688Y-120650500D01*
X159259308Y-120650500D01*
X159259308Y-120650499D01*
X159373883Y-120619799D01*
X159476610Y-120560489D01*
X159497672Y-120539426D01*
X159549996Y-120517752D01*
X159602323Y-120539425D01*
X159623387Y-120560489D01*
X159623389Y-120560490D01*
X159623390Y-120560491D01*
X159699338Y-120604340D01*
X159726114Y-120619799D01*
X159726115Y-120619799D01*
X159726117Y-120619800D01*
X159783402Y-120635149D01*
X159840688Y-120650499D01*
X159840689Y-120650500D01*
X159840691Y-120650500D01*
X159959311Y-120650500D01*
X159959311Y-120650499D01*
X160073886Y-120619799D01*
X160176613Y-120560489D01*
X160260489Y-120476613D01*
X160319799Y-120373886D01*
X160350499Y-120259311D01*
X160350500Y-120259311D01*
X160350500Y-120140689D01*
X160350499Y-120140688D01*
X160319800Y-120026117D01*
X160319798Y-120026112D01*
X160260491Y-119923390D01*
X160260490Y-119923389D01*
X160260489Y-119923387D01*
X160176613Y-119839511D01*
X160176610Y-119839509D01*
X160176609Y-119839508D01*
X160073887Y-119780201D01*
X160073882Y-119780199D01*
X159959311Y-119749500D01*
X159959309Y-119749500D01*
X159840691Y-119749500D01*
X159840689Y-119749500D01*
X159726117Y-119780199D01*
X159726112Y-119780201D01*
X159623386Y-119839511D01*
X159602321Y-119860575D01*
X159549994Y-119882247D01*
X159497672Y-119860573D01*
X159476610Y-119839511D01*
X159476607Y-119839509D01*
X159476606Y-119839508D01*
X159373884Y-119780201D01*
X159373879Y-119780199D01*
X159259308Y-119749500D01*
X159259306Y-119749500D01*
X159140688Y-119749500D01*
X159140686Y-119749500D01*
X159026114Y-119780199D01*
X159026109Y-119780201D01*
X158923383Y-119839511D01*
X158902318Y-119860575D01*
X158849991Y-119882247D01*
X158797669Y-119860573D01*
X158776607Y-119839511D01*
X158776604Y-119839509D01*
X158776603Y-119839508D01*
X158673881Y-119780201D01*
X158673876Y-119780199D01*
X158559305Y-119749500D01*
X158559303Y-119749500D01*
X158440685Y-119749500D01*
X158440683Y-119749500D01*
X158326111Y-119780199D01*
X158326106Y-119780201D01*
X158223384Y-119839508D01*
X158139502Y-119923390D01*
X158080195Y-120026112D01*
X158080193Y-120026117D01*
X158049494Y-120140688D01*
X142550499Y-120140688D01*
X142519800Y-120026117D01*
X142519798Y-120026112D01*
X142460491Y-119923390D01*
X142460490Y-119923389D01*
X142460489Y-119923387D01*
X142376613Y-119839511D01*
X142376610Y-119839509D01*
X142376609Y-119839508D01*
X142273887Y-119780201D01*
X142273882Y-119780199D01*
X142230347Y-119768534D01*
X142185414Y-119734055D01*
X142175500Y-119697056D01*
X142175500Y-118682723D01*
X142197174Y-118630397D01*
X142212500Y-118618637D01*
X142226613Y-118610489D01*
X142310489Y-118526613D01*
X142369799Y-118423886D01*
X142400499Y-118309311D01*
X142400500Y-118309311D01*
X142400500Y-118190689D01*
X142400499Y-118190688D01*
X142369800Y-118076117D01*
X142369798Y-118076112D01*
X142310491Y-117973390D01*
X142310490Y-117973389D01*
X142310489Y-117973387D01*
X142226613Y-117889511D01*
X142226610Y-117889509D01*
X142226609Y-117889508D01*
X142123887Y-117830201D01*
X142123882Y-117830199D01*
X142009311Y-117799500D01*
X142009309Y-117799500D01*
X141890691Y-117799500D01*
X141890689Y-117799500D01*
X141776117Y-117830199D01*
X141776112Y-117830201D01*
X141673390Y-117889508D01*
X141589508Y-117973390D01*
X141530201Y-118076112D01*
X141530199Y-118076117D01*
X141499500Y-118190688D01*
X133096414Y-118190688D01*
X133160489Y-118126613D01*
X133219799Y-118023886D01*
X133225035Y-118004347D01*
X133259513Y-117959414D01*
X133296513Y-117949500D01*
X139222525Y-117949500D01*
X139222533Y-117949501D01*
X139231145Y-117949501D01*
X139320854Y-117949501D01*
X139320855Y-117949501D01*
X139379460Y-117925225D01*
X139403736Y-117915170D01*
X139467170Y-117851736D01*
X139467170Y-117851735D01*
X139477575Y-117841330D01*
X139477577Y-117841327D01*
X148248174Y-109070730D01*
X148300500Y-109049056D01*
X148352826Y-109070730D01*
X148374500Y-109123056D01*
X148374500Y-110199173D01*
X148374499Y-110199187D01*
X148374499Y-110205145D01*
X148374499Y-110294855D01*
X148385114Y-110320480D01*
X148408828Y-110377733D01*
X148408831Y-110377737D01*
X148482671Y-110451577D01*
X148482673Y-110451578D01*
X150452826Y-112421731D01*
X150474500Y-112474057D01*
X150474500Y-117367277D01*
X150452826Y-117419603D01*
X150437501Y-117431362D01*
X150423390Y-117439509D01*
X150423388Y-117439510D01*
X150339508Y-117523390D01*
X150280201Y-117626112D01*
X150280199Y-117626117D01*
X150249500Y-117740688D01*
X150249500Y-117859311D01*
X150280199Y-117973882D01*
X150280201Y-117973887D01*
X150339508Y-118076609D01*
X150339509Y-118076610D01*
X150339511Y-118076613D01*
X150423387Y-118160489D01*
X150423389Y-118160490D01*
X150423390Y-118160491D01*
X150509992Y-118210491D01*
X150526114Y-118219799D01*
X150526115Y-118219799D01*
X150526117Y-118219800D01*
X150583402Y-118235149D01*
X150640688Y-118250499D01*
X150640689Y-118250500D01*
X150640691Y-118250500D01*
X150759311Y-118250500D01*
X150759311Y-118250499D01*
X150873886Y-118219799D01*
X150976613Y-118160489D01*
X151060489Y-118076613D01*
X151119799Y-117973886D01*
X151150499Y-117859311D01*
X151150500Y-117859311D01*
X151150500Y-117740689D01*
X151150499Y-117740688D01*
X151119800Y-117626117D01*
X151119798Y-117626112D01*
X151060491Y-117523390D01*
X151060490Y-117523389D01*
X151060489Y-117523387D01*
X150976613Y-117439511D01*
X150962499Y-117431362D01*
X150928021Y-117386428D01*
X150925500Y-117367277D01*
X150925500Y-112305145D01*
X150925499Y-112305143D01*
X150891171Y-112222266D01*
X150891169Y-112222263D01*
X148847174Y-110178268D01*
X148825500Y-110125942D01*
X148825500Y-109391253D01*
X148847174Y-109338927D01*
X148899500Y-109317253D01*
X148951824Y-109338926D01*
X149023387Y-109410489D01*
X149126114Y-109469799D01*
X149126115Y-109469799D01*
X149126117Y-109469800D01*
X149183402Y-109485149D01*
X149240688Y-109500499D01*
X149240689Y-109500500D01*
X149240691Y-109500500D01*
X149359311Y-109500500D01*
X149359311Y-109500499D01*
X149473886Y-109469799D01*
X149576613Y-109410489D01*
X149660489Y-109326613D01*
X149675913Y-109299898D01*
X149711674Y-109268533D01*
X149753460Y-109251225D01*
X149777736Y-109241170D01*
X149841170Y-109177736D01*
X149841170Y-109177735D01*
X149851575Y-109167330D01*
X149851576Y-109167327D01*
X151191170Y-107827736D01*
X151225500Y-107744855D01*
X151225500Y-107655146D01*
X151225500Y-104991253D01*
X151247174Y-104938927D01*
X151299500Y-104917253D01*
X151351824Y-104938926D01*
X151423387Y-105010489D01*
X151423389Y-105010490D01*
X151423390Y-105010491D01*
X151507945Y-105059309D01*
X151526114Y-105069799D01*
X151526115Y-105069799D01*
X151526117Y-105069800D01*
X151583402Y-105085149D01*
X151640688Y-105100499D01*
X151640689Y-105100500D01*
X151640691Y-105100500D01*
X151759311Y-105100500D01*
X151759311Y-105100499D01*
X151873886Y-105069799D01*
X151976613Y-105010489D01*
X152060489Y-104926613D01*
X152119799Y-104823886D01*
X152150499Y-104709311D01*
X152150500Y-104709311D01*
X152150500Y-104590689D01*
X152150499Y-104590688D01*
X152147688Y-104580199D01*
X152119799Y-104476114D01*
X152096185Y-104435213D01*
X152060414Y-104373256D01*
X152050500Y-104336256D01*
X152050500Y-103003854D01*
X152050499Y-103003853D01*
X152043500Y-102977734D01*
X152026614Y-102914712D01*
X152018409Y-102900500D01*
X151980470Y-102834788D01*
X147415212Y-98269530D01*
X147397822Y-98259490D01*
X147335289Y-98223386D01*
X147335284Y-98223384D01*
X147246146Y-98199500D01*
X147246144Y-98199500D01*
X146863744Y-98199500D01*
X146826744Y-98189586D01*
X146723887Y-98130201D01*
X146723882Y-98130199D01*
X146609311Y-98099500D01*
X146609309Y-98099500D01*
X146490691Y-98099500D01*
X146490689Y-98099500D01*
X146376117Y-98130199D01*
X146376112Y-98130201D01*
X146273390Y-98189508D01*
X146189508Y-98273390D01*
X146130201Y-98376112D01*
X146130199Y-98376117D01*
X146099500Y-98490688D01*
X146099500Y-98609311D01*
X146130199Y-98723882D01*
X146130201Y-98723887D01*
X146189508Y-98826609D01*
X146189509Y-98826610D01*
X146189511Y-98826613D01*
X146273387Y-98910489D01*
X146273389Y-98910490D01*
X146273390Y-98910491D01*
X146358196Y-98959454D01*
X146376114Y-98969799D01*
X146376115Y-98969799D01*
X146376117Y-98969800D01*
X146418394Y-98981128D01*
X146490688Y-99000499D01*
X146490689Y-99000500D01*
X146490691Y-99000500D01*
X146609311Y-99000500D01*
X146609311Y-99000499D01*
X146723886Y-98969799D01*
X146765045Y-98946035D01*
X146826744Y-98910414D01*
X146863744Y-98900500D01*
X147024166Y-98900500D01*
X147076492Y-98922174D01*
X151327826Y-103173508D01*
X151349500Y-103225834D01*
X151349500Y-104032483D01*
X151343867Y-104046080D01*
X151343869Y-104060796D01*
X151333460Y-104071206D01*
X151327826Y-104084809D01*
X151314229Y-104090440D01*
X151303824Y-104100848D01*
X151289101Y-104100849D01*
X151275500Y-104106483D01*
X151261902Y-104100850D01*
X151247187Y-104100852D01*
X151236776Y-104090443D01*
X151223174Y-104084809D01*
X151207135Y-104060807D01*
X151205392Y-104056600D01*
X151205390Y-104056594D01*
X151191171Y-104022266D01*
X151191169Y-104022263D01*
X151123521Y-103954615D01*
X151123514Y-103954609D01*
X149901578Y-102732673D01*
X149901578Y-102732672D01*
X149827738Y-102658832D01*
X149827736Y-102658830D01*
X149803460Y-102648774D01*
X149803458Y-102648773D01*
X149803458Y-102648772D01*
X149744855Y-102624499D01*
X149655145Y-102624499D01*
X149646533Y-102624499D01*
X149646525Y-102624500D01*
X145141253Y-102624500D01*
X145088927Y-102602826D01*
X145067253Y-102550500D01*
X145088926Y-102498175D01*
X145160489Y-102426613D01*
X145219799Y-102323886D01*
X145250499Y-102209311D01*
X145250500Y-102209311D01*
X145250500Y-102090689D01*
X145250499Y-102090688D01*
X145219800Y-101976117D01*
X145219798Y-101976112D01*
X145160491Y-101873390D01*
X145160490Y-101873389D01*
X145160489Y-101873387D01*
X145076613Y-101789511D01*
X145062499Y-101781362D01*
X145028021Y-101736428D01*
X145025500Y-101717277D01*
X145025500Y-96484105D01*
X147899500Y-96484105D01*
X147899500Y-96615894D01*
X147933606Y-96743181D01*
X147933607Y-96743184D01*
X147933608Y-96743186D01*
X147999500Y-96857314D01*
X150242686Y-99100500D01*
X150356814Y-99166392D01*
X150356815Y-99166392D01*
X150356817Y-99166393D01*
X150375862Y-99171496D01*
X150484104Y-99200499D01*
X150484105Y-99200500D01*
X150484107Y-99200500D01*
X150484108Y-99200500D01*
X151041323Y-99200500D01*
X151093649Y-99222174D01*
X152327826Y-100456351D01*
X152349500Y-100508677D01*
X152349500Y-115872477D01*
X152373083Y-115960487D01*
X152373083Y-115960488D01*
X152387014Y-116012480D01*
X152387015Y-116012482D01*
X152387016Y-116012485D01*
X152459490Y-116138015D01*
X153434490Y-117113015D01*
X154661985Y-118340510D01*
X154787515Y-118412984D01*
X154927526Y-118450499D01*
X154927527Y-118450499D01*
X155072473Y-118450499D01*
X155072474Y-118450499D01*
X155212485Y-118412984D01*
X155338015Y-118340510D01*
X155440510Y-118238015D01*
X155512984Y-118112485D01*
X155550499Y-117972474D01*
X155550499Y-117827526D01*
X155512984Y-117687515D01*
X155440510Y-117561985D01*
X155380850Y-117502325D01*
X155359176Y-117449999D01*
X155380849Y-117397674D01*
X155440509Y-117338015D01*
X155512984Y-117212485D01*
X155550499Y-117072477D01*
X155550500Y-117072477D01*
X155550500Y-116927523D01*
X155550499Y-116927522D01*
X155545619Y-116909311D01*
X155512984Y-116787515D01*
X155440509Y-116661985D01*
X155338015Y-116559491D01*
X155212486Y-116487016D01*
X155212481Y-116487014D01*
X155072477Y-116449500D01*
X155072475Y-116449500D01*
X154358677Y-116449500D01*
X154306351Y-116427826D01*
X153472174Y-115593649D01*
X153450500Y-115541323D01*
X153450500Y-107919999D01*
X153750136Y-107919999D01*
X153750137Y-107920000D01*
X154553012Y-107920000D01*
X154535795Y-107929940D01*
X154479940Y-107985795D01*
X154440444Y-108054204D01*
X154420000Y-108130504D01*
X154420000Y-108209496D01*
X154440444Y-108285796D01*
X154479940Y-108354205D01*
X154535795Y-108410060D01*
X154553012Y-108420000D01*
X153750137Y-108420000D01*
X153758427Y-108461682D01*
X153758430Y-108461693D01*
X153833809Y-108643675D01*
X153943246Y-108807459D01*
X154082540Y-108946753D01*
X154246324Y-109056190D01*
X154428306Y-109131569D01*
X154428317Y-109131572D01*
X154621510Y-109170000D01*
X155020000Y-109170000D01*
X155020000Y-108470000D01*
X155520000Y-108470000D01*
X155520000Y-109170000D01*
X155918490Y-109170000D01*
X156111682Y-109131572D01*
X156111693Y-109131569D01*
X156293675Y-109056190D01*
X156457459Y-108946753D01*
X156596753Y-108807459D01*
X156706190Y-108643675D01*
X156781569Y-108461693D01*
X156781572Y-108461682D01*
X156789863Y-108420000D01*
X155986988Y-108420000D01*
X156004205Y-108410060D01*
X156060060Y-108354205D01*
X156099556Y-108285796D01*
X156120000Y-108209496D01*
X156120000Y-108130504D01*
X156099556Y-108054204D01*
X156060060Y-107985795D01*
X156004205Y-107929940D01*
X155986988Y-107920000D01*
X156789863Y-107920000D01*
X156789863Y-107919999D01*
X156781572Y-107878317D01*
X156781569Y-107878306D01*
X156706190Y-107696324D01*
X156596753Y-107532540D01*
X156457459Y-107393246D01*
X156293677Y-107283810D01*
X156237880Y-107260698D01*
X156197832Y-107220649D01*
X156197832Y-107164012D01*
X156213871Y-107140008D01*
X156260515Y-107093365D01*
X156336281Y-106962135D01*
X156375499Y-106815768D01*
X156375500Y-106815768D01*
X156375500Y-106664232D01*
X156375499Y-106664231D01*
X156357049Y-106595375D01*
X156336281Y-106517865D01*
X156260515Y-106386635D01*
X156153365Y-106279485D01*
X156151798Y-106278580D01*
X156022139Y-106203721D01*
X156022130Y-106203717D01*
X155875768Y-106164500D01*
X155875766Y-106164500D01*
X155724234Y-106164500D01*
X155724232Y-106164500D01*
X155577869Y-106203717D01*
X155577860Y-106203721D01*
X155446637Y-106279483D01*
X155339483Y-106386637D01*
X155263721Y-106517860D01*
X155263717Y-106517869D01*
X155224500Y-106664231D01*
X155224500Y-106815768D01*
X155263717Y-106962130D01*
X155263721Y-106962139D01*
X155337939Y-107090688D01*
X155339485Y-107093365D01*
X155446635Y-107200515D01*
X155483000Y-107221510D01*
X155517478Y-107266443D01*
X155520000Y-107285596D01*
X155520000Y-107870000D01*
X155020000Y-107870000D01*
X155020000Y-107170000D01*
X154621510Y-107170000D01*
X154428317Y-107208427D01*
X154428306Y-107208430D01*
X154246324Y-107283809D01*
X154082540Y-107393246D01*
X153943246Y-107532540D01*
X153833809Y-107696324D01*
X153758430Y-107878306D01*
X153758427Y-107878317D01*
X153750136Y-107919999D01*
X153450500Y-107919999D01*
X153450500Y-100177523D01*
X153450499Y-100177522D01*
X153412985Y-100037517D01*
X153412984Y-100037515D01*
X153340510Y-99911985D01*
X152708524Y-99279999D01*
X153750136Y-99279999D01*
X153750137Y-99280000D01*
X154553012Y-99280000D01*
X154535795Y-99289940D01*
X154479940Y-99345795D01*
X154440444Y-99414204D01*
X154420000Y-99490504D01*
X154420000Y-99569496D01*
X154440444Y-99645796D01*
X154479940Y-99714205D01*
X154535795Y-99770060D01*
X154553012Y-99780000D01*
X153750137Y-99780000D01*
X153758427Y-99821682D01*
X153758430Y-99821693D01*
X153833809Y-100003675D01*
X153943246Y-100167459D01*
X154082540Y-100306753D01*
X154246324Y-100416190D01*
X154428306Y-100491569D01*
X154428317Y-100491572D01*
X154621510Y-100530000D01*
X155020000Y-100530000D01*
X155020000Y-99830000D01*
X155520000Y-99830000D01*
X155520000Y-100414403D01*
X155498326Y-100466729D01*
X155483000Y-100478489D01*
X155446638Y-100499482D01*
X155339483Y-100606637D01*
X155263721Y-100737860D01*
X155263717Y-100737869D01*
X155224500Y-100884231D01*
X155224500Y-101035768D01*
X155263717Y-101182130D01*
X155263721Y-101182139D01*
X155339483Y-101313362D01*
X155339485Y-101313365D01*
X155446635Y-101420515D01*
X155577865Y-101496281D01*
X155724231Y-101535499D01*
X155724232Y-101535500D01*
X155724234Y-101535500D01*
X155875768Y-101535500D01*
X155875768Y-101535499D01*
X156022135Y-101496281D01*
X156153365Y-101420515D01*
X156260515Y-101313365D01*
X156336281Y-101182135D01*
X156375499Y-101035768D01*
X156375500Y-101035768D01*
X156375500Y-100884232D01*
X156375499Y-100884231D01*
X156374501Y-100880508D01*
X156336281Y-100737865D01*
X156260515Y-100606635D01*
X156213871Y-100559991D01*
X156192198Y-100507667D01*
X156213872Y-100455341D01*
X156237881Y-100439299D01*
X156293675Y-100416189D01*
X156457459Y-100306753D01*
X156596753Y-100167459D01*
X156706190Y-100003675D01*
X156781569Y-99821693D01*
X156781572Y-99821682D01*
X156789863Y-99780000D01*
X155986988Y-99780000D01*
X156004205Y-99770060D01*
X156060060Y-99714205D01*
X156099556Y-99645796D01*
X156120000Y-99569496D01*
X156120000Y-99490504D01*
X156099556Y-99414204D01*
X156060060Y-99345795D01*
X156004205Y-99289940D01*
X155986988Y-99280000D01*
X156789863Y-99280000D01*
X156789863Y-99279999D01*
X156781572Y-99238317D01*
X156781569Y-99238306D01*
X156706190Y-99056324D01*
X156596753Y-98892540D01*
X156457459Y-98753246D01*
X156293675Y-98643809D01*
X156111693Y-98568430D01*
X156111682Y-98568427D01*
X155918490Y-98530000D01*
X155520000Y-98530000D01*
X155520000Y-99230000D01*
X155020000Y-99230000D01*
X155020000Y-98530000D01*
X154621510Y-98530000D01*
X154428317Y-98568427D01*
X154428306Y-98568430D01*
X154246324Y-98643809D01*
X154082540Y-98753246D01*
X153943246Y-98892540D01*
X153833809Y-99056324D01*
X153758430Y-99238306D01*
X153758427Y-99238317D01*
X153750136Y-99279999D01*
X152708524Y-99279999D01*
X151688015Y-98259490D01*
X149538015Y-96109490D01*
X149475678Y-96073500D01*
X149412482Y-96037014D01*
X149272476Y-95999500D01*
X149272474Y-95999500D01*
X149127526Y-95999500D01*
X149127524Y-95999500D01*
X148987517Y-96037014D01*
X148861982Y-96109491D01*
X148816969Y-96154504D01*
X148764643Y-96176178D01*
X148712318Y-96154504D01*
X148707314Y-96149500D01*
X148593190Y-96083610D01*
X148593181Y-96083606D01*
X148465894Y-96049500D01*
X148465892Y-96049500D01*
X148334108Y-96049500D01*
X148334106Y-96049500D01*
X148206818Y-96083606D01*
X148206809Y-96083610D01*
X148092685Y-96149500D01*
X147999500Y-96242685D01*
X147933610Y-96356809D01*
X147933606Y-96356818D01*
X147899500Y-96484105D01*
X145025500Y-96484105D01*
X145025500Y-94824500D01*
X145047174Y-94772174D01*
X145099500Y-94750500D01*
X145974819Y-94750500D01*
X145974820Y-94750500D01*
X146018722Y-94741767D01*
X146068504Y-94708504D01*
X146101767Y-94658722D01*
X146110500Y-94614820D01*
X146110500Y-93651460D01*
X146649500Y-93651460D01*
X146649500Y-93848539D01*
X146687947Y-94041829D01*
X146687950Y-94041839D01*
X146763367Y-94223913D01*
X146866801Y-94378712D01*
X146872861Y-94387782D01*
X147012218Y-94527139D01*
X147176086Y-94636632D01*
X147358165Y-94712051D01*
X147551459Y-94750500D01*
X147551461Y-94750500D01*
X147748539Y-94750500D01*
X147748541Y-94750500D01*
X147941835Y-94712051D01*
X148123914Y-94636632D01*
X148287782Y-94527139D01*
X148427139Y-94387782D01*
X148536632Y-94223914D01*
X148612051Y-94041835D01*
X148650500Y-93848541D01*
X148650500Y-93651460D01*
X149189500Y-93651460D01*
X149189500Y-93848539D01*
X149227947Y-94041829D01*
X149227950Y-94041839D01*
X149303367Y-94223913D01*
X149406801Y-94378712D01*
X149412861Y-94387782D01*
X149552218Y-94527139D01*
X149716086Y-94636632D01*
X149898165Y-94712051D01*
X150091459Y-94750500D01*
X150091461Y-94750500D01*
X150288539Y-94750500D01*
X150288541Y-94750500D01*
X150481835Y-94712051D01*
X150663914Y-94636632D01*
X150827782Y-94527139D01*
X150967139Y-94387782D01*
X151076632Y-94223914D01*
X151152051Y-94041835D01*
X151190500Y-93848541D01*
X151190500Y-93651459D01*
X151188967Y-93643751D01*
X151380000Y-93643751D01*
X151380000Y-93856248D01*
X151413241Y-94066123D01*
X151413244Y-94066136D01*
X151478904Y-94268217D01*
X151478906Y-94268221D01*
X151575375Y-94457550D01*
X151575378Y-94457556D01*
X151614728Y-94511716D01*
X152247037Y-93879407D01*
X152264075Y-93942993D01*
X152329901Y-94057007D01*
X152422993Y-94150099D01*
X152537007Y-94215925D01*
X152600590Y-94232962D01*
X151968282Y-94865270D01*
X152022449Y-94904624D01*
X152211778Y-95001093D01*
X152211782Y-95001095D01*
X152413863Y-95066755D01*
X152413876Y-95066758D01*
X152623751Y-95100000D01*
X152836249Y-95100000D01*
X153046123Y-95066758D01*
X153046136Y-95066755D01*
X153248217Y-95001095D01*
X153248221Y-95001093D01*
X153437554Y-94904623D01*
X153437561Y-94904618D01*
X153491716Y-94865270D01*
X153491717Y-94865270D01*
X152859409Y-94232962D01*
X152922993Y-94215925D01*
X153037007Y-94150099D01*
X153130099Y-94057007D01*
X153195925Y-93942993D01*
X153212962Y-93879409D01*
X153845270Y-94511717D01*
X153845270Y-94511716D01*
X153884618Y-94457561D01*
X153884623Y-94457554D01*
X153924795Y-94378713D01*
X156399500Y-94378713D01*
X156399500Y-94621286D01*
X156431160Y-94861782D01*
X156431162Y-94861791D01*
X156493945Y-95096099D01*
X156586772Y-95320203D01*
X156586775Y-95320211D01*
X156708061Y-95530285D01*
X156708065Y-95530291D01*
X156855735Y-95722738D01*
X157027261Y-95894264D01*
X157219708Y-96041934D01*
X157219714Y-96041938D01*
X157429788Y-96163224D01*
X157653900Y-96256054D01*
X157888211Y-96318838D01*
X157888214Y-96318838D01*
X157888217Y-96318839D01*
X157994951Y-96332890D01*
X158128712Y-96350500D01*
X158128714Y-96350500D01*
X158371286Y-96350500D01*
X158371288Y-96350500D01*
X158556575Y-96326106D01*
X158611782Y-96318839D01*
X158611782Y-96318838D01*
X158611789Y-96318838D01*
X158846100Y-96256054D01*
X159070212Y-96163224D01*
X159280289Y-96041936D01*
X159472738Y-95894265D01*
X159644265Y-95722738D01*
X159791936Y-95530289D01*
X159913224Y-95320212D01*
X160006054Y-95096100D01*
X160068838Y-94861789D01*
X160100500Y-94621288D01*
X160100500Y-94378712D01*
X160068838Y-94138211D01*
X160006054Y-93903900D01*
X159913224Y-93679788D01*
X159892418Y-93643751D01*
X159791938Y-93469714D01*
X159791934Y-93469708D01*
X159644264Y-93277261D01*
X159472738Y-93105735D01*
X159280291Y-92958065D01*
X159280285Y-92958061D01*
X159070211Y-92836775D01*
X159070203Y-92836772D01*
X158846099Y-92743945D01*
X158611791Y-92681162D01*
X158611782Y-92681160D01*
X158418480Y-92655712D01*
X158371288Y-92649500D01*
X158128712Y-92649500D01*
X158085736Y-92655157D01*
X157888217Y-92681160D01*
X157888208Y-92681162D01*
X157653900Y-92743945D01*
X157429796Y-92836772D01*
X157429788Y-92836775D01*
X157219714Y-92958061D01*
X157219708Y-92958065D01*
X157027261Y-93105735D01*
X156855735Y-93277261D01*
X156708065Y-93469708D01*
X156708061Y-93469714D01*
X156586775Y-93679788D01*
X156586772Y-93679796D01*
X156493945Y-93903900D01*
X156431162Y-94138208D01*
X156431160Y-94138217D01*
X156399500Y-94378713D01*
X153924795Y-94378713D01*
X153943147Y-94342695D01*
X153943147Y-94342694D01*
X153981095Y-94268216D01*
X154046755Y-94066136D01*
X154046758Y-94066123D01*
X154080000Y-93856248D01*
X154080000Y-93643751D01*
X154046758Y-93433876D01*
X154046755Y-93433863D01*
X153981095Y-93231782D01*
X153981093Y-93231778D01*
X153884624Y-93042449D01*
X153884625Y-93042449D01*
X153845269Y-92988282D01*
X153212962Y-93620590D01*
X153195925Y-93557007D01*
X153130099Y-93442993D01*
X153037007Y-93349901D01*
X152922993Y-93284075D01*
X152859407Y-93267037D01*
X153491716Y-92634728D01*
X153437556Y-92595378D01*
X153437550Y-92595375D01*
X153248221Y-92498906D01*
X153248217Y-92498904D01*
X153046136Y-92433244D01*
X153046123Y-92433241D01*
X152836249Y-92400000D01*
X152623751Y-92400000D01*
X152413876Y-92433241D01*
X152413863Y-92433244D01*
X152211785Y-92498903D01*
X152022450Y-92595374D01*
X151968282Y-92634729D01*
X152600590Y-93267037D01*
X152537007Y-93284075D01*
X152422993Y-93349901D01*
X152329901Y-93442993D01*
X152264075Y-93557007D01*
X152247037Y-93620590D01*
X151614729Y-92988282D01*
X151575374Y-93042450D01*
X151478903Y-93231785D01*
X151413244Y-93433863D01*
X151413241Y-93433876D01*
X151380000Y-93643751D01*
X151188967Y-93643751D01*
X151152051Y-93458165D01*
X151076632Y-93276086D01*
X150967139Y-93112218D01*
X150827782Y-92972861D01*
X150805639Y-92958065D01*
X150663913Y-92863367D01*
X150481839Y-92787950D01*
X150481829Y-92787947D01*
X150332444Y-92758233D01*
X150288541Y-92749500D01*
X150091459Y-92749500D01*
X150047556Y-92758233D01*
X149898170Y-92787947D01*
X149898160Y-92787950D01*
X149716086Y-92863367D01*
X149552218Y-92972860D01*
X149552217Y-92972862D01*
X149412862Y-93112217D01*
X149412860Y-93112218D01*
X149303367Y-93276086D01*
X149227950Y-93458160D01*
X149227947Y-93458170D01*
X149189500Y-93651460D01*
X148650500Y-93651460D01*
X148650500Y-93651459D01*
X148612051Y-93458165D01*
X148536632Y-93276086D01*
X148427139Y-93112218D01*
X148287782Y-92972861D01*
X148265639Y-92958065D01*
X148123913Y-92863367D01*
X147941839Y-92787950D01*
X147941829Y-92787947D01*
X147792444Y-92758233D01*
X147748541Y-92749500D01*
X147551459Y-92749500D01*
X147507556Y-92758233D01*
X147358170Y-92787947D01*
X147358160Y-92787950D01*
X147176086Y-92863367D01*
X147012218Y-92972860D01*
X147012217Y-92972862D01*
X146872862Y-93112217D01*
X146872860Y-93112218D01*
X146763367Y-93276086D01*
X146687950Y-93458160D01*
X146687947Y-93458170D01*
X146649500Y-93651460D01*
X146110500Y-93651460D01*
X146110500Y-92885180D01*
X146101767Y-92841278D01*
X146068504Y-92791496D01*
X146063195Y-92787949D01*
X146018722Y-92758233D01*
X145974820Y-92749500D01*
X144245180Y-92749500D01*
X144223229Y-92753866D01*
X144201277Y-92758233D01*
X144151496Y-92791495D01*
X144151495Y-92791496D01*
X144118233Y-92841277D01*
X144118233Y-92841278D01*
X144109500Y-92885180D01*
X144109500Y-94614820D01*
X144118233Y-94658722D01*
X144151496Y-94708504D01*
X144201278Y-94741767D01*
X144245180Y-94750500D01*
X144500500Y-94750500D01*
X144552826Y-94772174D01*
X144574500Y-94824500D01*
X144574500Y-101717277D01*
X144552826Y-101769603D01*
X144537501Y-101781362D01*
X144523390Y-101789509D01*
X144523388Y-101789510D01*
X144439508Y-101873390D01*
X144380201Y-101976112D01*
X144380199Y-101976117D01*
X144349500Y-102090688D01*
X144349500Y-102209311D01*
X144380199Y-102323882D01*
X144380201Y-102323887D01*
X144423465Y-102398822D01*
X144430857Y-102454975D01*
X144396379Y-102499908D01*
X144340226Y-102507300D01*
X144307053Y-102488148D01*
X143797174Y-101978269D01*
X143775500Y-101925943D01*
X143775500Y-101482723D01*
X143797174Y-101430397D01*
X143812500Y-101418637D01*
X143826613Y-101410489D01*
X143910489Y-101326613D01*
X143969799Y-101223886D01*
X144000499Y-101109311D01*
X144000500Y-101109311D01*
X144000500Y-100990689D01*
X144000499Y-100990688D01*
X143969800Y-100876117D01*
X143969798Y-100876112D01*
X143910491Y-100773390D01*
X143910490Y-100773389D01*
X143910489Y-100773387D01*
X143826613Y-100689511D01*
X143826610Y-100689509D01*
X143826609Y-100689508D01*
X143723887Y-100630201D01*
X143723882Y-100630199D01*
X143609311Y-100599500D01*
X143609309Y-100599500D01*
X143490691Y-100599500D01*
X143490689Y-100599500D01*
X143376117Y-100630199D01*
X143376112Y-100630201D01*
X143273390Y-100689508D01*
X143189508Y-100773390D01*
X143130201Y-100876112D01*
X143130199Y-100876117D01*
X143099500Y-100990688D01*
X143099500Y-101109311D01*
X143130199Y-101223882D01*
X143130201Y-101223887D01*
X143189508Y-101326609D01*
X143189509Y-101326610D01*
X143189511Y-101326613D01*
X143273387Y-101410489D01*
X143287500Y-101418637D01*
X143321978Y-101463570D01*
X143324500Y-101482723D01*
X143324500Y-101999173D01*
X143324499Y-101999187D01*
X143324499Y-102094856D01*
X143348773Y-102153458D01*
X143358829Y-102177734D01*
X143358832Y-102177738D01*
X143432671Y-102251577D01*
X143432673Y-102251578D01*
X144153269Y-102972174D01*
X144174943Y-103024500D01*
X144153269Y-103076826D01*
X144100943Y-103098500D01*
X143598057Y-103098500D01*
X143545731Y-103076826D01*
X141665434Y-101196529D01*
X141643760Y-101144203D01*
X141646281Y-101125053D01*
X141650500Y-101109309D01*
X141650500Y-100990691D01*
X141650500Y-100990689D01*
X141650499Y-100990688D01*
X141619800Y-100876117D01*
X141619798Y-100876112D01*
X141560491Y-100773390D01*
X141560490Y-100773389D01*
X141560489Y-100773387D01*
X141476613Y-100689511D01*
X141476610Y-100689509D01*
X141476609Y-100689508D01*
X141373887Y-100630201D01*
X141373882Y-100630199D01*
X141259311Y-100599500D01*
X141259309Y-100599500D01*
X141140691Y-100599500D01*
X141140689Y-100599500D01*
X141026117Y-100630199D01*
X141026112Y-100630201D01*
X140923390Y-100689508D01*
X140839508Y-100773390D01*
X140780201Y-100876112D01*
X140780199Y-100876117D01*
X140749500Y-100990688D01*
X140749500Y-101109311D01*
X140780199Y-101223882D01*
X140780201Y-101223887D01*
X140839508Y-101326609D01*
X140839509Y-101326610D01*
X140839511Y-101326613D01*
X140923387Y-101410489D01*
X140923389Y-101410490D01*
X140923390Y-101410491D01*
X140940752Y-101420515D01*
X141026114Y-101469799D01*
X141026115Y-101469799D01*
X141026117Y-101469800D01*
X141074347Y-101482723D01*
X141140688Y-101500499D01*
X141140689Y-101500500D01*
X141140691Y-101500500D01*
X141259309Y-101500500D01*
X141275049Y-101496282D01*
X141331200Y-101503673D01*
X141346529Y-101515434D01*
X143278609Y-103447514D01*
X143278612Y-103447518D01*
X143282830Y-103451736D01*
X143346264Y-103515170D01*
X143380595Y-103529390D01*
X143429146Y-103549501D01*
X143429147Y-103549501D01*
X143527467Y-103549501D01*
X143527475Y-103549500D01*
X144384747Y-103549500D01*
X144437073Y-103571174D01*
X144458747Y-103623500D01*
X144440345Y-103667924D01*
X144442459Y-103669546D01*
X144439509Y-103673389D01*
X144380201Y-103776112D01*
X144380199Y-103776117D01*
X144349500Y-103890688D01*
X144349500Y-103890691D01*
X144349500Y-104009309D01*
X144352972Y-104022266D01*
X144353718Y-104025050D01*
X144346325Y-104081202D01*
X144334565Y-104096528D01*
X138623512Y-109807581D01*
X138623502Y-109807591D01*
X138622265Y-109808829D01*
X138622264Y-109808830D01*
X138558830Y-109872264D01*
X138558830Y-109872265D01*
X138553897Y-109884173D01*
X138553895Y-109884176D01*
X138524499Y-109955144D01*
X138524499Y-110053466D01*
X138524500Y-110053475D01*
X138524500Y-111949173D01*
X138524499Y-111949187D01*
X138524499Y-112044855D01*
X138548165Y-112101988D01*
X138558830Y-112127736D01*
X138632671Y-112201577D01*
X138632672Y-112201577D01*
X138984565Y-112553471D01*
X139006239Y-112605796D01*
X139003718Y-112624946D01*
X138999500Y-112640688D01*
X138999500Y-112759311D01*
X139030199Y-112873882D01*
X139030201Y-112873887D01*
X139089508Y-112976609D01*
X139089509Y-112976610D01*
X139089511Y-112976613D01*
X139173387Y-113060489D01*
X139173389Y-113060490D01*
X139173390Y-113060491D01*
X139268798Y-113115575D01*
X139276114Y-113119799D01*
X139276115Y-113119799D01*
X139276117Y-113119800D01*
X139333402Y-113135149D01*
X139390688Y-113150499D01*
X139390689Y-113150500D01*
X139390691Y-113150500D01*
X139509311Y-113150500D01*
X139509311Y-113150499D01*
X139623886Y-113119799D01*
X139726613Y-113060489D01*
X139810489Y-112976613D01*
X139869799Y-112873886D01*
X139900499Y-112759311D01*
X139900500Y-112759311D01*
X139900500Y-112640689D01*
X139900499Y-112640688D01*
X139869800Y-112526117D01*
X139869798Y-112526112D01*
X139810491Y-112423390D01*
X139810490Y-112423389D01*
X139810489Y-112423387D01*
X139726613Y-112339511D01*
X139726610Y-112339509D01*
X139726609Y-112339508D01*
X139623887Y-112280201D01*
X139623882Y-112280199D01*
X139509311Y-112249500D01*
X139509309Y-112249500D01*
X139390691Y-112249500D01*
X139374948Y-112253718D01*
X139318796Y-112246324D01*
X139303471Y-112234565D01*
X138997174Y-111928268D01*
X138975500Y-111875942D01*
X138975500Y-110124056D01*
X138997173Y-110071731D01*
X139228216Y-109840688D01*
X139649500Y-109840688D01*
X139649500Y-109959311D01*
X139680199Y-110073882D01*
X139680201Y-110073887D01*
X139739508Y-110176609D01*
X139739509Y-110176610D01*
X139739511Y-110176613D01*
X139823387Y-110260489D01*
X139823389Y-110260490D01*
X139823390Y-110260491D01*
X139882910Y-110294855D01*
X139926114Y-110319799D01*
X139926115Y-110319799D01*
X139926117Y-110319800D01*
X139983402Y-110335149D01*
X140040688Y-110350499D01*
X140040689Y-110350500D01*
X140040691Y-110350500D01*
X140159311Y-110350500D01*
X140159311Y-110350499D01*
X140273886Y-110319799D01*
X140376613Y-110260489D01*
X140460489Y-110176613D01*
X140468637Y-110162499D01*
X140513570Y-110128022D01*
X140532723Y-110125500D01*
X141310714Y-110125500D01*
X141363040Y-110147174D01*
X141379083Y-110171186D01*
X141380201Y-110173887D01*
X141439508Y-110276609D01*
X141439509Y-110276610D01*
X141439511Y-110276613D01*
X141523387Y-110360489D01*
X141626114Y-110419799D01*
X141626115Y-110419799D01*
X141626117Y-110419800D01*
X141683402Y-110435149D01*
X141740688Y-110450499D01*
X141740689Y-110450500D01*
X141740691Y-110450500D01*
X141859311Y-110450500D01*
X141859311Y-110450499D01*
X141973886Y-110419799D01*
X142076613Y-110360489D01*
X142160489Y-110276613D01*
X142219799Y-110173886D01*
X142250499Y-110059311D01*
X142250500Y-110059311D01*
X142250500Y-109940689D01*
X142250499Y-109940688D01*
X142219800Y-109826117D01*
X142219798Y-109826112D01*
X142160491Y-109723390D01*
X142160490Y-109723389D01*
X142160489Y-109723387D01*
X142076613Y-109639511D01*
X142076610Y-109639509D01*
X142076609Y-109639508D01*
X141973887Y-109580201D01*
X141973882Y-109580199D01*
X141859311Y-109549500D01*
X141859309Y-109549500D01*
X141740691Y-109549500D01*
X141740689Y-109549500D01*
X141626117Y-109580199D01*
X141626112Y-109580201D01*
X141523390Y-109639508D01*
X141523387Y-109639510D01*
X141523387Y-109639511D01*
X141510071Y-109652826D01*
X141457747Y-109674500D01*
X140532723Y-109674500D01*
X140480397Y-109652826D01*
X140468637Y-109637500D01*
X140462062Y-109626112D01*
X140460489Y-109623387D01*
X140376613Y-109539511D01*
X140376610Y-109539509D01*
X140376609Y-109539508D01*
X140273887Y-109480201D01*
X140273882Y-109480199D01*
X140159311Y-109449500D01*
X140159309Y-109449500D01*
X140040691Y-109449500D01*
X140040689Y-109449500D01*
X139926117Y-109480199D01*
X139926112Y-109480201D01*
X139823390Y-109539508D01*
X139739508Y-109623390D01*
X139680201Y-109726112D01*
X139680199Y-109726117D01*
X139649500Y-109840688D01*
X139228216Y-109840688D01*
X144653470Y-104415433D01*
X144705795Y-104393760D01*
X144724949Y-104396282D01*
X144740690Y-104400500D01*
X144740691Y-104400500D01*
X144859311Y-104400500D01*
X144859311Y-104400499D01*
X144973886Y-104369799D01*
X145076613Y-104310489D01*
X145160489Y-104226613D01*
X145219799Y-104123886D01*
X145250499Y-104009311D01*
X145250500Y-104009311D01*
X145250500Y-103890689D01*
X145250499Y-103890688D01*
X145219800Y-103776117D01*
X145219798Y-103776112D01*
X145160490Y-103673389D01*
X145160489Y-103673387D01*
X145160486Y-103673384D01*
X145157541Y-103669546D01*
X145159654Y-103667924D01*
X145141253Y-103623500D01*
X145162927Y-103571174D01*
X145215253Y-103549500D01*
X148375130Y-103549500D01*
X148427456Y-103571174D01*
X148449130Y-103623500D01*
X148439215Y-103660501D01*
X148430202Y-103676110D01*
X148430199Y-103676117D01*
X148399500Y-103790688D01*
X148399500Y-103909311D01*
X148430199Y-104023882D01*
X148430201Y-104023887D01*
X148489508Y-104126609D01*
X148489509Y-104126610D01*
X148489511Y-104126613D01*
X148573387Y-104210489D01*
X148573389Y-104210490D01*
X148573390Y-104210491D01*
X148657115Y-104258830D01*
X148676114Y-104269799D01*
X148676115Y-104269799D01*
X148676117Y-104269800D01*
X148733402Y-104285149D01*
X148790688Y-104300499D01*
X148790689Y-104300500D01*
X148900943Y-104300500D01*
X148953269Y-104322174D01*
X149066308Y-104435213D01*
X149087982Y-104487539D01*
X149066308Y-104539865D01*
X149013982Y-104561539D01*
X148994829Y-104559017D01*
X148959311Y-104549500D01*
X148959309Y-104549500D01*
X148840691Y-104549500D01*
X148840689Y-104549500D01*
X148726117Y-104580199D01*
X148726112Y-104580201D01*
X148623390Y-104639508D01*
X148539508Y-104723390D01*
X148480201Y-104826112D01*
X148480199Y-104826117D01*
X148449500Y-104940688D01*
X148449500Y-105059311D01*
X148480199Y-105173882D01*
X148480201Y-105173887D01*
X148539508Y-105276609D01*
X148539509Y-105276610D01*
X148539511Y-105276613D01*
X148623387Y-105360489D01*
X148623389Y-105360490D01*
X148623390Y-105360491D01*
X148726112Y-105419798D01*
X148726114Y-105419799D01*
X148726115Y-105419799D01*
X148726117Y-105419800D01*
X148770760Y-105431762D01*
X148840688Y-105450499D01*
X148840689Y-105450500D01*
X148840691Y-105450500D01*
X148959311Y-105450500D01*
X148959311Y-105450499D01*
X149073886Y-105419799D01*
X149073890Y-105419796D01*
X149078369Y-105417942D01*
X149078930Y-105419297D01*
X149092677Y-105417484D01*
X149110530Y-105410089D01*
X149119761Y-105413912D01*
X149129668Y-105412606D01*
X149162856Y-105431762D01*
X149202825Y-105471730D01*
X149224500Y-105524056D01*
X149224500Y-106625942D01*
X149202826Y-106678268D01*
X149101826Y-106779268D01*
X149049500Y-106800942D01*
X148997174Y-106779268D01*
X148975500Y-106726942D01*
X148975500Y-106352768D01*
X148975501Y-106352759D01*
X148975501Y-106254439D01*
X148962844Y-106223882D01*
X148946748Y-106185025D01*
X148943638Y-106137555D01*
X148951207Y-106109309D01*
X148951207Y-105990691D01*
X148951207Y-105990689D01*
X148951206Y-105990688D01*
X148920507Y-105876117D01*
X148920505Y-105876112D01*
X148861198Y-105773390D01*
X148861197Y-105773389D01*
X148861196Y-105773387D01*
X148777320Y-105689511D01*
X148777317Y-105689509D01*
X148777316Y-105689508D01*
X148674594Y-105630201D01*
X148674589Y-105630199D01*
X148560018Y-105599500D01*
X148560016Y-105599500D01*
X148441398Y-105599500D01*
X148441396Y-105599500D01*
X148326824Y-105630199D01*
X148326819Y-105630201D01*
X148224097Y-105689508D01*
X148140215Y-105773390D01*
X148080908Y-105876112D01*
X148080906Y-105876117D01*
X148050207Y-105990688D01*
X148050207Y-106109311D01*
X148080906Y-106223882D01*
X148080909Y-106223888D01*
X148112485Y-106278580D01*
X148119877Y-106334733D01*
X148085399Y-106379666D01*
X148029246Y-106387058D01*
X147985018Y-106375207D01*
X147985016Y-106375207D01*
X147866398Y-106375207D01*
X147866396Y-106375207D01*
X147751824Y-106405906D01*
X147751819Y-106405908D01*
X147649097Y-106465215D01*
X147565215Y-106549097D01*
X147505908Y-106651819D01*
X147505906Y-106651824D01*
X147475207Y-106766395D01*
X147475207Y-106885015D01*
X147479126Y-106899642D01*
X147471733Y-106955794D01*
X147459973Y-106971120D01*
X139778269Y-114652826D01*
X139725943Y-114674500D01*
X133261591Y-114674500D01*
X133209265Y-114652826D01*
X133197505Y-114637500D01*
X133160491Y-114573390D01*
X133160490Y-114573389D01*
X133160489Y-114573387D01*
X133076613Y-114489511D01*
X133076610Y-114489509D01*
X133076609Y-114489508D01*
X132973887Y-114430201D01*
X132973882Y-114430199D01*
X132859311Y-114399500D01*
X132859309Y-114399500D01*
X132740691Y-114399500D01*
X132740689Y-114399500D01*
X132626117Y-114430199D01*
X132626112Y-114430201D01*
X132523390Y-114489508D01*
X132439508Y-114573390D01*
X132380201Y-114676112D01*
X132380199Y-114676117D01*
X132349500Y-114790688D01*
X131875500Y-114790688D01*
X131875500Y-111024056D01*
X131897173Y-110971731D01*
X133128216Y-109740688D01*
X135149500Y-109740688D01*
X135149500Y-109859311D01*
X135180199Y-109973882D01*
X135180201Y-109973887D01*
X135239508Y-110076609D01*
X135239509Y-110076610D01*
X135239511Y-110076613D01*
X135323387Y-110160489D01*
X135323389Y-110160490D01*
X135323390Y-110160491D01*
X135426112Y-110219798D01*
X135426114Y-110219799D01*
X135426115Y-110219799D01*
X135426117Y-110219800D01*
X135447390Y-110225500D01*
X135540688Y-110250499D01*
X135540689Y-110250500D01*
X135540691Y-110250500D01*
X135659310Y-110250500D01*
X135698958Y-110239875D01*
X135743192Y-110228022D01*
X135762343Y-110225501D01*
X135844855Y-110225501D01*
X135844856Y-110225500D01*
X135853474Y-110225500D01*
X135946525Y-110225500D01*
X135946533Y-110225501D01*
X135955145Y-110225501D01*
X136044854Y-110225501D01*
X136044855Y-110225501D01*
X136105211Y-110200500D01*
X136127736Y-110191170D01*
X136191170Y-110127736D01*
X136191170Y-110127735D01*
X136201575Y-110117330D01*
X136201576Y-110117327D01*
X136591170Y-109727736D01*
X136625500Y-109644855D01*
X136625500Y-109555146D01*
X136625500Y-108632723D01*
X136647174Y-108580397D01*
X136662500Y-108568637D01*
X136676613Y-108560489D01*
X136760489Y-108476613D01*
X136819799Y-108373886D01*
X136850499Y-108259311D01*
X136850500Y-108259311D01*
X136850500Y-108140689D01*
X136850499Y-108140688D01*
X136819800Y-108026117D01*
X136819798Y-108026112D01*
X136760491Y-107923390D01*
X136760490Y-107923389D01*
X136760489Y-107923387D01*
X136676613Y-107839511D01*
X136676610Y-107839509D01*
X136676609Y-107839508D01*
X136573887Y-107780201D01*
X136573882Y-107780199D01*
X136459311Y-107749500D01*
X136459309Y-107749500D01*
X136340691Y-107749500D01*
X136340689Y-107749500D01*
X136226117Y-107780199D01*
X136226112Y-107780201D01*
X136123390Y-107839508D01*
X136039508Y-107923390D01*
X135980201Y-108026112D01*
X135980199Y-108026117D01*
X135949500Y-108140688D01*
X135949500Y-108259311D01*
X135980199Y-108373882D01*
X135980201Y-108373887D01*
X136039508Y-108476609D01*
X136039509Y-108476610D01*
X136039511Y-108476613D01*
X136123387Y-108560489D01*
X136137500Y-108568637D01*
X136171978Y-108613570D01*
X136174500Y-108632723D01*
X136174500Y-109475942D01*
X136171913Y-109482186D01*
X136152826Y-109528267D01*
X136152825Y-109528267D01*
X136100867Y-109580224D01*
X136048541Y-109601898D01*
X135996216Y-109580223D01*
X135984456Y-109564898D01*
X135960491Y-109523390D01*
X135960490Y-109523389D01*
X135960489Y-109523387D01*
X135876613Y-109439511D01*
X135876610Y-109439509D01*
X135876609Y-109439508D01*
X135773887Y-109380201D01*
X135773882Y-109380199D01*
X135659311Y-109349500D01*
X135659309Y-109349500D01*
X135540691Y-109349500D01*
X135540689Y-109349500D01*
X135426117Y-109380199D01*
X135426112Y-109380201D01*
X135323390Y-109439508D01*
X135239508Y-109523390D01*
X135180201Y-109626112D01*
X135180199Y-109626117D01*
X135149500Y-109740688D01*
X133128216Y-109740688D01*
X135253470Y-107615433D01*
X135305795Y-107593760D01*
X135324949Y-107596282D01*
X135340690Y-107600500D01*
X135340691Y-107600500D01*
X135459311Y-107600500D01*
X135459311Y-107600499D01*
X135573886Y-107569799D01*
X135676613Y-107510489D01*
X135760489Y-107426613D01*
X135819799Y-107323886D01*
X135850499Y-107209311D01*
X135850500Y-107209311D01*
X135850500Y-107090689D01*
X135850499Y-107090688D01*
X135837573Y-107042449D01*
X135835149Y-107033402D01*
X135819800Y-106976117D01*
X135819798Y-106976112D01*
X135760491Y-106873390D01*
X135760490Y-106873389D01*
X135760489Y-106873387D01*
X135676613Y-106789511D01*
X135676610Y-106789509D01*
X135676609Y-106789508D01*
X135573887Y-106730201D01*
X135573882Y-106730199D01*
X135459311Y-106699500D01*
X135459309Y-106699500D01*
X135340691Y-106699500D01*
X135340689Y-106699500D01*
X135226117Y-106730199D01*
X135226112Y-106730201D01*
X135123390Y-106789508D01*
X135039508Y-106873390D01*
X134980201Y-106976112D01*
X134980199Y-106976117D01*
X134949500Y-107090688D01*
X134949500Y-107090691D01*
X134949500Y-107209309D01*
X134953718Y-107225050D01*
X134946325Y-107281202D01*
X134934565Y-107296528D01*
X131523512Y-110707581D01*
X131523502Y-110707591D01*
X131522265Y-110708829D01*
X131522264Y-110708830D01*
X131458830Y-110772264D01*
X131458830Y-110772265D01*
X131453897Y-110784173D01*
X131453895Y-110784176D01*
X131424499Y-110855144D01*
X131424499Y-110953466D01*
X131424500Y-110953475D01*
X131424500Y-118467277D01*
X131402826Y-118519603D01*
X131387501Y-118531362D01*
X131373390Y-118539509D01*
X131373388Y-118539510D01*
X131289508Y-118623390D01*
X131230201Y-118726112D01*
X131230199Y-118726117D01*
X131199500Y-118840688D01*
X127018866Y-118840688D01*
X127000500Y-118796348D01*
X127000500Y-113874500D01*
X127022174Y-113822174D01*
X127074500Y-113800500D01*
X127119507Y-113800500D01*
X127119510Y-113800500D01*
X127125103Y-113799387D01*
X127180651Y-113810436D01*
X127212118Y-113857527D01*
X127211019Y-113891117D01*
X127199500Y-113934108D01*
X127199500Y-114865894D01*
X127233606Y-114993181D01*
X127233610Y-114993190D01*
X127299500Y-115107314D01*
X127304504Y-115112318D01*
X127326178Y-115164644D01*
X127304504Y-115216969D01*
X127259491Y-115261982D01*
X127187014Y-115387517D01*
X127149500Y-115527523D01*
X127149500Y-115672476D01*
X127187014Y-115812482D01*
X127187016Y-115812485D01*
X127259490Y-115938015D01*
X127361985Y-116040510D01*
X127457947Y-116095913D01*
X127487517Y-116112985D01*
X127585929Y-116139354D01*
X127627523Y-116150499D01*
X127627524Y-116150500D01*
X127627526Y-116150500D01*
X127772476Y-116150500D01*
X127772476Y-116150499D01*
X127870888Y-116124129D01*
X127912482Y-116112985D01*
X127912482Y-116112984D01*
X127912485Y-116112984D01*
X128038015Y-116040510D01*
X129990510Y-114088015D01*
X130062984Y-113962485D01*
X130081687Y-113892686D01*
X130100499Y-113822477D01*
X130100500Y-113822477D01*
X130100500Y-112877523D01*
X130100499Y-112877522D01*
X130062985Y-112737518D01*
X130062984Y-112737517D01*
X130062984Y-112737515D01*
X130060412Y-112733061D01*
X130050500Y-112696063D01*
X130050500Y-105150688D01*
X130299500Y-105150688D01*
X130299500Y-105269311D01*
X130330199Y-105383882D01*
X130330201Y-105383887D01*
X130389508Y-105486609D01*
X130389509Y-105486610D01*
X130389511Y-105486613D01*
X130473387Y-105570489D01*
X130576114Y-105629799D01*
X130576115Y-105629799D01*
X130576117Y-105629800D01*
X130577614Y-105630201D01*
X130690688Y-105660499D01*
X130690689Y-105660500D01*
X130690691Y-105660500D01*
X130809311Y-105660500D01*
X130809311Y-105660499D01*
X130923886Y-105629799D01*
X131026613Y-105570489D01*
X131110489Y-105486613D01*
X131138845Y-105437500D01*
X131183779Y-105403021D01*
X131202931Y-105400500D01*
X132599827Y-105400500D01*
X132599828Y-105400500D01*
X132691897Y-105362364D01*
X137081488Y-100972770D01*
X137081491Y-100972769D01*
X137091896Y-100962364D01*
X137091897Y-100962364D01*
X137162364Y-100891897D01*
X137190281Y-100824499D01*
X137200501Y-100799827D01*
X137200501Y-100700172D01*
X137200501Y-100694214D01*
X137200500Y-100694200D01*
X137200500Y-99784413D01*
X137222174Y-99732087D01*
X138982087Y-97972174D01*
X139034413Y-97950500D01*
X142549827Y-97950500D01*
X142549828Y-97950500D01*
X142641897Y-97912364D01*
X142982253Y-97572006D01*
X143034578Y-97550333D01*
X143037111Y-97550500D01*
X143040691Y-97550500D01*
X143159311Y-97550500D01*
X143159311Y-97550499D01*
X143273886Y-97519799D01*
X143376613Y-97460489D01*
X143460489Y-97376613D01*
X143519799Y-97273886D01*
X143550499Y-97159311D01*
X143550500Y-97159311D01*
X143550500Y-97040689D01*
X143550499Y-97040688D01*
X143519800Y-96926117D01*
X143519798Y-96926112D01*
X143460491Y-96823390D01*
X143460490Y-96823389D01*
X143460489Y-96823387D01*
X143376613Y-96739511D01*
X143376610Y-96739509D01*
X143376609Y-96739508D01*
X143273887Y-96680201D01*
X143273882Y-96680199D01*
X143159311Y-96649500D01*
X143159309Y-96649500D01*
X143040691Y-96649500D01*
X143040689Y-96649500D01*
X142926117Y-96680199D01*
X142926112Y-96680201D01*
X142823390Y-96739508D01*
X142739508Y-96823390D01*
X142680201Y-96926112D01*
X142680199Y-96926117D01*
X142649500Y-97040688D01*
X142649500Y-97164159D01*
X142646798Y-97164159D01*
X142634338Y-97210515D01*
X142627991Y-97217746D01*
X142417913Y-97427826D01*
X142365587Y-97449500D01*
X138850172Y-97449500D01*
X138758105Y-97487634D01*
X136737634Y-99508105D01*
X136699500Y-99600170D01*
X136699500Y-100615587D01*
X136677826Y-100667913D01*
X132467913Y-104877826D01*
X132415587Y-104899500D01*
X131107254Y-104899500D01*
X131054929Y-104877827D01*
X131054928Y-104877826D01*
X131026613Y-104849511D01*
X131026610Y-104849509D01*
X131026609Y-104849508D01*
X130923887Y-104790201D01*
X130923882Y-104790199D01*
X130809311Y-104759500D01*
X130809309Y-104759500D01*
X130690691Y-104759500D01*
X130690689Y-104759500D01*
X130576117Y-104790199D01*
X130576112Y-104790201D01*
X130473390Y-104849508D01*
X130389508Y-104933390D01*
X130330201Y-105036112D01*
X130330199Y-105036117D01*
X130299500Y-105150688D01*
X130050500Y-105150688D01*
X130050500Y-102610688D01*
X130299500Y-102610688D01*
X130299500Y-102729311D01*
X130330199Y-102843882D01*
X130330201Y-102843887D01*
X130389508Y-102946609D01*
X130389509Y-102946610D01*
X130389511Y-102946613D01*
X130473387Y-103030489D01*
X130473389Y-103030490D01*
X130473390Y-103030491D01*
X130551349Y-103075501D01*
X130576114Y-103089799D01*
X130576115Y-103089799D01*
X130576117Y-103089800D01*
X130608586Y-103098500D01*
X130690688Y-103120499D01*
X130690689Y-103120500D01*
X130690691Y-103120500D01*
X130809311Y-103120500D01*
X130809311Y-103120499D01*
X130923886Y-103089799D01*
X131026613Y-103030489D01*
X131110489Y-102946613D01*
X131115751Y-102937497D01*
X131160684Y-102903021D01*
X131179836Y-102900500D01*
X132799827Y-102900500D01*
X132799828Y-102900500D01*
X132891897Y-102862364D01*
X139158087Y-96596174D01*
X139210413Y-96574500D01*
X141239587Y-96574500D01*
X141291913Y-96596174D01*
X141427992Y-96732253D01*
X141449666Y-96784579D01*
X141449500Y-96787113D01*
X141449500Y-96909311D01*
X141480199Y-97023882D01*
X141480201Y-97023887D01*
X141539508Y-97126609D01*
X141539509Y-97126610D01*
X141539511Y-97126613D01*
X141623387Y-97210489D01*
X141726114Y-97269799D01*
X141726115Y-97269799D01*
X141726117Y-97269800D01*
X141783402Y-97285149D01*
X141840688Y-97300499D01*
X141840689Y-97300500D01*
X141840691Y-97300500D01*
X141959311Y-97300500D01*
X141959311Y-97300499D01*
X142073886Y-97269799D01*
X142176613Y-97210489D01*
X142260489Y-97126613D01*
X142319799Y-97023886D01*
X142350499Y-96909311D01*
X142350500Y-96909311D01*
X142350500Y-96790689D01*
X142350499Y-96790688D01*
X142319800Y-96676117D01*
X142319798Y-96676112D01*
X142260491Y-96573390D01*
X142260490Y-96573389D01*
X142260489Y-96573387D01*
X142176613Y-96489511D01*
X142176610Y-96489509D01*
X142176609Y-96489508D01*
X142073887Y-96430201D01*
X142073882Y-96430199D01*
X141959311Y-96399500D01*
X141959309Y-96399500D01*
X141840691Y-96399500D01*
X141835841Y-96399500D01*
X141835841Y-96396785D01*
X141789524Y-96384369D01*
X141782253Y-96377992D01*
X141515898Y-96111637D01*
X141515894Y-96111634D01*
X141423828Y-96073500D01*
X139125828Y-96073500D01*
X139026172Y-96073500D01*
X138934105Y-96111634D01*
X132667913Y-102377826D01*
X132615587Y-102399500D01*
X131147254Y-102399500D01*
X131094928Y-102377826D01*
X131026613Y-102309511D01*
X131026610Y-102309509D01*
X131026609Y-102309508D01*
X130923887Y-102250201D01*
X130923882Y-102250199D01*
X130809311Y-102219500D01*
X130809309Y-102219500D01*
X130690691Y-102219500D01*
X130690689Y-102219500D01*
X130576117Y-102250199D01*
X130576112Y-102250201D01*
X130473390Y-102309508D01*
X130389508Y-102393390D01*
X130330201Y-102496112D01*
X130330199Y-102496117D01*
X130299500Y-102610688D01*
X130050500Y-102610688D01*
X130050500Y-100884107D01*
X130049535Y-100880508D01*
X130049535Y-100880500D01*
X130049534Y-100880501D01*
X130016393Y-100756818D01*
X130016392Y-100756814D01*
X129950500Y-100642686D01*
X129037314Y-99729500D01*
X129010822Y-99714205D01*
X128923190Y-99663610D01*
X128923181Y-99663606D01*
X128795894Y-99629500D01*
X128795892Y-99629500D01*
X128074500Y-99629500D01*
X128022174Y-99607826D01*
X128000500Y-99555500D01*
X128000500Y-99265180D01*
X127991767Y-99221278D01*
X127958504Y-99171496D01*
X127950865Y-99166392D01*
X127908722Y-99138233D01*
X127864820Y-99129500D01*
X126135180Y-99129500D01*
X126113229Y-99133866D01*
X126091277Y-99138233D01*
X126041496Y-99171495D01*
X126041495Y-99171496D01*
X126008233Y-99221277D01*
X126002431Y-99250444D01*
X125999500Y-99265180D01*
X125999500Y-100994820D01*
X126008233Y-101038722D01*
X126041496Y-101088504D01*
X126091278Y-101121767D01*
X126135180Y-101130500D01*
X126135181Y-101130500D01*
X127864819Y-101130500D01*
X127864820Y-101130500D01*
X127908722Y-101121767D01*
X127958504Y-101088504D01*
X127991767Y-101038722D01*
X128000500Y-100994820D01*
X128000500Y-100704500D01*
X128022174Y-100652174D01*
X128074500Y-100630500D01*
X128492034Y-100630500D01*
X128544360Y-100652174D01*
X129027826Y-101135640D01*
X129049500Y-101187966D01*
X129049500Y-112696063D01*
X129043866Y-112724383D01*
X129042007Y-112728869D01*
X129037016Y-112737515D01*
X129034432Y-112747157D01*
X129032573Y-112751645D01*
X129027415Y-112756802D01*
X129016533Y-112775651D01*
X128152325Y-113639859D01*
X128099999Y-113661533D01*
X128047673Y-113639859D01*
X128007314Y-113599500D01*
X127893190Y-113533610D01*
X127893181Y-113533606D01*
X127834258Y-113517818D01*
X127789325Y-113483340D01*
X127781933Y-113427187D01*
X127791878Y-113405235D01*
X127875922Y-113279455D01*
X127943804Y-113115575D01*
X127978409Y-112941601D01*
X127978409Y-112764217D01*
X127943804Y-112590243D01*
X127919446Y-112531438D01*
X127919446Y-112474801D01*
X127965895Y-112362666D01*
X128000500Y-112188691D01*
X128000500Y-112011308D01*
X127965895Y-111837334D01*
X127898013Y-111673453D01*
X127799464Y-111525964D01*
X127674036Y-111400536D01*
X127526547Y-111301987D01*
X127526548Y-111301987D01*
X127526546Y-111301986D01*
X127362666Y-111234105D01*
X127362659Y-111234103D01*
X127231594Y-111208033D01*
X127188692Y-111199500D01*
X127011309Y-111199500D01*
X126837340Y-111234103D01*
X126837333Y-111234105D01*
X126673454Y-111301986D01*
X126525965Y-111400535D01*
X126525964Y-111400536D01*
X125426824Y-112499675D01*
X125374500Y-112521349D01*
X125322174Y-112499675D01*
X125300500Y-112447349D01*
X125300500Y-107643751D01*
X125650000Y-107643751D01*
X125650000Y-107856248D01*
X125683241Y-108066123D01*
X125683244Y-108066136D01*
X125748904Y-108268217D01*
X125748906Y-108268221D01*
X125845375Y-108457550D01*
X125845378Y-108457556D01*
X125884728Y-108511716D01*
X126517037Y-107879407D01*
X126534075Y-107942993D01*
X126599901Y-108057007D01*
X126692993Y-108150099D01*
X126807007Y-108215925D01*
X126870590Y-108232962D01*
X126238282Y-108865270D01*
X126292449Y-108904624D01*
X126481778Y-109001093D01*
X126481782Y-109001095D01*
X126683863Y-109066755D01*
X126683876Y-109066758D01*
X126893751Y-109100000D01*
X127106249Y-109100000D01*
X127316123Y-109066758D01*
X127316136Y-109066755D01*
X127518217Y-109001095D01*
X127518221Y-109001093D01*
X127707554Y-108904623D01*
X127707561Y-108904618D01*
X127761716Y-108865270D01*
X127761717Y-108865270D01*
X127129409Y-108232962D01*
X127192993Y-108215925D01*
X127307007Y-108150099D01*
X127400099Y-108057007D01*
X127465925Y-107942993D01*
X127482962Y-107879409D01*
X128115270Y-108511717D01*
X128115270Y-108511716D01*
X128154618Y-108457561D01*
X128154623Y-108457554D01*
X128251093Y-108268221D01*
X128251095Y-108268217D01*
X128316755Y-108066136D01*
X128316758Y-108066123D01*
X128350000Y-107856248D01*
X128350000Y-107643751D01*
X128316758Y-107433876D01*
X128316755Y-107433863D01*
X128251095Y-107231782D01*
X128251093Y-107231778D01*
X128154624Y-107042449D01*
X128154625Y-107042449D01*
X128115269Y-106988282D01*
X127482962Y-107620590D01*
X127465925Y-107557007D01*
X127400099Y-107442993D01*
X127307007Y-107349901D01*
X127192993Y-107284075D01*
X127129407Y-107267037D01*
X127761716Y-106634728D01*
X127707556Y-106595378D01*
X127707550Y-106595375D01*
X127518221Y-106498906D01*
X127518217Y-106498904D01*
X127316136Y-106433244D01*
X127316123Y-106433241D01*
X127106249Y-106400000D01*
X126893751Y-106400000D01*
X126683876Y-106433241D01*
X126683863Y-106433244D01*
X126481785Y-106498903D01*
X126292450Y-106595374D01*
X126238282Y-106634729D01*
X126870590Y-107267037D01*
X126807007Y-107284075D01*
X126692993Y-107349901D01*
X126599901Y-107442993D01*
X126534075Y-107557007D01*
X126517037Y-107620590D01*
X125884729Y-106988282D01*
X125845374Y-107042450D01*
X125748903Y-107231785D01*
X125683244Y-107433863D01*
X125683241Y-107433876D01*
X125650000Y-107643751D01*
X125300500Y-107643751D01*
X125300500Y-105111460D01*
X125999500Y-105111460D01*
X125999500Y-105308539D01*
X126037947Y-105501829D01*
X126037950Y-105501839D01*
X126113367Y-105683913D01*
X126117108Y-105689511D01*
X126222861Y-105847782D01*
X126362218Y-105987139D01*
X126526086Y-106096632D01*
X126708165Y-106172051D01*
X126901459Y-106210500D01*
X126901461Y-106210500D01*
X127098539Y-106210500D01*
X127098541Y-106210500D01*
X127291835Y-106172051D01*
X127473914Y-106096632D01*
X127637782Y-105987139D01*
X127777139Y-105847782D01*
X127886632Y-105683914D01*
X127962051Y-105501835D01*
X128000500Y-105308541D01*
X128000500Y-105111459D01*
X127962051Y-104918165D01*
X127922189Y-104821930D01*
X127886632Y-104736086D01*
X127777139Y-104572218D01*
X127637781Y-104432860D01*
X127473913Y-104323367D01*
X127291839Y-104247950D01*
X127291829Y-104247947D01*
X127162388Y-104222200D01*
X127098541Y-104209500D01*
X126901459Y-104209500D01*
X126846662Y-104220399D01*
X126708170Y-104247947D01*
X126708160Y-104247950D01*
X126526086Y-104323367D01*
X126362218Y-104432860D01*
X126362217Y-104432862D01*
X126222862Y-104572217D01*
X126222860Y-104572218D01*
X126113367Y-104736086D01*
X126037950Y-104918160D01*
X126037947Y-104918170D01*
X125999500Y-105111460D01*
X125300500Y-105111460D01*
X125300500Y-102571460D01*
X125999500Y-102571460D01*
X125999500Y-102768539D01*
X126037947Y-102961829D01*
X126037950Y-102961839D01*
X126113367Y-103143913D01*
X126222860Y-103307781D01*
X126362218Y-103447139D01*
X126526086Y-103556632D01*
X126605463Y-103589511D01*
X126708165Y-103632051D01*
X126901459Y-103670500D01*
X126901461Y-103670500D01*
X127098539Y-103670500D01*
X127098541Y-103670500D01*
X127291835Y-103632051D01*
X127473914Y-103556632D01*
X127637782Y-103447139D01*
X127777139Y-103307782D01*
X127886632Y-103143914D01*
X127962051Y-102961835D01*
X128000500Y-102768541D01*
X128000500Y-102571459D01*
X127962051Y-102378165D01*
X127939568Y-102323887D01*
X127886632Y-102196086D01*
X127777139Y-102032218D01*
X127637781Y-101892860D01*
X127473913Y-101783367D01*
X127291839Y-101707950D01*
X127291829Y-101707947D01*
X127162388Y-101682200D01*
X127098541Y-101669500D01*
X126901459Y-101669500D01*
X126846662Y-101680399D01*
X126708170Y-101707947D01*
X126708160Y-101707950D01*
X126526086Y-101783367D01*
X126362218Y-101892860D01*
X126362217Y-101892862D01*
X126222862Y-102032217D01*
X126222860Y-102032218D01*
X126113367Y-102196086D01*
X126037950Y-102378160D01*
X126037947Y-102378170D01*
X125999500Y-102571460D01*
X125300500Y-102571460D01*
X125300500Y-94952083D01*
X125300616Y-94947934D01*
X125303048Y-94904623D01*
X125318498Y-94629494D01*
X125319428Y-94621254D01*
X125360638Y-94378713D01*
X125899500Y-94378713D01*
X125899500Y-94621286D01*
X125931160Y-94861782D01*
X125931162Y-94861791D01*
X125993945Y-95096099D01*
X126086772Y-95320203D01*
X126086775Y-95320211D01*
X126208061Y-95530285D01*
X126208065Y-95530291D01*
X126355735Y-95722738D01*
X126527261Y-95894264D01*
X126719708Y-96041934D01*
X126719714Y-96041938D01*
X126929788Y-96163224D01*
X127153900Y-96256054D01*
X127388211Y-96318838D01*
X127388214Y-96318838D01*
X127388217Y-96318839D01*
X127494951Y-96332890D01*
X127628712Y-96350500D01*
X127628714Y-96350500D01*
X127871286Y-96350500D01*
X127871288Y-96350500D01*
X128056575Y-96326106D01*
X128111782Y-96318839D01*
X128111782Y-96318838D01*
X128111789Y-96318838D01*
X128346100Y-96256054D01*
X128570212Y-96163224D01*
X128780289Y-96041936D01*
X128972738Y-95894265D01*
X129144265Y-95722738D01*
X129291936Y-95530289D01*
X129413224Y-95320212D01*
X129506054Y-95096100D01*
X129568838Y-94861789D01*
X129600500Y-94621288D01*
X129600500Y-94378712D01*
X129568838Y-94138211D01*
X129506054Y-93903900D01*
X129413224Y-93679788D01*
X129392418Y-93643751D01*
X129291938Y-93469714D01*
X129291934Y-93469708D01*
X129144264Y-93277261D01*
X128972738Y-93105735D01*
X128780291Y-92958065D01*
X128780285Y-92958061D01*
X128758753Y-92945630D01*
X128654051Y-92885180D01*
X132519500Y-92885180D01*
X132519500Y-94614820D01*
X132528233Y-94658722D01*
X132561496Y-94708504D01*
X132611278Y-94741767D01*
X132655180Y-94750500D01*
X132655181Y-94750500D01*
X134384819Y-94750500D01*
X134384820Y-94750500D01*
X134428722Y-94741767D01*
X134478504Y-94708504D01*
X134511767Y-94658722D01*
X134520500Y-94614820D01*
X134520500Y-93651460D01*
X135059500Y-93651460D01*
X135059500Y-93848539D01*
X135097947Y-94041829D01*
X135097950Y-94041839D01*
X135173367Y-94223913D01*
X135276801Y-94378712D01*
X135282861Y-94387782D01*
X135422218Y-94527139D01*
X135586086Y-94636632D01*
X135768165Y-94712051D01*
X135961459Y-94750500D01*
X135961461Y-94750500D01*
X136158539Y-94750500D01*
X136158541Y-94750500D01*
X136351835Y-94712051D01*
X136533914Y-94636632D01*
X136697782Y-94527139D01*
X136837139Y-94387782D01*
X136946632Y-94223914D01*
X137022051Y-94041835D01*
X137060500Y-93848541D01*
X137060500Y-93651460D01*
X137599500Y-93651460D01*
X137599500Y-93848539D01*
X137637947Y-94041829D01*
X137637950Y-94041839D01*
X137713367Y-94223913D01*
X137816801Y-94378712D01*
X137822861Y-94387782D01*
X137962218Y-94527139D01*
X138126086Y-94636632D01*
X138308165Y-94712051D01*
X138501459Y-94750500D01*
X138501461Y-94750500D01*
X138698539Y-94750500D01*
X138698541Y-94750500D01*
X138891835Y-94712051D01*
X139073914Y-94636632D01*
X139237782Y-94527139D01*
X139377139Y-94387782D01*
X139486632Y-94223914D01*
X139562051Y-94041835D01*
X139600500Y-93848541D01*
X139600500Y-93651459D01*
X139598967Y-93643751D01*
X139790000Y-93643751D01*
X139790000Y-93856248D01*
X139823241Y-94066123D01*
X139823244Y-94066136D01*
X139888904Y-94268217D01*
X139888906Y-94268221D01*
X139985375Y-94457550D01*
X139985378Y-94457556D01*
X140024728Y-94511716D01*
X140657037Y-93879407D01*
X140674075Y-93942993D01*
X140739901Y-94057007D01*
X140832993Y-94150099D01*
X140947007Y-94215925D01*
X141010590Y-94232962D01*
X140378282Y-94865270D01*
X140432449Y-94904624D01*
X140621778Y-95001093D01*
X140621782Y-95001095D01*
X140823863Y-95066755D01*
X140823876Y-95066758D01*
X141033751Y-95100000D01*
X141246249Y-95100000D01*
X141456123Y-95066758D01*
X141456136Y-95066755D01*
X141658217Y-95001095D01*
X141658221Y-95001093D01*
X141847554Y-94904623D01*
X141847561Y-94904618D01*
X141901716Y-94865270D01*
X141901717Y-94865270D01*
X141269409Y-94232962D01*
X141332993Y-94215925D01*
X141447007Y-94150099D01*
X141540099Y-94057007D01*
X141605925Y-93942993D01*
X141622962Y-93879409D01*
X142255270Y-94511717D01*
X142255270Y-94511716D01*
X142294618Y-94457561D01*
X142294623Y-94457554D01*
X142391093Y-94268221D01*
X142391095Y-94268217D01*
X142456755Y-94066136D01*
X142456758Y-94066123D01*
X142490000Y-93856248D01*
X142490000Y-93643751D01*
X142456758Y-93433876D01*
X142456755Y-93433863D01*
X142391095Y-93231782D01*
X142391093Y-93231778D01*
X142294624Y-93042449D01*
X142294625Y-93042449D01*
X142255269Y-92988282D01*
X141622962Y-93620590D01*
X141605925Y-93557007D01*
X141540099Y-93442993D01*
X141447007Y-93349901D01*
X141332993Y-93284075D01*
X141269407Y-93267037D01*
X141901716Y-92634728D01*
X141847556Y-92595378D01*
X141847550Y-92595375D01*
X141658221Y-92498906D01*
X141658217Y-92498904D01*
X141456136Y-92433244D01*
X141456123Y-92433241D01*
X141246249Y-92400000D01*
X141033751Y-92400000D01*
X140823876Y-92433241D01*
X140823863Y-92433244D01*
X140621785Y-92498903D01*
X140432450Y-92595374D01*
X140378282Y-92634729D01*
X141010590Y-93267037D01*
X140947007Y-93284075D01*
X140832993Y-93349901D01*
X140739901Y-93442993D01*
X140674075Y-93557007D01*
X140657037Y-93620590D01*
X140024729Y-92988282D01*
X139985374Y-93042450D01*
X139888903Y-93231785D01*
X139823244Y-93433863D01*
X139823241Y-93433876D01*
X139790000Y-93643751D01*
X139598967Y-93643751D01*
X139562051Y-93458165D01*
X139486632Y-93276086D01*
X139377139Y-93112218D01*
X139237782Y-92972861D01*
X139215639Y-92958065D01*
X139073913Y-92863367D01*
X138891839Y-92787950D01*
X138891829Y-92787947D01*
X138742444Y-92758233D01*
X138698541Y-92749500D01*
X138501459Y-92749500D01*
X138457556Y-92758233D01*
X138308170Y-92787947D01*
X138308160Y-92787950D01*
X138126086Y-92863367D01*
X137962218Y-92972860D01*
X137962217Y-92972862D01*
X137822862Y-93112217D01*
X137822860Y-93112218D01*
X137713367Y-93276086D01*
X137637950Y-93458160D01*
X137637947Y-93458170D01*
X137599500Y-93651460D01*
X137060500Y-93651460D01*
X137060500Y-93651459D01*
X137022051Y-93458165D01*
X136946632Y-93276086D01*
X136837139Y-93112218D01*
X136697782Y-92972861D01*
X136675639Y-92958065D01*
X136533913Y-92863367D01*
X136351839Y-92787950D01*
X136351829Y-92787947D01*
X136202444Y-92758233D01*
X136158541Y-92749500D01*
X135961459Y-92749500D01*
X135917556Y-92758233D01*
X135768170Y-92787947D01*
X135768160Y-92787950D01*
X135586086Y-92863367D01*
X135422218Y-92972860D01*
X135422217Y-92972862D01*
X135282862Y-93112217D01*
X135282860Y-93112218D01*
X135173367Y-93276086D01*
X135097950Y-93458160D01*
X135097947Y-93458170D01*
X135059500Y-93651460D01*
X134520500Y-93651460D01*
X134520500Y-92885180D01*
X134511767Y-92841278D01*
X134478504Y-92791496D01*
X134473195Y-92787949D01*
X134428722Y-92758233D01*
X134384820Y-92749500D01*
X132655180Y-92749500D01*
X132633229Y-92753866D01*
X132611277Y-92758233D01*
X132561496Y-92791495D01*
X132561495Y-92791496D01*
X132528233Y-92841277D01*
X132528233Y-92841278D01*
X132519500Y-92885180D01*
X128654051Y-92885180D01*
X128570211Y-92836775D01*
X128570203Y-92836772D01*
X128346106Y-92743948D01*
X128346102Y-92743947D01*
X128346100Y-92743946D01*
X128310508Y-92734409D01*
X128111791Y-92681162D01*
X128111782Y-92681160D01*
X127918480Y-92655712D01*
X127871288Y-92649500D01*
X127628712Y-92649500D01*
X127585736Y-92655157D01*
X127388217Y-92681160D01*
X127388208Y-92681162D01*
X127153900Y-92743945D01*
X126929796Y-92836772D01*
X126929788Y-92836775D01*
X126719714Y-92958061D01*
X126719708Y-92958065D01*
X126527261Y-93105735D01*
X126355735Y-93277261D01*
X126208065Y-93469708D01*
X126208061Y-93469714D01*
X126086775Y-93679788D01*
X126086772Y-93679796D01*
X125993945Y-93903900D01*
X125931162Y-94138208D01*
X125931160Y-94138217D01*
X125899500Y-94378713D01*
X125360638Y-94378713D01*
X125372500Y-94308898D01*
X125374346Y-94300813D01*
X125417765Y-94150099D01*
X125462062Y-93996338D01*
X125464794Y-93988530D01*
X125586052Y-93695787D01*
X125589646Y-93688325D01*
X125742923Y-93410991D01*
X125747320Y-93403993D01*
X125930678Y-93145575D01*
X125935835Y-93139107D01*
X126146987Y-92902828D01*
X126152828Y-92896987D01*
X126389107Y-92685835D01*
X126395575Y-92680678D01*
X126653993Y-92497320D01*
X126660991Y-92492923D01*
X126938325Y-92339646D01*
X126945787Y-92336052D01*
X127238530Y-92214794D01*
X127246338Y-92212062D01*
X127550813Y-92124346D01*
X127558898Y-92122500D01*
X127871262Y-92069427D01*
X127879494Y-92068498D01*
X128197934Y-92050615D01*
X128202083Y-92050500D01*
X128247595Y-92050500D01*
X157752405Y-92050500D01*
X157797917Y-92050500D01*
X157802065Y-92050615D01*
G37*
%TD.AperFunction*%
%TD*%
M02*
