M48
; DRILL file {KiCad 9.0.6} date 2026-03-11T18:52:15+0100
; FORMAT={-:-/ absolute / metric / decimal}
; #@! TF.CreationDate,2026-03-11T18:52:15+01:00
; #@! TF.GenerationSoftware,Kicad,Pcbnew,9.0.6
; #@! TF.FileFunction,Plated,1,4,PTH
FMAT,2
METRIC
; #@! TA.AperFunction,Plated,PTH,ViaDrill
T1C0.300
; #@! TA.AperFunction,Plated,PTH,ComponentDrill
T2C0.300
; #@! TA.AperFunction,Plated,PTH,ComponentDrill
T3C0.600
; #@! TA.AperFunction,Plated,PTH,ComponentDrill
T4C1.000
%
G90
G05
T1
X127.1Y-112.1
X127.125Y-112.9
X127.7Y-114.0
X127.7Y-114.8
X127.7Y-115.6
X130.65Y-110.5
X130.75Y-102.67
X130.75Y-105.21
X130.8Y-122.3
X131.1Y-121.7
X131.2Y-122.8
X131.35Y-120.4
X131.65Y-118.9
X132.8Y-114.85
X132.8Y-115.85
X132.8Y-116.85
X132.8Y-117.85
X132.95Y-118.85
X133.3Y-123.55
X133.8Y-102.75
X134.0Y-104.5
X134.5Y-98.25
X134.5Y-123.55
X135.0Y-104.1
X135.4Y-107.15
X135.6Y-109.8
X135.6Y-123.55
X135.85Y-111.4
X136.2Y-118.35
X136.4Y-108.2
X136.65Y-123.55
X137.45Y-118.25
X137.75Y-123.55
X137.9Y-109.4
X138.6Y-98.8
X138.75Y-123.55
X139.45Y-112.7
X139.6Y-113.9
X139.7Y-123.55
X139.75Y-111.25
X139.75Y-111.95
X139.8Y-100.8
X139.8Y-101.65
X139.8Y-102.487
X139.8Y-103.375
X139.8Y-104.262
X139.8Y-105.15
X139.8Y-106.037
X140.1Y-109.9
X140.6Y-97.05
X141.0Y-102.487
X141.0Y-103.375
X141.0Y-104.262
X141.0Y-105.15
X141.0Y-106.037
X141.05Y-125.0
X141.05Y-125.8
X141.05Y-126.7
X141.2Y-101.05
X141.8Y-110.0
X141.9Y-96.85
X141.95Y-118.25
X142.1Y-120.2
X142.15Y-103.375
X142.15Y-104.262
X142.15Y-105.15
X142.55Y-126.65
X142.948Y-114.794
X143.1Y-97.1
X143.15Y-104.25
X143.15Y-109.9
X143.45Y-126.7
X143.55Y-101.05
X143.8Y-109.45
X144.1Y-106.15
X144.35Y-126.7
X144.5Y-113.7
X144.8Y-102.15
X144.8Y-103.95
X145.0Y-105.262
X145.0Y-106.15
X145.5Y-126.8
X146.2Y-118.55
X146.3Y-122.2
X146.55Y-98.55
X146.55Y-116.75
X146.55Y-123.2
X147.65Y-97.95
X147.926Y-106.826
X148.05Y-113.35
X148.4Y-96.55
X148.501Y-106.05
X148.85Y-103.85
X148.9Y-105.0
X149.2Y-96.55
X149.3Y-109.05
X150.7Y-117.8
X151.15Y-108.75
X151.65Y-107.35
X151.7Y-104.65
X153.4Y-117.9
X153.6Y-98.0
X153.8Y-108.65
X154.875Y-110.575
X155.0Y-117.0
X155.0Y-117.9
X155.084Y-112.434
X155.15Y-114.4
X158.5Y-120.2
X159.2Y-120.2
X159.9Y-120.2
T2
X137.94Y-119.8
X137.94Y-120.947
X137.94Y-122.095
X139.041Y-119.8
X139.041Y-120.947
X139.041Y-122.095
T4
X127.0Y-100.13
X127.0Y-102.67
X127.0Y-105.21
X127.0Y-107.75
X133.52Y-93.75
X136.06Y-93.75
X138.6Y-93.75
X141.14Y-93.75
X145.11Y-93.75
X147.65Y-93.75
X150.19Y-93.75
X152.73Y-93.75
T3
G00X154.72Y-99.53
M15
G01X155.82Y-99.53
M16
G05
G00X154.72Y-108.17
M15
G01X155.82Y-108.17
M16
G05
G00X159.15Y-99.53
M15
G01X159.75Y-99.53
M16
G05
G00X159.15Y-108.17
M15
G01X159.75Y-108.17
M16
G05
M30
