%TF.GenerationSoftware,KiCad,Pcbnew,9.0.6*%
%TF.CreationDate,2026-03-11T18:52:12+01:00*%
%TF.ProjectId,Flight controller 1.0.0,466c6967-6874-4206-936f-6e74726f6c6c,rev?*%
%TF.SameCoordinates,Original*%
%TF.FileFunction,Soldermask,Top*%
%TF.FilePolarity,Negative*%
%FSLAX46Y46*%
G04 Gerber Fmt 4.6, Leading zero omitted, Abs format (unit mm)*
G04 Created by KiCad (PCBNEW 9.0.6) date 2026-03-11 18:52:12*
%MOMM*%
%LPD*%
G01*
G04 APERTURE LIST*
G04 Aperture macros list*
%AMRoundRect*
0 Rectangle with rounded corners*
0 $1 Rounding radius*
0 $2 $3 $4 $5 $6 $7 $8 $9 X,Y pos of 4 corners*
0 Add a 4 corners polygon primitive as box body*
4,1,4,$2,$3,$4,$5,$6,$7,$8,$9,$2,$3,0*
0 Add four circle primitives for the rounded corners*
1,1,$1+$1,$2,$3*
1,1,$1+$1,$4,$5*
1,1,$1+$1,$6,$7*
1,1,$1+$1,$8,$9*
0 Add four rect primitives between the rounded corners*
20,1,$1+$1,$2,$3,$4,$5,0*
20,1,$1+$1,$4,$5,$6,$7,0*
20,1,$1+$1,$6,$7,$8,$9,0*
20,1,$1+$1,$8,$9,$2,$3,0*%
%AMFreePoly0*
4,1,9,3.862500,-0.866500,0.737500,-0.866500,0.737500,-0.450000,-0.737500,-0.450000,-0.737500,0.450000,0.737500,0.450000,0.737500,0.866500,3.862500,0.866500,3.862500,-0.866500,3.862500,-0.866500,$1*%
G04 Aperture macros list end*
%ADD10C,0.010000*%
%ADD11RoundRect,0.140000X-0.140000X-0.170000X0.140000X-0.170000X0.140000X0.170000X-0.140000X0.170000X0*%
%ADD12RoundRect,0.200000X0.200000X0.275000X-0.200000X0.275000X-0.200000X-0.275000X0.200000X-0.275000X0*%
%ADD13RoundRect,0.218750X-0.218750X-0.256250X0.218750X-0.256250X0.218750X0.256250X-0.218750X0.256250X0*%
%ADD14RoundRect,0.100000X-0.100000X0.130000X-0.100000X-0.130000X0.100000X-0.130000X0.100000X0.130000X0*%
%ADD15RoundRect,0.100000X-0.130000X-0.100000X0.130000X-0.100000X0.130000X0.100000X-0.130000X0.100000X0*%
%ADD16C,3.200000*%
%ADD17RoundRect,0.225000X-0.225000X-0.375000X0.225000X-0.375000X0.225000X0.375000X-0.225000X0.375000X0*%
%ADD18RoundRect,0.200000X-0.275000X0.200000X-0.275000X-0.200000X0.275000X-0.200000X0.275000X0.200000X0*%
%ADD19RoundRect,0.100000X0.100000X-0.130000X0.100000X0.130000X-0.100000X0.130000X-0.100000X-0.130000X0*%
%ADD20RoundRect,0.100000X0.130000X0.100000X-0.130000X0.100000X-0.130000X-0.100000X0.130000X-0.100000X0*%
%ADD21RoundRect,0.075000X-0.650000X-0.075000X0.650000X-0.075000X0.650000X0.075000X-0.650000X0.075000X0*%
%ADD22R,1.651000X2.845000*%
%ADD23RoundRect,0.250000X-1.000000X-0.650000X1.000000X-0.650000X1.000000X0.650000X-1.000000X0.650000X0*%
%ADD24C,1.000000*%
%ADD25RoundRect,0.218750X0.218750X0.256250X-0.218750X0.256250X-0.218750X-0.256250X0.218750X-0.256250X0*%
%ADD26RoundRect,0.200000X-0.200000X-0.275000X0.200000X-0.275000X0.200000X0.275000X-0.200000X0.275000X0*%
%ADD27RoundRect,0.062500X-0.687500X-0.062500X0.687500X-0.062500X0.687500X0.062500X-0.687500X0.062500X0*%
%ADD28RoundRect,0.062500X-0.062500X-0.687500X0.062500X-0.687500X0.062500X0.687500X-0.062500X0.687500X0*%
%ADD29RoundRect,0.140000X-0.170000X0.140000X-0.170000X-0.140000X0.170000X-0.140000X0.170000X0.140000X0*%
%ADD30RoundRect,0.102000X-0.775000X0.300000X-0.775000X-0.300000X0.775000X-0.300000X0.775000X0.300000X0*%
%ADD31RoundRect,0.102000X-0.900000X0.600000X-0.900000X-0.600000X0.900000X-0.600000X0.900000X0.600000X0*%
%ADD32RoundRect,0.200000X0.275000X-0.200000X0.275000X0.200000X-0.275000X0.200000X-0.275000X-0.200000X0*%
%ADD33RoundRect,0.225000X0.225000X0.250000X-0.225000X0.250000X-0.225000X-0.250000X0.225000X-0.250000X0*%
%ADD34RoundRect,0.225000X-0.425000X-0.225000X0.425000X-0.225000X0.425000X0.225000X-0.425000X0.225000X0*%
%ADD35FreePoly0,0.000000*%
%ADD36RoundRect,0.218750X0.256250X-0.218750X0.256250X0.218750X-0.256250X0.218750X-0.256250X-0.218750X0*%
%ADD37RoundRect,0.140000X0.170000X-0.140000X0.170000X0.140000X-0.170000X0.140000X-0.170000X-0.140000X0*%
%ADD38R,1.400000X1.600000*%
%ADD39R,1.700000X1.700000*%
%ADD40C,1.700000*%
%ADD41RoundRect,0.218750X-0.218750X-0.381250X0.218750X-0.381250X0.218750X0.381250X-0.218750X0.381250X0*%
%ADD42RoundRect,0.250000X0.450000X0.350000X-0.450000X0.350000X-0.450000X-0.350000X0.450000X-0.350000X0*%
%ADD43C,0.650000*%
%ADD44R,1.450000X0.600000*%
%ADD45R,1.450000X0.300000*%
%ADD46O,2.100000X1.000000*%
%ADD47O,1.600000X1.000000*%
G04 APERTURE END LIST*
D10*
%TO.C,MT1*%
X141037500Y-111212500D02*
X140462500Y-111212500D01*
X140462500Y-110862500D01*
X141037500Y-110862500D01*
X141037500Y-111212500D01*
G36*
X141037500Y-111212500D02*
G01*
X140462500Y-111212500D01*
X140462500Y-110862500D01*
X141037500Y-110862500D01*
X141037500Y-111212500D01*
G37*
X141037500Y-111712500D02*
X140462500Y-111712500D01*
X140462500Y-111362500D01*
X141037500Y-111362500D01*
X141037500Y-111712500D01*
G36*
X141037500Y-111712500D02*
G01*
X140462500Y-111712500D01*
X140462500Y-111362500D01*
X141037500Y-111362500D01*
X141037500Y-111712500D01*
G37*
X141037500Y-112212500D02*
X140462500Y-112212500D01*
X140462500Y-111862500D01*
X141037500Y-111862500D01*
X141037500Y-112212500D01*
G36*
X141037500Y-112212500D02*
G01*
X140462500Y-112212500D01*
X140462500Y-111862500D01*
X141037500Y-111862500D01*
X141037500Y-112212500D01*
G37*
X141037500Y-112712500D02*
X140462500Y-112712500D01*
X140462500Y-112362500D01*
X141037500Y-112362500D01*
X141037500Y-112712500D01*
G36*
X141037500Y-112712500D02*
G01*
X140462500Y-112712500D01*
X140462500Y-112362500D01*
X141037500Y-112362500D01*
X141037500Y-112712500D01*
G37*
X141587500Y-111162500D02*
X141237500Y-111162500D01*
X141237500Y-110587500D01*
X141587500Y-110587500D01*
X141587500Y-111162500D01*
G36*
X141587500Y-111162500D02*
G01*
X141237500Y-111162500D01*
X141237500Y-110587500D01*
X141587500Y-110587500D01*
X141587500Y-111162500D01*
G37*
X141587500Y-112987500D02*
X141237500Y-112987500D01*
X141237500Y-112412500D01*
X141587500Y-112412500D01*
X141587500Y-112987500D01*
G36*
X141587500Y-112987500D02*
G01*
X141237500Y-112987500D01*
X141237500Y-112412500D01*
X141587500Y-112412500D01*
X141587500Y-112987500D01*
G37*
X142087500Y-111162500D02*
X141737500Y-111162500D01*
X141737500Y-110587500D01*
X142087500Y-110587500D01*
X142087500Y-111162500D01*
G36*
X142087500Y-111162500D02*
G01*
X141737500Y-111162500D01*
X141737500Y-110587500D01*
X142087500Y-110587500D01*
X142087500Y-111162500D01*
G37*
X142087500Y-112987500D02*
X141737500Y-112987500D01*
X141737500Y-112412500D01*
X142087500Y-112412500D01*
X142087500Y-112987500D01*
G36*
X142087500Y-112987500D02*
G01*
X141737500Y-112987500D01*
X141737500Y-112412500D01*
X142087500Y-112412500D01*
X142087500Y-112987500D01*
G37*
X142587500Y-111162500D02*
X142237500Y-111162500D01*
X142237500Y-110587500D01*
X142587500Y-110587500D01*
X142587500Y-111162500D01*
G36*
X142587500Y-111162500D02*
G01*
X142237500Y-111162500D01*
X142237500Y-110587500D01*
X142587500Y-110587500D01*
X142587500Y-111162500D01*
G37*
X142587500Y-112987500D02*
X142237500Y-112987500D01*
X142237500Y-112412500D01*
X142587500Y-112412500D01*
X142587500Y-112987500D01*
G36*
X142587500Y-112987500D02*
G01*
X142237500Y-112987500D01*
X142237500Y-112412500D01*
X142587500Y-112412500D01*
X142587500Y-112987500D01*
G37*
X143362500Y-111212500D02*
X142787500Y-111212500D01*
X142787500Y-110862500D01*
X143362500Y-110862500D01*
X143362500Y-111212500D01*
G36*
X143362500Y-111212500D02*
G01*
X142787500Y-111212500D01*
X142787500Y-110862500D01*
X143362500Y-110862500D01*
X143362500Y-111212500D01*
G37*
X143362500Y-111712500D02*
X142787500Y-111712500D01*
X142787500Y-111362500D01*
X143362500Y-111362500D01*
X143362500Y-111712500D01*
G36*
X143362500Y-111712500D02*
G01*
X142787500Y-111712500D01*
X142787500Y-111362500D01*
X143362500Y-111362500D01*
X143362500Y-111712500D01*
G37*
X143362500Y-112212500D02*
X142787500Y-112212500D01*
X142787500Y-111862500D01*
X143362500Y-111862500D01*
X143362500Y-112212500D01*
G36*
X143362500Y-112212500D02*
G01*
X142787500Y-112212500D01*
X142787500Y-111862500D01*
X143362500Y-111862500D01*
X143362500Y-112212500D01*
G37*
X143362500Y-112712500D02*
X142787500Y-112712500D01*
X142787500Y-112362500D01*
X143362500Y-112362500D01*
X143362500Y-112712500D01*
G36*
X143362500Y-112712500D02*
G01*
X142787500Y-112712500D01*
X142787500Y-112362500D01*
X143362500Y-112362500D01*
X143362500Y-112712500D01*
G37*
%TD*%
D11*
%TO.C,C6*%
X136970000Y-99500000D03*
X137930000Y-99500000D03*
%TD*%
D12*
%TO.C,R1*%
X153400000Y-116750000D03*
X151750000Y-116750000D03*
%TD*%
D13*
%TO.C,D5*%
X146712500Y-126700000D03*
X148287500Y-126700000D03*
%TD*%
D14*
%TO.C,C3*%
X146275000Y-108130000D03*
X146275000Y-108770000D03*
%TD*%
D15*
%TO.C,C16*%
X134880000Y-103000000D03*
X135520000Y-103000000D03*
%TD*%
D16*
%TO.C,REF\u002A\u002A*%
X127750000Y-94500000D03*
%TD*%
D12*
%TO.C,R9*%
X148000000Y-110250000D03*
X146350000Y-110250000D03*
%TD*%
D17*
%TO.C,D1*%
X148800000Y-98200000D03*
X152100000Y-98200000D03*
%TD*%
D18*
%TO.C,R7*%
X152250000Y-113237500D03*
X152250000Y-114887500D03*
%TD*%
D12*
%TO.C,R3*%
X152475000Y-106100000D03*
X150825000Y-106100000D03*
%TD*%
D19*
%TO.C,C17*%
X136150000Y-105820000D03*
X136150000Y-105180000D03*
%TD*%
D15*
%TO.C,C22*%
X133880000Y-118900000D03*
X134520000Y-118900000D03*
%TD*%
%TO.C,C5*%
X146530000Y-99450000D03*
X147170000Y-99450000D03*
%TD*%
D20*
%TO.C,C1*%
X139320000Y-109400000D03*
X138680000Y-109400000D03*
%TD*%
D21*
%TO.C,BUCK*%
X136340500Y-119197500D03*
X136340500Y-119697500D03*
X136340500Y-120197500D03*
X136340500Y-120697500D03*
X136340500Y-121197500D03*
X136340500Y-121697500D03*
X136340500Y-122197500D03*
X136340500Y-122697500D03*
X140640500Y-122697500D03*
X140640500Y-122197500D03*
X140640500Y-121697500D03*
X140640500Y-121197500D03*
X140640500Y-120697500D03*
X140640500Y-120197500D03*
X140640500Y-119697500D03*
X140640500Y-119197500D03*
D22*
X138490500Y-120947500D03*
%TD*%
D23*
%TO.C,D6*%
X135000000Y-125750000D03*
X139000000Y-125750000D03*
%TD*%
D24*
%TO.C,GND*%
X135800000Y-116600000D03*
%TD*%
D15*
%TO.C,C2*%
X137000000Y-98450000D03*
X137640000Y-98450000D03*
%TD*%
D24*
%TO.C,5V*%
X141600000Y-116600000D03*
%TD*%
D25*
%TO.C,D4*%
X147987500Y-112100000D03*
X146412500Y-112100000D03*
%TD*%
D26*
%TO.C,R13*%
X146475000Y-124850000D03*
X148125000Y-124850000D03*
%TD*%
%TO.C,R12*%
X143375000Y-120150000D03*
X145025000Y-120150000D03*
%TD*%
D27*
%TO.C,STM32*%
X138175000Y-100650000D03*
X138175000Y-101050000D03*
X138175000Y-101450000D03*
X138175000Y-101850000D03*
X138175000Y-102250000D03*
X138175000Y-102650000D03*
X138175000Y-103050000D03*
X138175000Y-103450000D03*
X138175000Y-103850000D03*
X138175000Y-104250000D03*
X138175000Y-104650000D03*
X138175000Y-105050000D03*
X138175000Y-105450000D03*
X138175000Y-105850000D03*
X138175000Y-106250000D03*
X138175000Y-106650000D03*
D28*
X139350000Y-107825000D03*
X139750000Y-107825000D03*
X140150000Y-107825000D03*
X140550000Y-107825000D03*
X140950000Y-107825000D03*
X141350000Y-107825000D03*
X141750000Y-107825000D03*
X142150000Y-107825000D03*
X142550000Y-107825000D03*
X142950000Y-107825000D03*
X143350000Y-107825000D03*
X143750000Y-107825000D03*
X144150000Y-107825000D03*
X144550000Y-107825000D03*
X144950000Y-107825000D03*
X145350000Y-107825000D03*
D27*
X146525000Y-106650000D03*
X146525000Y-106250000D03*
X146525000Y-105850000D03*
X146525000Y-105450000D03*
X146525000Y-105050000D03*
X146525000Y-104650000D03*
X146525000Y-104250000D03*
X146525000Y-103850000D03*
X146525000Y-103450000D03*
X146525000Y-103050000D03*
X146525000Y-102650000D03*
X146525000Y-102250000D03*
X146525000Y-101850000D03*
X146525000Y-101450000D03*
X146525000Y-101050000D03*
X146525000Y-100650000D03*
D28*
X145350000Y-99475000D03*
X144950000Y-99475000D03*
X144550000Y-99475000D03*
X144150000Y-99475000D03*
X143750000Y-99475000D03*
X143350000Y-99475000D03*
X142950000Y-99475000D03*
X142550000Y-99475000D03*
X142150000Y-99475000D03*
X141750000Y-99475000D03*
X141350000Y-99475000D03*
X140950000Y-99475000D03*
X140550000Y-99475000D03*
X140150000Y-99475000D03*
X139750000Y-99475000D03*
X139350000Y-99475000D03*
%TD*%
D29*
%TO.C,C21*%
X133300000Y-121770000D03*
X133300000Y-122730000D03*
%TD*%
D30*
%TO.C,J2*%
X130175000Y-111900000D03*
X130175000Y-112900000D03*
X130175000Y-113900000D03*
X130175000Y-114900000D03*
X130175000Y-115900000D03*
X130175000Y-116900000D03*
X130175000Y-117900000D03*
X130175000Y-118900000D03*
D31*
X126300000Y-110600000D03*
X126300000Y-120200000D03*
%TD*%
D12*
%TO.C,R10*%
X134300500Y-120400000D03*
X132650500Y-120400000D03*
%TD*%
D32*
%TO.C,R5*%
X150250000Y-111437500D03*
X150250000Y-109787500D03*
%TD*%
D15*
%TO.C,C4*%
X139405000Y-97850000D03*
X140045000Y-97850000D03*
%TD*%
D20*
%TO.C,C18*%
X133720000Y-98250000D03*
X133080000Y-98250000D03*
%TD*%
D18*
%TO.C,R8*%
X134500000Y-109750000D03*
X134500000Y-111400000D03*
%TD*%
D33*
%TO.C,C26*%
X144975000Y-122050000D03*
X143425000Y-122050000D03*
%TD*%
D14*
%TO.C,C20*%
X134475500Y-121960000D03*
X134475500Y-122600000D03*
%TD*%
D16*
%TO.C,REF\u002A\u002A*%
X158250000Y-125000000D03*
%TD*%
D34*
%TO.C,LDO*%
X156450000Y-111400000D03*
D35*
X156537500Y-112900000D03*
D34*
X156450000Y-114400000D03*
%TD*%
D15*
%TO.C,C10*%
X142285000Y-113900000D03*
X142925000Y-113900000D03*
%TD*%
D36*
%TO.C,D8*%
X150250000Y-114800000D03*
X150250000Y-113225000D03*
%TD*%
D15*
%TO.C,C7*%
X144560000Y-109450000D03*
X145200000Y-109450000D03*
%TD*%
D26*
%TO.C,R11*%
X143375000Y-118350000D03*
X145025000Y-118350000D03*
%TD*%
D12*
%TO.C,R2*%
X151175000Y-100500000D03*
X149525000Y-100500000D03*
%TD*%
D19*
%TO.C,C25*%
X146500000Y-121320000D03*
X146500000Y-120680000D03*
%TD*%
D37*
%TO.C,C14*%
X154000000Y-111500000D03*
X154000000Y-110540000D03*
%TD*%
D32*
%TO.C,R4*%
X132550000Y-111400000D03*
X132550000Y-109750000D03*
%TD*%
D38*
%TO.C,SW1*%
X150600000Y-126600000D03*
X150600000Y-119400000D03*
X153600000Y-126600000D03*
X153600000Y-119400000D03*
%TD*%
D17*
%TO.C,D2*%
X156350000Y-117800000D03*
X159650000Y-117800000D03*
%TD*%
D16*
%TO.C,REF\u002A\u002A*%
X127750000Y-125000000D03*
%TD*%
D19*
%TO.C,C19*%
X135100000Y-105820000D03*
X135100000Y-105180000D03*
%TD*%
D15*
%TO.C,C23*%
X144930000Y-123500000D03*
X145570000Y-123500000D03*
%TD*%
D37*
%TO.C,C15*%
X154000000Y-113600000D03*
X154000000Y-112640000D03*
%TD*%
D39*
%TO.C,J4*%
X127000000Y-100130000D03*
D40*
X127000000Y-102670000D03*
X127000000Y-105210000D03*
X127000000Y-107750000D03*
%TD*%
D41*
%TO.C,L1*%
X142787500Y-125100000D03*
X144912500Y-125100000D03*
%TD*%
D16*
%TO.C,REF\u002A\u002A*%
X158250000Y-94500000D03*
%TD*%
D19*
%TO.C,C12*%
X144500000Y-112920000D03*
X144500000Y-112280000D03*
%TD*%
D39*
%TO.C,J3*%
X145110000Y-93750000D03*
D40*
X147650000Y-93750000D03*
X150190000Y-93750000D03*
X152730000Y-93750000D03*
%TD*%
D20*
%TO.C,C24*%
X143690000Y-123500000D03*
X143050000Y-123500000D03*
%TD*%
D24*
%TO.C,3.3V*%
X138700000Y-116600000D03*
%TD*%
D42*
%TO.C,Y1*%
X135300000Y-99850000D03*
X133100000Y-99850000D03*
X133100000Y-101550000D03*
X135300000Y-101550000D03*
%TD*%
D15*
%TO.C,C11*%
X140530000Y-113900000D03*
X141170000Y-113900000D03*
%TD*%
D19*
%TO.C,C13*%
X154000000Y-115350000D03*
X154000000Y-114710000D03*
%TD*%
D39*
%TO.C,J5*%
X133520000Y-93750000D03*
D40*
X136060000Y-93750000D03*
X138600000Y-93750000D03*
X141140000Y-93750000D03*
%TD*%
D20*
%TO.C,C9*%
X136525000Y-104150000D03*
X135885000Y-104150000D03*
%TD*%
D14*
%TO.C,C8*%
X148300000Y-100360000D03*
X148300000Y-101000000D03*
%TD*%
D43*
%TO.C,J1*%
X155800000Y-106740000D03*
X155800000Y-100960000D03*
D44*
X154355000Y-107100000D03*
X154355000Y-106300000D03*
D45*
X154355000Y-105100000D03*
X154355000Y-104100000D03*
X154355000Y-103600000D03*
X154355000Y-102600000D03*
D44*
X154355000Y-101400000D03*
X154355000Y-100600000D03*
X154355000Y-100600000D03*
X154355000Y-101400000D03*
D45*
X154355000Y-102100000D03*
X154355000Y-103100000D03*
X154355000Y-104600000D03*
X154355000Y-105600000D03*
D44*
X154355000Y-106300000D03*
X154355000Y-107100000D03*
D46*
X155270000Y-108170000D03*
D47*
X159450000Y-108170000D03*
D46*
X155270000Y-99530000D03*
D47*
X159450000Y-99530000D03*
%TD*%
D13*
%TO.C,D3*%
X147912500Y-116750000D03*
X149487500Y-116750000D03*
%TD*%
D18*
%TO.C,R6*%
X152250000Y-109775000D03*
X152250000Y-111425000D03*
%TD*%
D36*
%TO.C,FB1*%
X133500000Y-107350000D03*
X133500000Y-105775000D03*
%TD*%
M02*
