%TF.GenerationSoftware,KiCad,Pcbnew,9.0.6*%
%TF.CreationDate,2026-03-11T18:52:12+01:00*%
%TF.ProjectId,Flight controller 1.0.0,466c6967-6874-4206-936f-6e74726f6c6c,rev?*%
%TF.SameCoordinates,Original*%
%TF.FileFunction,Copper,L3,Inr*%
%TF.FilePolarity,Positive*%
%FSLAX46Y46*%
G04 Gerber Fmt 4.6, Leading zero omitted, Abs format (unit mm)*
G04 Created by KiCad (PCBNEW 9.0.6) date 2026-03-11 18:52:12*
%MOMM*%
%LPD*%
G01*
G04 APERTURE LIST*
%TA.AperFunction,HeatsinkPad*%
%ADD10C,0.550000*%
%TD*%
%TA.AperFunction,ComponentPad*%
%ADD11R,1.700000X1.700000*%
%TD*%
%TA.AperFunction,ComponentPad*%
%ADD12C,1.700000*%
%TD*%
%TA.AperFunction,HeatsinkPad*%
%ADD13O,2.100000X1.000000*%
%TD*%
%TA.AperFunction,HeatsinkPad*%
%ADD14O,1.600000X1.000000*%
%TD*%
%TA.AperFunction,ViaPad*%
%ADD15C,0.600000*%
%TD*%
G04 APERTURE END LIST*
D10*
%TO.N,GND*%
%TO.C,BUCK*%
X137940000Y-119800000D03*
X137940000Y-120947500D03*
X137940000Y-122095000D03*
X139041000Y-119800000D03*
X139041000Y-120947500D03*
X139041000Y-122095000D03*
%TD*%
D11*
%TO.N,+5V_BUCK*%
%TO.C,J4*%
X127000000Y-100130000D03*
D12*
%TO.N,VTX_RX*%
X127000000Y-102670000D03*
%TO.N,VTX_TX*%
X127000000Y-105210000D03*
%TO.N,GND*%
X127000000Y-107750000D03*
%TD*%
D11*
%TO.N,SWDIO*%
%TO.C,J3*%
X145110000Y-93750000D03*
D12*
%TO.N,SWCLK*%
X147650000Y-93750000D03*
%TO.N,+3.3V*%
X150190000Y-93750000D03*
%TO.N,GND*%
X152730000Y-93750000D03*
%TD*%
D11*
%TO.N,+5V_BUCK*%
%TO.C,J5*%
X133520000Y-93750000D03*
D12*
%TO.N,ELRS_RX*%
X136060000Y-93750000D03*
%TO.N,ELRS_TX*%
X138600000Y-93750000D03*
%TO.N,GND*%
X141140000Y-93750000D03*
%TD*%
D13*
%TO.N,GND*%
%TO.C,J1*%
X155270000Y-108170000D03*
D14*
X159450000Y-108170000D03*
D13*
X155270000Y-99530000D03*
D14*
X159450000Y-99530000D03*
%TD*%
D15*
%TO.N,+5V*%
X148400000Y-96550000D03*
X149200000Y-96550000D03*
X155000000Y-117000000D03*
X155000000Y-117900000D03*
%TO.N,GND*%
X139750000Y-111950000D03*
X147650000Y-97950000D03*
X134500000Y-98250000D03*
X131350000Y-120400000D03*
X134500000Y-123550000D03*
X135850000Y-111400000D03*
X135600000Y-123550000D03*
X153400000Y-117900000D03*
X145000000Y-106150000D03*
X136200000Y-118350000D03*
X146200000Y-118550000D03*
X153600000Y-98000000D03*
X142948441Y-114794023D03*
X141050000Y-125000000D03*
X134000000Y-104500000D03*
X139800000Y-102487500D03*
X144500000Y-113700000D03*
X155150000Y-114400000D03*
X140600000Y-97050000D03*
X139800000Y-106037500D03*
X139800000Y-105150000D03*
X137900000Y-109400000D03*
X136650000Y-123550000D03*
X143150000Y-109900000D03*
X141050000Y-126700000D03*
X146300000Y-122200000D03*
X141000000Y-106037500D03*
X143150000Y-104250000D03*
X138750000Y-123550000D03*
X145000000Y-105262500D03*
X144100000Y-106150000D03*
X135000000Y-104100000D03*
X139800000Y-101650000D03*
X146550000Y-123200000D03*
X141000000Y-102487500D03*
X141050000Y-125800000D03*
X133300000Y-123550000D03*
X153800000Y-108650000D03*
X130650000Y-110500000D03*
X137750000Y-123550000D03*
X142150000Y-103375000D03*
X138600000Y-98800000D03*
X142150000Y-104262500D03*
X137450000Y-118250000D03*
X139700000Y-123550000D03*
X139800000Y-100800000D03*
X139600000Y-113900000D03*
X146550000Y-116750000D03*
X139800000Y-103375000D03*
X139800000Y-104262500D03*
X154875000Y-110575000D03*
X151150000Y-108750000D03*
X133800000Y-102750000D03*
X142150000Y-105150000D03*
X151650000Y-107350000D03*
X141000000Y-104262500D03*
X148050000Y-113350000D03*
X132950000Y-118850000D03*
X139750000Y-111250000D03*
X155084314Y-112434314D03*
X145500000Y-126800000D03*
X143800000Y-109450000D03*
X141000000Y-105150000D03*
X141000000Y-103375000D03*
%TO.N,+3.3V*%
X146550000Y-98550000D03*
X151700000Y-104650000D03*
%TO.N,VBat*%
X127100000Y-112100000D03*
X130800000Y-122300000D03*
X131100000Y-121700000D03*
X131200000Y-122800000D03*
X127125000Y-112900000D03*
%TO.N,+5V_BUCK*%
X142550000Y-126650000D03*
X159199997Y-120200000D03*
X159900000Y-120200000D03*
X141950000Y-118250000D03*
X158499994Y-120200000D03*
X142100000Y-120200000D03*
X143450000Y-126700000D03*
X127700000Y-114000000D03*
X127700000Y-114800000D03*
X144350000Y-126700000D03*
X127700000Y-115600000D03*
%TO.N,Curr_sensor*%
X135400000Y-107150000D03*
X131650000Y-118900000D03*
%TO.N,M3*%
X132800000Y-116850000D03*
X148900000Y-105000000D03*
%TO.N,M4*%
X148850000Y-103850000D03*
X132800000Y-117850000D03*
%TO.N,M1*%
X132800000Y-114850000D03*
X147925707Y-106825707D03*
%TO.N,M2*%
X132800000Y-115850000D03*
X148500707Y-106050000D03*
%TO.N,SWDIO*%
X144800000Y-102150000D03*
%TO.N,VTX_RX*%
X130750000Y-102670000D03*
X141900000Y-96850000D03*
%TO.N,VTX_TX*%
X130750000Y-105210000D03*
X143100000Y-97100000D03*
%TO.N,SPI1_SCK*%
X140100000Y-109900000D03*
X141800000Y-110000000D03*
%TO.N,Interrupt*%
X139450000Y-112700000D03*
X144800000Y-103950000D03*
%TO.N,/BOOT0*%
X141200000Y-101050000D03*
X150700000Y-117800000D03*
%TO.N,Batt_control*%
X135600000Y-109800000D03*
X136400000Y-108200000D03*
%TO.N,/LED_STM32*%
X149300000Y-109050000D03*
X143550000Y-101050000D03*
%TD*%
%TA.AperFunction,Conductor*%
%TO.N,GND*%
G36*
X145548247Y-126507521D02*
G01*
X145562690Y-126511390D01*
X145604458Y-126522582D01*
X145622295Y-126529970D01*
X145672698Y-126559071D01*
X145688015Y-126570824D01*
X145729169Y-126611977D01*
X145740927Y-126627300D01*
X145770025Y-126677699D01*
X145777417Y-126695545D01*
X145792478Y-126751748D01*
X145795000Y-126770902D01*
X145795000Y-126829091D01*
X145792478Y-126848245D01*
X145777416Y-126904453D01*
X145770024Y-126922299D01*
X145740927Y-126972697D01*
X145729167Y-126988023D01*
X145688023Y-127029167D01*
X145672698Y-127040926D01*
X145622300Y-127070024D01*
X145604452Y-127077417D01*
X145548246Y-127092478D01*
X145529093Y-127095000D01*
X145470903Y-127095000D01*
X145451750Y-127092478D01*
X145395545Y-127077417D01*
X145377699Y-127070025D01*
X145327301Y-127040927D01*
X145311980Y-127029171D01*
X145270826Y-126988018D01*
X145259069Y-126972696D01*
X145257526Y-126970024D01*
X145229973Y-126922301D01*
X145222581Y-126904454D01*
X145222359Y-126903627D01*
X145207521Y-126848247D01*
X145207521Y-126848245D01*
X145205000Y-126829095D01*
X145205000Y-126770899D01*
X145207519Y-126751754D01*
X145222583Y-126695536D01*
X145229973Y-126677699D01*
X145259070Y-126627300D01*
X145270823Y-126611983D01*
X145311983Y-126570823D01*
X145327300Y-126559070D01*
X145377700Y-126529972D01*
X145395539Y-126522582D01*
X145451751Y-126507520D01*
X145470903Y-126505000D01*
X145529096Y-126505000D01*
X145548247Y-126507521D01*
G37*
%TD.AperFunction*%
%TA.AperFunction,Conductor*%
G36*
X141118365Y-126348448D02*
G01*
X141124729Y-126363811D01*
X141124732Y-126363817D01*
X141138426Y-126381663D01*
X141159209Y-126408748D01*
X141204827Y-126448754D01*
X141222701Y-126459073D01*
X141238018Y-126470827D01*
X141279168Y-126511976D01*
X141290926Y-126527299D01*
X141320024Y-126577699D01*
X141327416Y-126595545D01*
X141342478Y-126651753D01*
X141345000Y-126670907D01*
X141345000Y-126729089D01*
X141342480Y-126748237D01*
X141340968Y-126753877D01*
X141339018Y-126761159D01*
X141336408Y-126770899D01*
X141327416Y-126804454D01*
X141320024Y-126822299D01*
X141290927Y-126872697D01*
X141279167Y-126888023D01*
X141238023Y-126929167D01*
X141222698Y-126940926D01*
X141172300Y-126970024D01*
X141154452Y-126977417D01*
X141098246Y-126992478D01*
X141079093Y-126995000D01*
X141020905Y-126995000D01*
X141001751Y-126992478D01*
X140945546Y-126977417D01*
X140927700Y-126970025D01*
X140877302Y-126940928D01*
X140861976Y-126929168D01*
X140820828Y-126888020D01*
X140809068Y-126872694D01*
X140794953Y-126848247D01*
X140779973Y-126822301D01*
X140772581Y-126804454D01*
X140757521Y-126748247D01*
X140755000Y-126729095D01*
X140755000Y-126670899D01*
X140757520Y-126651753D01*
X140772583Y-126595536D01*
X140779973Y-126577699D01*
X140809070Y-126527300D01*
X140820823Y-126511983D01*
X140861981Y-126470825D01*
X140877304Y-126459069D01*
X140895172Y-126448754D01*
X140927378Y-126424041D01*
X140954464Y-126396955D01*
X140967875Y-126381663D01*
X140981633Y-126348448D01*
X141021679Y-126308401D01*
X141078316Y-126308400D01*
X141118365Y-126348448D01*
G37*
%TD.AperFunction*%
%TA.AperFunction,Conductor*%
G36*
X141098247Y-124707521D02*
G01*
X141112690Y-124711390D01*
X141154458Y-124722582D01*
X141172295Y-124729970D01*
X141222698Y-124759071D01*
X141238015Y-124770824D01*
X141279168Y-124811976D01*
X141290926Y-124827299D01*
X141320027Y-124877703D01*
X141327418Y-124895548D01*
X141333692Y-124918960D01*
X141333692Y-124918961D01*
X141342478Y-124951751D01*
X141345000Y-124970902D01*
X141345000Y-125029091D01*
X141342478Y-125048245D01*
X141327416Y-125104453D01*
X141320024Y-125122298D01*
X141290927Y-125172697D01*
X141279167Y-125188023D01*
X141229475Y-125237715D01*
X141229469Y-125237722D01*
X141195762Y-125288168D01*
X141174088Y-125340496D01*
X141163583Y-125379699D01*
X141163583Y-125379702D01*
X141174088Y-125459504D01*
X141174089Y-125459508D01*
X141195761Y-125511830D01*
X141229466Y-125562273D01*
X141229474Y-125562282D01*
X141279168Y-125611977D01*
X141290928Y-125627302D01*
X141320025Y-125677699D01*
X141327417Y-125695545D01*
X141342478Y-125751748D01*
X141345000Y-125770902D01*
X141345000Y-125829091D01*
X141342478Y-125848245D01*
X141327416Y-125904453D01*
X141320024Y-125922299D01*
X141290927Y-125972697D01*
X141279167Y-125988023D01*
X141238023Y-126029167D01*
X141222701Y-126040924D01*
X141204828Y-126051244D01*
X141172621Y-126075958D01*
X141172621Y-126075959D01*
X141145535Y-126103044D01*
X141145522Y-126103058D01*
X141132122Y-126118337D01*
X141132122Y-126118338D01*
X141118366Y-126151549D01*
X141078317Y-126191597D01*
X141021680Y-126191597D01*
X140981632Y-126151548D01*
X140975269Y-126136186D01*
X140940790Y-126091252D01*
X140923350Y-126075958D01*
X140895176Y-126051250D01*
X140895175Y-126051249D01*
X140895174Y-126051248D01*
X140877302Y-126040929D01*
X140861983Y-126029174D01*
X140820826Y-125988018D01*
X140809069Y-125972696D01*
X140779974Y-125922302D01*
X140772581Y-125904454D01*
X140757521Y-125848247D01*
X140755000Y-125829095D01*
X140755000Y-125770899D01*
X140757519Y-125751754D01*
X140772583Y-125695536D01*
X140779973Y-125677699D01*
X140781672Y-125674755D01*
X140809070Y-125627300D01*
X140820824Y-125611982D01*
X140870529Y-125562278D01*
X140904236Y-125511833D01*
X140925910Y-125459509D01*
X140936417Y-125420296D01*
X140925910Y-125340492D01*
X140925909Y-125340489D01*
X140904238Y-125288170D01*
X140870530Y-125237723D01*
X140870529Y-125237722D01*
X140870528Y-125237720D01*
X140870523Y-125237715D01*
X140820828Y-125188019D01*
X140809068Y-125172694D01*
X140779974Y-125122302D01*
X140772581Y-125104454D01*
X140757521Y-125048247D01*
X140755000Y-125029095D01*
X140755000Y-124970899D01*
X140757519Y-124951754D01*
X140772583Y-124895536D01*
X140779971Y-124877701D01*
X140809070Y-124827300D01*
X140820823Y-124811983D01*
X140861983Y-124770823D01*
X140877300Y-124759070D01*
X140927700Y-124729972D01*
X140945539Y-124722582D01*
X141001751Y-124707520D01*
X141020903Y-124705000D01*
X141079096Y-124705000D01*
X141098247Y-124707521D01*
G37*
%TD.AperFunction*%
%TA.AperFunction,Conductor*%
G36*
X157802065Y-92050615D02*
G01*
X158120504Y-92068498D01*
X158128739Y-92069427D01*
X158441097Y-92122500D01*
X158449186Y-92124346D01*
X158604864Y-92169195D01*
X158753655Y-92212061D01*
X158761474Y-92214796D01*
X159054205Y-92336050D01*
X159061681Y-92339650D01*
X159339000Y-92492918D01*
X159346014Y-92497326D01*
X159539665Y-92634729D01*
X159604414Y-92680671D01*
X159610901Y-92685843D01*
X159847162Y-92896979D01*
X159853020Y-92902837D01*
X159977785Y-93042449D01*
X160064155Y-93139097D01*
X160069328Y-93145585D01*
X160252669Y-93403979D01*
X160257084Y-93411004D01*
X160269725Y-93433876D01*
X160410349Y-93688318D01*
X160413949Y-93695794D01*
X160535199Y-93988515D01*
X160537940Y-93996349D01*
X160625653Y-94300813D01*
X160627499Y-94308902D01*
X160680571Y-94621254D01*
X160681501Y-94629501D01*
X160699384Y-94947934D01*
X160699500Y-94952083D01*
X160699500Y-98907128D01*
X160677826Y-98959454D01*
X160625500Y-98981128D01*
X160573174Y-98959454D01*
X160563972Y-98948241D01*
X160526755Y-98892542D01*
X160387459Y-98753246D01*
X160223675Y-98643809D01*
X160041693Y-98568430D01*
X160041682Y-98568427D01*
X159848490Y-98530000D01*
X159700000Y-98530000D01*
X159700000Y-99230000D01*
X159200000Y-99230000D01*
X159200000Y-98530000D01*
X159051510Y-98530000D01*
X158858317Y-98568427D01*
X158858306Y-98568430D01*
X158676324Y-98643809D01*
X158512540Y-98753246D01*
X158373246Y-98892540D01*
X158263809Y-99056324D01*
X158188430Y-99238306D01*
X158188427Y-99238317D01*
X158180136Y-99279999D01*
X158180137Y-99280000D01*
X158983012Y-99280000D01*
X158965795Y-99289940D01*
X158909940Y-99345795D01*
X158870444Y-99414204D01*
X158850000Y-99490504D01*
X158850000Y-99569496D01*
X158870444Y-99645796D01*
X158909940Y-99714205D01*
X158965795Y-99770060D01*
X158983012Y-99780000D01*
X158180137Y-99780000D01*
X158188427Y-99821682D01*
X158188430Y-99821693D01*
X158263809Y-100003675D01*
X158373246Y-100167459D01*
X158512540Y-100306753D01*
X158676324Y-100416190D01*
X158858306Y-100491569D01*
X158858317Y-100491572D01*
X159051510Y-100530000D01*
X159200000Y-100530000D01*
X159200000Y-99830000D01*
X159700000Y-99830000D01*
X159700000Y-100530000D01*
X159848490Y-100530000D01*
X160041682Y-100491572D01*
X160041693Y-100491569D01*
X160223675Y-100416190D01*
X160387459Y-100306753D01*
X160526753Y-100167459D01*
X160563971Y-100111759D01*
X160611063Y-100080293D01*
X160666612Y-100091342D01*
X160698078Y-100138434D01*
X160699500Y-100152871D01*
X160699500Y-107547128D01*
X160677826Y-107599454D01*
X160625500Y-107621128D01*
X160573174Y-107599454D01*
X160563972Y-107588241D01*
X160526755Y-107532542D01*
X160387459Y-107393246D01*
X160223675Y-107283809D01*
X160041693Y-107208430D01*
X160041682Y-107208427D01*
X159848490Y-107170000D01*
X159700000Y-107170000D01*
X159700000Y-107870000D01*
X159200000Y-107870000D01*
X159200000Y-107170000D01*
X159051510Y-107170000D01*
X158858317Y-107208427D01*
X158858306Y-107208430D01*
X158676324Y-107283809D01*
X158512540Y-107393246D01*
X158373246Y-107532540D01*
X158263809Y-107696324D01*
X158188430Y-107878306D01*
X158188427Y-107878317D01*
X158180136Y-107919999D01*
X158180137Y-107920000D01*
X158983012Y-107920000D01*
X158965795Y-107929940D01*
X158909940Y-107985795D01*
X158870444Y-108054204D01*
X158850000Y-108130504D01*
X158850000Y-108209496D01*
X158870444Y-108285796D01*
X158909940Y-108354205D01*
X158965795Y-108410060D01*
X158983012Y-108420000D01*
X158180137Y-108420000D01*
X158188427Y-108461682D01*
X158188430Y-108461693D01*
X158263809Y-108643675D01*
X158373246Y-108807459D01*
X158512540Y-108946753D01*
X158676324Y-109056190D01*
X158858306Y-109131569D01*
X158858317Y-109131572D01*
X159051510Y-109170000D01*
X159200000Y-109170000D01*
X159200000Y-108470000D01*
X159700000Y-108470000D01*
X159700000Y-109170000D01*
X159848490Y-109170000D01*
X160041682Y-109131572D01*
X160041693Y-109131569D01*
X160223675Y-109056190D01*
X160387459Y-108946753D01*
X160526753Y-108807459D01*
X160563971Y-108751759D01*
X160611063Y-108720293D01*
X160666612Y-108731342D01*
X160698078Y-108778434D01*
X160699500Y-108792871D01*
X160699500Y-115770500D01*
X160677826Y-115822826D01*
X160625500Y-115844500D01*
X158605187Y-115844500D01*
X158547036Y-115855784D01*
X158495703Y-115876485D01*
X158445981Y-115908706D01*
X157969868Y-116367299D01*
X157969867Y-116367301D01*
X157935809Y-116415774D01*
X157913198Y-116466294D01*
X157913198Y-116466296D01*
X157899740Y-116523988D01*
X157899740Y-116523989D01*
X157845890Y-117960009D01*
X157841871Y-117981442D01*
X156973124Y-120491154D01*
X156951716Y-120522820D01*
X153263261Y-123725953D01*
X153214379Y-123744080D01*
X153071552Y-123743383D01*
X140082986Y-123680024D01*
X140022725Y-123691858D01*
X140022714Y-123691861D01*
X139970400Y-123713530D01*
X139970398Y-123713531D01*
X139919951Y-123747239D01*
X139919941Y-123747248D01*
X139888020Y-123779168D01*
X139872697Y-123790926D01*
X139822299Y-123820024D01*
X139804451Y-123827417D01*
X139748244Y-123842478D01*
X139729093Y-123845000D01*
X139670903Y-123845000D01*
X139651750Y-123842478D01*
X139631489Y-123837049D01*
X139595548Y-123827418D01*
X139577703Y-123820026D01*
X139527301Y-123790927D01*
X139511974Y-123779167D01*
X139476302Y-123743495D01*
X139476297Y-123743491D01*
X139426207Y-123709933D01*
X139399334Y-123698725D01*
X139374243Y-123688260D01*
X139315143Y-123676279D01*
X139315147Y-123676279D01*
X139137597Y-123675412D01*
X139077337Y-123687246D01*
X139077326Y-123687249D01*
X139025012Y-123708918D01*
X139025010Y-123708919D01*
X138974563Y-123742627D01*
X138974559Y-123742631D01*
X138938021Y-123779168D01*
X138922697Y-123790926D01*
X138872299Y-123820024D01*
X138854451Y-123827417D01*
X138798244Y-123842478D01*
X138779093Y-123845000D01*
X138720905Y-123845000D01*
X138701751Y-123842478D01*
X138645546Y-123827417D01*
X138627701Y-123820025D01*
X138577304Y-123790929D01*
X138561978Y-123779170D01*
X138561974Y-123779166D01*
X138521645Y-123738837D01*
X138521641Y-123738834D01*
X138521640Y-123738833D01*
X138490544Y-123718001D01*
X138471549Y-123705275D01*
X138439380Y-123691858D01*
X138419586Y-123683602D01*
X138360482Y-123671621D01*
X138142453Y-123670558D01*
X138082194Y-123682391D01*
X138082183Y-123682394D01*
X138029863Y-123704066D01*
X137979418Y-123737773D01*
X137979408Y-123737781D01*
X137938023Y-123779166D01*
X137922699Y-123790926D01*
X137872299Y-123820025D01*
X137854451Y-123827417D01*
X137798244Y-123842478D01*
X137779093Y-123845000D01*
X137720905Y-123845000D01*
X137701751Y-123842478D01*
X137645546Y-123827417D01*
X137627701Y-123820026D01*
X137602503Y-123805478D01*
X137577302Y-123790929D01*
X137561978Y-123779170D01*
X137516741Y-123733933D01*
X137466645Y-123700372D01*
X137466643Y-123700371D01*
X137446236Y-123691860D01*
X137414686Y-123678701D01*
X137374518Y-123670558D01*
X137355582Y-123666719D01*
X137355584Y-123666719D01*
X137047791Y-123665218D01*
X136987531Y-123677052D01*
X136987521Y-123677055D01*
X136935205Y-123698725D01*
X136884759Y-123732432D01*
X136884752Y-123732438D01*
X136838023Y-123779167D01*
X136822699Y-123790926D01*
X136822698Y-123790927D01*
X136772299Y-123820025D01*
X136754452Y-123827417D01*
X136698246Y-123842478D01*
X136679093Y-123845000D01*
X136620905Y-123845000D01*
X136601751Y-123842478D01*
X136545546Y-123827417D01*
X136527701Y-123820025D01*
X136477304Y-123790929D01*
X136461978Y-123779169D01*
X136411353Y-123728545D01*
X136411345Y-123728538D01*
X136382058Y-123708918D01*
X136361254Y-123694980D01*
X136335273Y-123684144D01*
X136309293Y-123673308D01*
X136250189Y-123661327D01*
X136002890Y-123660121D01*
X135942631Y-123671954D01*
X135942620Y-123671957D01*
X135890301Y-123693628D01*
X135839857Y-123727334D01*
X135839855Y-123727336D01*
X135788022Y-123779168D01*
X135772698Y-123790926D01*
X135722300Y-123820024D01*
X135704452Y-123827417D01*
X135648246Y-123842478D01*
X135629093Y-123845000D01*
X135570905Y-123845000D01*
X135551751Y-123842478D01*
X135495546Y-123827417D01*
X135477701Y-123820026D01*
X135452503Y-123805478D01*
X135427302Y-123790929D01*
X135411978Y-123779170D01*
X135356200Y-123723392D01*
X135313789Y-123694980D01*
X135306105Y-123689832D01*
X135306103Y-123689831D01*
X135306102Y-123689830D01*
X135254151Y-123668162D01*
X135195048Y-123656181D01*
X134908230Y-123654781D01*
X134847971Y-123666614D01*
X134847960Y-123666617D01*
X134795641Y-123688288D01*
X134745197Y-123721994D01*
X134745195Y-123721996D01*
X134688022Y-123779168D01*
X134672698Y-123790926D01*
X134622300Y-123820024D01*
X134604452Y-123827417D01*
X134548246Y-123842478D01*
X134529093Y-123845000D01*
X134470905Y-123845000D01*
X134451751Y-123842478D01*
X134395546Y-123827417D01*
X134377701Y-123820025D01*
X134327306Y-123790930D01*
X134311980Y-123779170D01*
X134250817Y-123718008D01*
X134250808Y-123718001D01*
X134237250Y-123708918D01*
X134200715Y-123684441D01*
X134170780Y-123671956D01*
X134148754Y-123662769D01*
X134089655Y-123650789D01*
X134089656Y-123650789D01*
X133714055Y-123648956D01*
X133653794Y-123660790D01*
X133653784Y-123660793D01*
X133601463Y-123682466D01*
X133601461Y-123682467D01*
X133569987Y-123703474D01*
X133569970Y-123703485D01*
X133551131Y-123716060D01*
X133550649Y-123716541D01*
X133550560Y-123716684D01*
X133550534Y-123716658D01*
X133547578Y-123719612D01*
X133547572Y-123719618D01*
X133488023Y-123779167D01*
X133472699Y-123790926D01*
X133472698Y-123790927D01*
X133422299Y-123820025D01*
X133404452Y-123827417D01*
X133348246Y-123842478D01*
X133329093Y-123845000D01*
X133270905Y-123845000D01*
X133251751Y-123842478D01*
X133195546Y-123827417D01*
X133177700Y-123820025D01*
X133127302Y-123790928D01*
X133111976Y-123779168D01*
X133111974Y-123779166D01*
X133047193Y-123714384D01*
X133036936Y-123704127D01*
X133025358Y-123700382D01*
X132995696Y-123678963D01*
X132995072Y-123678701D01*
X132943476Y-123657034D01*
X132884028Y-123644908D01*
X132881377Y-123644634D01*
X132839350Y-123625901D01*
X131970962Y-122840218D01*
X131917349Y-122791711D01*
X137596840Y-122791711D01*
X137713940Y-122840216D01*
X137713946Y-122840218D01*
X137863671Y-122870000D01*
X138016329Y-122870000D01*
X138166053Y-122840218D01*
X138166059Y-122840216D01*
X138283158Y-122791711D01*
X138697840Y-122791711D01*
X138814940Y-122840216D01*
X138814946Y-122840218D01*
X138964671Y-122870000D01*
X139117329Y-122870000D01*
X139267053Y-122840218D01*
X139267059Y-122840216D01*
X139384158Y-122791711D01*
X139041000Y-122448553D01*
X138697840Y-122791711D01*
X138283158Y-122791711D01*
X137940000Y-122448553D01*
X137596840Y-122791711D01*
X131917349Y-122791711D01*
X131866034Y-122745283D01*
X131836067Y-122724024D01*
X131805574Y-122707421D01*
X131790720Y-122700325D01*
X131710916Y-122689819D01*
X131710915Y-122689819D01*
X131703727Y-122690765D01*
X131649021Y-122676102D01*
X131622595Y-122636549D01*
X131619799Y-122626114D01*
X131560489Y-122523387D01*
X131476613Y-122439511D01*
X131476610Y-122439509D01*
X131476609Y-122439508D01*
X131373887Y-122380201D01*
X131373882Y-122380199D01*
X131305347Y-122361835D01*
X131293323Y-122352608D01*
X131278732Y-122348506D01*
X131273242Y-122337200D01*
X131260414Y-122327356D01*
X131251020Y-122299112D01*
X131250500Y-122294747D01*
X131250500Y-122240691D01*
X131238901Y-122197406D01*
X131238274Y-122192138D01*
X131244611Y-122169600D01*
X131247667Y-122146384D01*
X131252497Y-122141553D01*
X131253605Y-122137615D01*
X131260054Y-122133996D01*
X131274751Y-122119299D01*
X131376613Y-122060489D01*
X131418432Y-122018670D01*
X137165000Y-122018670D01*
X137165000Y-122171329D01*
X137194781Y-122321053D01*
X137194784Y-122321063D01*
X137243286Y-122438158D01*
X137243287Y-122438159D01*
X137586446Y-122095000D01*
X137586446Y-122094999D01*
X137556610Y-122065163D01*
X137790000Y-122065163D01*
X137790000Y-122124837D01*
X137812836Y-122179968D01*
X137855032Y-122222164D01*
X137910163Y-122245000D01*
X137969837Y-122245000D01*
X138024968Y-122222164D01*
X138067164Y-122179968D01*
X138090000Y-122124837D01*
X138090000Y-122094999D01*
X138293553Y-122094999D01*
X138490499Y-122291946D01*
X138687446Y-122095000D01*
X138687446Y-122094999D01*
X138657610Y-122065163D01*
X138891000Y-122065163D01*
X138891000Y-122124837D01*
X138913836Y-122179968D01*
X138956032Y-122222164D01*
X139011163Y-122245000D01*
X139070837Y-122245000D01*
X139125968Y-122222164D01*
X139168164Y-122179968D01*
X139191000Y-122124837D01*
X139191000Y-122094999D01*
X139394553Y-122094999D01*
X139394553Y-122095000D01*
X139737711Y-122438158D01*
X139786216Y-122321059D01*
X139786218Y-122321053D01*
X139816000Y-122171329D01*
X139816000Y-122018670D01*
X139786218Y-121868946D01*
X139786216Y-121868940D01*
X139737711Y-121751840D01*
X139394553Y-122094999D01*
X139191000Y-122094999D01*
X139191000Y-122065163D01*
X139168164Y-122010032D01*
X139125968Y-121967836D01*
X139070837Y-121945000D01*
X139011163Y-121945000D01*
X138956032Y-121967836D01*
X138913836Y-122010032D01*
X138891000Y-122065163D01*
X138657610Y-122065163D01*
X138490500Y-121898053D01*
X138293553Y-122094999D01*
X138090000Y-122094999D01*
X138090000Y-122065163D01*
X138067164Y-122010032D01*
X138024968Y-121967836D01*
X137969837Y-121945000D01*
X137910163Y-121945000D01*
X137855032Y-121967836D01*
X137812836Y-122010032D01*
X137790000Y-122065163D01*
X137556610Y-122065163D01*
X137243286Y-121751840D01*
X137194784Y-121868936D01*
X137194781Y-121868946D01*
X137165000Y-122018670D01*
X131418432Y-122018670D01*
X131460489Y-121976613D01*
X131519799Y-121873886D01*
X131550499Y-121759311D01*
X131550500Y-121759311D01*
X131550500Y-121640689D01*
X131550499Y-121640688D01*
X131519800Y-121526117D01*
X131519799Y-121526116D01*
X131519799Y-121526114D01*
X131516990Y-121521249D01*
X137719803Y-121521249D01*
X137939999Y-121741446D01*
X138160196Y-121521250D01*
X138160196Y-121521249D01*
X138820803Y-121521249D01*
X139040999Y-121741446D01*
X139261196Y-121521250D01*
X139261196Y-121521249D01*
X139041000Y-121301053D01*
X138820803Y-121521249D01*
X138160196Y-121521249D01*
X137940000Y-121301053D01*
X137719803Y-121521249D01*
X131516990Y-121521249D01*
X131460489Y-121423387D01*
X131376613Y-121339511D01*
X131376610Y-121339509D01*
X131376609Y-121339508D01*
X131273887Y-121280201D01*
X131273882Y-121280199D01*
X131159311Y-121249500D01*
X131159309Y-121249500D01*
X131040691Y-121249500D01*
X131040689Y-121249500D01*
X130948653Y-121274161D01*
X130892500Y-121266769D01*
X130858022Y-121221836D01*
X130855500Y-121202683D01*
X130855500Y-120871170D01*
X137165000Y-120871170D01*
X137165000Y-121023829D01*
X137194781Y-121173553D01*
X137194784Y-121173563D01*
X137243286Y-121290658D01*
X137243287Y-121290659D01*
X137586446Y-120947500D01*
X137586446Y-120947499D01*
X137556610Y-120917663D01*
X137790000Y-120917663D01*
X137790000Y-120977337D01*
X137812836Y-121032468D01*
X137855032Y-121074664D01*
X137910163Y-121097500D01*
X137969837Y-121097500D01*
X138024968Y-121074664D01*
X138067164Y-121032468D01*
X138090000Y-120977337D01*
X138090000Y-120947499D01*
X138293553Y-120947499D01*
X138490499Y-121144446D01*
X138687446Y-120947500D01*
X138687446Y-120947499D01*
X138657610Y-120917663D01*
X138891000Y-120917663D01*
X138891000Y-120977337D01*
X138913836Y-121032468D01*
X138956032Y-121074664D01*
X139011163Y-121097500D01*
X139070837Y-121097500D01*
X139125968Y-121074664D01*
X139168164Y-121032468D01*
X139191000Y-120977337D01*
X139191000Y-120947499D01*
X139394553Y-120947499D01*
X139394553Y-120947500D01*
X139737711Y-121290658D01*
X139786216Y-121173559D01*
X139786218Y-121173553D01*
X139816000Y-121023829D01*
X139816000Y-120871170D01*
X139786218Y-120721446D01*
X139786216Y-120721440D01*
X139737711Y-120604340D01*
X139394553Y-120947499D01*
X139191000Y-120947499D01*
X139191000Y-120917663D01*
X139168164Y-120862532D01*
X139125968Y-120820336D01*
X139070837Y-120797500D01*
X139011163Y-120797500D01*
X138956032Y-120820336D01*
X138913836Y-120862532D01*
X138891000Y-120917663D01*
X138657610Y-120917663D01*
X138490500Y-120750553D01*
X138293553Y-120947499D01*
X138090000Y-120947499D01*
X138090000Y-120917663D01*
X138067164Y-120862532D01*
X138024968Y-120820336D01*
X137969837Y-120797500D01*
X137910163Y-120797500D01*
X137855032Y-120820336D01*
X137812836Y-120862532D01*
X137790000Y-120917663D01*
X137556610Y-120917663D01*
X137243286Y-120604340D01*
X137194784Y-120721436D01*
X137194781Y-120721446D01*
X137165000Y-120871170D01*
X130855500Y-120871170D01*
X130855500Y-120373749D01*
X137719803Y-120373749D01*
X137939999Y-120593946D01*
X138160196Y-120373750D01*
X138160196Y-120373749D01*
X138820803Y-120373749D01*
X139040999Y-120593946D01*
X139261196Y-120373750D01*
X139261196Y-120373749D01*
X139041000Y-120153553D01*
X138820803Y-120373749D01*
X138160196Y-120373749D01*
X137940000Y-120153553D01*
X137719803Y-120373749D01*
X130855500Y-120373749D01*
X130855500Y-119723670D01*
X137165000Y-119723670D01*
X137165000Y-119876329D01*
X137194781Y-120026053D01*
X137194784Y-120026063D01*
X137243286Y-120143158D01*
X137243287Y-120143159D01*
X137586446Y-119800000D01*
X137586446Y-119799999D01*
X137556610Y-119770163D01*
X137790000Y-119770163D01*
X137790000Y-119829837D01*
X137812836Y-119884968D01*
X137855032Y-119927164D01*
X137910163Y-119950000D01*
X137969837Y-119950000D01*
X138024968Y-119927164D01*
X138067164Y-119884968D01*
X138090000Y-119829837D01*
X138090000Y-119799999D01*
X138293553Y-119799999D01*
X138490499Y-119996946D01*
X138687446Y-119800000D01*
X138687446Y-119799999D01*
X138657610Y-119770163D01*
X138891000Y-119770163D01*
X138891000Y-119829837D01*
X138913836Y-119884968D01*
X138956032Y-119927164D01*
X139011163Y-119950000D01*
X139070837Y-119950000D01*
X139125968Y-119927164D01*
X139168164Y-119884968D01*
X139191000Y-119829837D01*
X139191000Y-119799999D01*
X139394553Y-119799999D01*
X139394553Y-119800000D01*
X139737711Y-120143158D01*
X139738734Y-120140688D01*
X141649500Y-120140688D01*
X141649500Y-120259311D01*
X141680199Y-120373882D01*
X141680201Y-120373887D01*
X141739508Y-120476609D01*
X141739509Y-120476610D01*
X141739511Y-120476613D01*
X141823387Y-120560489D01*
X141823389Y-120560490D01*
X141823390Y-120560491D01*
X141899338Y-120604340D01*
X141926114Y-120619799D01*
X141926115Y-120619799D01*
X141926117Y-120619800D01*
X141983402Y-120635149D01*
X142040688Y-120650499D01*
X142040689Y-120650500D01*
X142040691Y-120650500D01*
X142159311Y-120650500D01*
X142159311Y-120650499D01*
X142273886Y-120619799D01*
X142376613Y-120560489D01*
X142460489Y-120476613D01*
X142519799Y-120373886D01*
X142550499Y-120259311D01*
X142550500Y-120259311D01*
X142550500Y-120140689D01*
X142550499Y-120140688D01*
X142519800Y-120026117D01*
X142519798Y-120026112D01*
X142460491Y-119923390D01*
X142460490Y-119923389D01*
X142460489Y-119923387D01*
X142376613Y-119839511D01*
X142376610Y-119839509D01*
X142376609Y-119839508D01*
X142273887Y-119780201D01*
X142273882Y-119780199D01*
X142159311Y-119749500D01*
X142159309Y-119749500D01*
X142040691Y-119749500D01*
X142040689Y-119749500D01*
X141926117Y-119780199D01*
X141926112Y-119780201D01*
X141823390Y-119839508D01*
X141739508Y-119923390D01*
X141680201Y-120026112D01*
X141680199Y-120026117D01*
X141649500Y-120140688D01*
X139738734Y-120140688D01*
X139752473Y-120107522D01*
X139786216Y-120026059D01*
X139786218Y-120026053D01*
X139816000Y-119876329D01*
X139816000Y-119723670D01*
X139786218Y-119573946D01*
X139786216Y-119573940D01*
X139737711Y-119456840D01*
X139394553Y-119799999D01*
X139191000Y-119799999D01*
X139191000Y-119770163D01*
X139168164Y-119715032D01*
X139125968Y-119672836D01*
X139070837Y-119650000D01*
X139011163Y-119650000D01*
X138956032Y-119672836D01*
X138913836Y-119715032D01*
X138891000Y-119770163D01*
X138657610Y-119770163D01*
X138490500Y-119603053D01*
X138293553Y-119799999D01*
X138090000Y-119799999D01*
X138090000Y-119770163D01*
X138067164Y-119715032D01*
X138024968Y-119672836D01*
X137969837Y-119650000D01*
X137910163Y-119650000D01*
X137855032Y-119672836D01*
X137812836Y-119715032D01*
X137790000Y-119770163D01*
X137556610Y-119770163D01*
X137243286Y-119456840D01*
X137194784Y-119573936D01*
X137194781Y-119573946D01*
X137165000Y-119723670D01*
X130855500Y-119723670D01*
X130855500Y-118840688D01*
X131199500Y-118840688D01*
X131199500Y-118959311D01*
X131230199Y-119073882D01*
X131230201Y-119073887D01*
X131289508Y-119176609D01*
X131289509Y-119176610D01*
X131289511Y-119176613D01*
X131373387Y-119260489D01*
X131476114Y-119319799D01*
X131476115Y-119319799D01*
X131476117Y-119319800D01*
X131533402Y-119335149D01*
X131590688Y-119350499D01*
X131590689Y-119350500D01*
X131590691Y-119350500D01*
X131709311Y-119350500D01*
X131709311Y-119350499D01*
X131823886Y-119319799D01*
X131926613Y-119260489D01*
X132010489Y-119176613D01*
X132052825Y-119103286D01*
X137596840Y-119103286D01*
X137939999Y-119446446D01*
X138283159Y-119103287D01*
X138283158Y-119103286D01*
X138697840Y-119103286D01*
X139040999Y-119446446D01*
X139384159Y-119103287D01*
X139384158Y-119103286D01*
X139267063Y-119054784D01*
X139267053Y-119054781D01*
X139117329Y-119025000D01*
X138964671Y-119025000D01*
X138814946Y-119054781D01*
X138814936Y-119054784D01*
X138697840Y-119103286D01*
X138283158Y-119103286D01*
X138166063Y-119054784D01*
X138166053Y-119054781D01*
X138016329Y-119025000D01*
X137863671Y-119025000D01*
X137713946Y-119054781D01*
X137713936Y-119054784D01*
X137596840Y-119103286D01*
X132052825Y-119103286D01*
X132069799Y-119073886D01*
X132100499Y-118959311D01*
X132100500Y-118959311D01*
X132100500Y-118840689D01*
X132100499Y-118840688D01*
X132069800Y-118726117D01*
X132069798Y-118726112D01*
X132010491Y-118623390D01*
X132010490Y-118623389D01*
X132010489Y-118623387D01*
X131926613Y-118539511D01*
X131926610Y-118539509D01*
X131926609Y-118539508D01*
X131823887Y-118480201D01*
X131823882Y-118480199D01*
X131709311Y-118449500D01*
X131709309Y-118449500D01*
X131590691Y-118449500D01*
X131590689Y-118449500D01*
X131476117Y-118480199D01*
X131476112Y-118480201D01*
X131373390Y-118539508D01*
X131289508Y-118623390D01*
X131230201Y-118726112D01*
X131230199Y-118726117D01*
X131199500Y-118840688D01*
X130855500Y-118840688D01*
X130855500Y-115520279D01*
X130849971Y-115479182D01*
X130839633Y-115441457D01*
X130823437Y-115403280D01*
X130460419Y-114790688D01*
X132349500Y-114790688D01*
X132349500Y-114909311D01*
X132380199Y-115023882D01*
X132380201Y-115023887D01*
X132439508Y-115126609D01*
X132439509Y-115126610D01*
X132439511Y-115126613D01*
X132523387Y-115210489D01*
X132626114Y-115269799D01*
X132626115Y-115269799D01*
X132626117Y-115269800D01*
X132658666Y-115278522D01*
X132703599Y-115313001D01*
X132710991Y-115369153D01*
X132676512Y-115414086D01*
X132658666Y-115421478D01*
X132626117Y-115430199D01*
X132626112Y-115430201D01*
X132523390Y-115489508D01*
X132439508Y-115573390D01*
X132380201Y-115676112D01*
X132380199Y-115676117D01*
X132349500Y-115790688D01*
X132349500Y-115909311D01*
X132380199Y-116023882D01*
X132380201Y-116023887D01*
X132439508Y-116126609D01*
X132439509Y-116126610D01*
X132439511Y-116126613D01*
X132523387Y-116210489D01*
X132626114Y-116269799D01*
X132626115Y-116269799D01*
X132626117Y-116269800D01*
X132658666Y-116278522D01*
X132703599Y-116313001D01*
X132710991Y-116369153D01*
X132676512Y-116414086D01*
X132658666Y-116421478D01*
X132626117Y-116430199D01*
X132626112Y-116430201D01*
X132523390Y-116489508D01*
X132439508Y-116573390D01*
X132380201Y-116676112D01*
X132380199Y-116676117D01*
X132349500Y-116790688D01*
X132349500Y-116909311D01*
X132380199Y-117023882D01*
X132380201Y-117023887D01*
X132439508Y-117126609D01*
X132439509Y-117126610D01*
X132439511Y-117126613D01*
X132523387Y-117210489D01*
X132626114Y-117269799D01*
X132626115Y-117269799D01*
X132626117Y-117269800D01*
X132658666Y-117278522D01*
X132703599Y-117313001D01*
X132710991Y-117369153D01*
X132676512Y-117414086D01*
X132658666Y-117421478D01*
X132626117Y-117430199D01*
X132626112Y-117430201D01*
X132523390Y-117489508D01*
X132439508Y-117573390D01*
X132380201Y-117676112D01*
X132380199Y-117676117D01*
X132349500Y-117790688D01*
X132349500Y-117909311D01*
X132380199Y-118023882D01*
X132380201Y-118023887D01*
X132439508Y-118126609D01*
X132439509Y-118126610D01*
X132439511Y-118126613D01*
X132523387Y-118210489D01*
X132523389Y-118210490D01*
X132523390Y-118210491D01*
X132609992Y-118260491D01*
X132626114Y-118269799D01*
X132626115Y-118269799D01*
X132626117Y-118269800D01*
X132683402Y-118285149D01*
X132740688Y-118300499D01*
X132740689Y-118300500D01*
X132740691Y-118300500D01*
X132859311Y-118300500D01*
X132859311Y-118300499D01*
X132973886Y-118269799D01*
X133076613Y-118210489D01*
X133096414Y-118190688D01*
X141499500Y-118190688D01*
X141499500Y-118309311D01*
X141530199Y-118423882D01*
X141530201Y-118423887D01*
X141589508Y-118526609D01*
X141589509Y-118526610D01*
X141589511Y-118526613D01*
X141673387Y-118610489D01*
X141673389Y-118610490D01*
X141673390Y-118610491D01*
X141695732Y-118623390D01*
X141776114Y-118669799D01*
X141776115Y-118669799D01*
X141776117Y-118669800D01*
X141833402Y-118685149D01*
X141890688Y-118700499D01*
X141890689Y-118700500D01*
X141890691Y-118700500D01*
X142009311Y-118700500D01*
X142009311Y-118700499D01*
X142123886Y-118669799D01*
X142226613Y-118610489D01*
X142310489Y-118526613D01*
X142369799Y-118423886D01*
X142400499Y-118309311D01*
X142400500Y-118309311D01*
X142400500Y-118190689D01*
X142400499Y-118190688D01*
X142369800Y-118076117D01*
X142369798Y-118076112D01*
X142310491Y-117973390D01*
X142310490Y-117973389D01*
X142310489Y-117973387D01*
X142226613Y-117889511D01*
X142226610Y-117889509D01*
X142226609Y-117889508D01*
X142123887Y-117830201D01*
X142123882Y-117830199D01*
X142038492Y-117807319D01*
X142009311Y-117799500D01*
X142009309Y-117799500D01*
X141890691Y-117799500D01*
X141890689Y-117799500D01*
X141776117Y-117830199D01*
X141776112Y-117830201D01*
X141673390Y-117889508D01*
X141589508Y-117973390D01*
X141530201Y-118076112D01*
X141530199Y-118076117D01*
X141499500Y-118190688D01*
X133096414Y-118190688D01*
X133160489Y-118126613D01*
X133219799Y-118023886D01*
X133250499Y-117909311D01*
X133250500Y-117909311D01*
X133250500Y-117790689D01*
X133250499Y-117790688D01*
X133237102Y-117740688D01*
X150249500Y-117740688D01*
X150249500Y-117859311D01*
X150280199Y-117973882D01*
X150280201Y-117973887D01*
X150339508Y-118076609D01*
X150339509Y-118076610D01*
X150339511Y-118076613D01*
X150423387Y-118160489D01*
X150423389Y-118160490D01*
X150423390Y-118160491D01*
X150509992Y-118210491D01*
X150526114Y-118219799D01*
X150526115Y-118219799D01*
X150526117Y-118219800D01*
X150583402Y-118235149D01*
X150640688Y-118250499D01*
X150640689Y-118250500D01*
X150640691Y-118250500D01*
X150759311Y-118250500D01*
X150759311Y-118250499D01*
X150873886Y-118219799D01*
X150976613Y-118160489D01*
X151060489Y-118076613D01*
X151119799Y-117973886D01*
X151150499Y-117859311D01*
X151150500Y-117859311D01*
X151150500Y-117740689D01*
X151150499Y-117740688D01*
X151146593Y-117726112D01*
X151119799Y-117626114D01*
X151089357Y-117573387D01*
X151060491Y-117523390D01*
X151060490Y-117523389D01*
X151060489Y-117523387D01*
X150976613Y-117439511D01*
X150976610Y-117439509D01*
X150976609Y-117439508D01*
X150873887Y-117380201D01*
X150873882Y-117380199D01*
X150759311Y-117349500D01*
X150759309Y-117349500D01*
X150640691Y-117349500D01*
X150640689Y-117349500D01*
X150526117Y-117380199D01*
X150526112Y-117380201D01*
X150423390Y-117439508D01*
X150339508Y-117523390D01*
X150280201Y-117626112D01*
X150280199Y-117626117D01*
X150249500Y-117740688D01*
X133237102Y-117740688D01*
X133219800Y-117676117D01*
X133219798Y-117676112D01*
X133160491Y-117573390D01*
X133160490Y-117573389D01*
X133160489Y-117573387D01*
X133076613Y-117489511D01*
X133076610Y-117489509D01*
X133076609Y-117489508D01*
X132973887Y-117430201D01*
X132973882Y-117430199D01*
X132941333Y-117421478D01*
X132896400Y-117387000D01*
X132889008Y-117330847D01*
X132923486Y-117285914D01*
X132941333Y-117278522D01*
X132973882Y-117269800D01*
X132973881Y-117269800D01*
X132973886Y-117269799D01*
X133076613Y-117210489D01*
X133160489Y-117126613D01*
X133219799Y-117023886D01*
X133242092Y-116940688D01*
X154549500Y-116940688D01*
X154549500Y-117059311D01*
X154580199Y-117173882D01*
X154580201Y-117173887D01*
X154639508Y-117276609D01*
X154639509Y-117276610D01*
X154639511Y-117276613D01*
X154723387Y-117360489D01*
X154723389Y-117360490D01*
X154723390Y-117360491D01*
X154767423Y-117385914D01*
X154801902Y-117430848D01*
X154794509Y-117487000D01*
X154767423Y-117514086D01*
X154723390Y-117539508D01*
X154639508Y-117623390D01*
X154580201Y-117726112D01*
X154580199Y-117726117D01*
X154549500Y-117840688D01*
X154549500Y-117959311D01*
X154580199Y-118073882D01*
X154580201Y-118073887D01*
X154639508Y-118176609D01*
X154639509Y-118176610D01*
X154639511Y-118176613D01*
X154723387Y-118260489D01*
X154723389Y-118260490D01*
X154723390Y-118260491D01*
X154792687Y-118300500D01*
X154826114Y-118319799D01*
X154826115Y-118319799D01*
X154826117Y-118319800D01*
X154883402Y-118335149D01*
X154940688Y-118350499D01*
X154940689Y-118350500D01*
X154940691Y-118350500D01*
X155059311Y-118350500D01*
X155059311Y-118350499D01*
X155173886Y-118319799D01*
X155276613Y-118260489D01*
X155360489Y-118176613D01*
X155419799Y-118073886D01*
X155450499Y-117959311D01*
X155450500Y-117959311D01*
X155450500Y-117840689D01*
X155450499Y-117840688D01*
X155447688Y-117830199D01*
X155423705Y-117740691D01*
X155419800Y-117726117D01*
X155419798Y-117726112D01*
X155360491Y-117623390D01*
X155360490Y-117623389D01*
X155360489Y-117623387D01*
X155276613Y-117539511D01*
X155276610Y-117539509D01*
X155276609Y-117539508D01*
X155232576Y-117514086D01*
X155198098Y-117469153D01*
X155205490Y-117413000D01*
X155232576Y-117385914D01*
X155242471Y-117380201D01*
X155276613Y-117360489D01*
X155360489Y-117276613D01*
X155419799Y-117173886D01*
X155450499Y-117059311D01*
X155450500Y-117059311D01*
X155450500Y-116940689D01*
X155450499Y-116940688D01*
X155419800Y-116826117D01*
X155419798Y-116826112D01*
X155360491Y-116723390D01*
X155360490Y-116723389D01*
X155360489Y-116723387D01*
X155276613Y-116639511D01*
X155276610Y-116639509D01*
X155276609Y-116639508D01*
X155173887Y-116580201D01*
X155173882Y-116580199D01*
X155059311Y-116549500D01*
X155059309Y-116549500D01*
X154940691Y-116549500D01*
X154940689Y-116549500D01*
X154826117Y-116580199D01*
X154826112Y-116580201D01*
X154723390Y-116639508D01*
X154639508Y-116723390D01*
X154580201Y-116826112D01*
X154580199Y-116826117D01*
X154549500Y-116940688D01*
X133242092Y-116940688D01*
X133250500Y-116909309D01*
X133250500Y-116790691D01*
X133250500Y-116790689D01*
X133250499Y-116790688D01*
X133219800Y-116676117D01*
X133219798Y-116676112D01*
X133160491Y-116573390D01*
X133160490Y-116573389D01*
X133160489Y-116573387D01*
X133076613Y-116489511D01*
X133076610Y-116489509D01*
X133076609Y-116489508D01*
X132973887Y-116430201D01*
X132973882Y-116430199D01*
X132941333Y-116421478D01*
X132896400Y-116387000D01*
X132889008Y-116330847D01*
X132923486Y-116285914D01*
X132941333Y-116278522D01*
X132973882Y-116269800D01*
X132973881Y-116269800D01*
X132973886Y-116269799D01*
X133076613Y-116210489D01*
X133160489Y-116126613D01*
X133219799Y-116023886D01*
X133250499Y-115909311D01*
X133250500Y-115909311D01*
X133250500Y-115790689D01*
X133250499Y-115790688D01*
X133219800Y-115676117D01*
X133219798Y-115676112D01*
X133160491Y-115573390D01*
X133160490Y-115573389D01*
X133160489Y-115573387D01*
X133076613Y-115489511D01*
X133076610Y-115489509D01*
X133076609Y-115489508D01*
X132973887Y-115430201D01*
X132973882Y-115430199D01*
X132941333Y-115421478D01*
X132896400Y-115387000D01*
X132889008Y-115330847D01*
X132923486Y-115285914D01*
X132941333Y-115278522D01*
X132973882Y-115269800D01*
X132973881Y-115269800D01*
X132973886Y-115269799D01*
X133076613Y-115210489D01*
X133160489Y-115126613D01*
X133219799Y-115023886D01*
X133250499Y-114909311D01*
X133250500Y-114909311D01*
X133250500Y-114790689D01*
X133250499Y-114790688D01*
X133219800Y-114676117D01*
X133219798Y-114676112D01*
X133160491Y-114573390D01*
X133160490Y-114573389D01*
X133160489Y-114573387D01*
X133076613Y-114489511D01*
X133076610Y-114489509D01*
X133076609Y-114489508D01*
X132973887Y-114430201D01*
X132973882Y-114430199D01*
X132859311Y-114399500D01*
X132859309Y-114399500D01*
X132740691Y-114399500D01*
X132740689Y-114399500D01*
X132626117Y-114430199D01*
X132626112Y-114430201D01*
X132523390Y-114489508D01*
X132439508Y-114573390D01*
X132380201Y-114676112D01*
X132380199Y-114676117D01*
X132349500Y-114790688D01*
X130460419Y-114790688D01*
X129255271Y-112757001D01*
X129244323Y-112740914D01*
X129244322Y-112740912D01*
X129240794Y-112736368D01*
X129232987Y-112726313D01*
X129232984Y-112726311D01*
X129232984Y-112726310D01*
X129191515Y-112694677D01*
X129191514Y-112694676D01*
X129169669Y-112678012D01*
X129169667Y-112678010D01*
X129117345Y-112656338D01*
X129117335Y-112656335D01*
X129077488Y-112648409D01*
X129057834Y-112644500D01*
X127649500Y-112644500D01*
X127632631Y-112647855D01*
X127589998Y-112656335D01*
X127589989Y-112656338D01*
X127580963Y-112660077D01*
X127524326Y-112660075D01*
X127498841Y-112642512D01*
X127497119Y-112640688D01*
X138999500Y-112640688D01*
X138999500Y-112759311D01*
X139030199Y-112873882D01*
X139030201Y-112873887D01*
X139089508Y-112976609D01*
X139089509Y-112976610D01*
X139089511Y-112976613D01*
X139173387Y-113060489D01*
X139276114Y-113119799D01*
X139276115Y-113119799D01*
X139276117Y-113119800D01*
X139333402Y-113135149D01*
X139390688Y-113150499D01*
X139390689Y-113150500D01*
X139390691Y-113150500D01*
X139509311Y-113150500D01*
X139509311Y-113150499D01*
X139623886Y-113119799D01*
X139726613Y-113060489D01*
X139810489Y-112976613D01*
X139869799Y-112873886D01*
X139900499Y-112759311D01*
X139900500Y-112759311D01*
X139900500Y-112640689D01*
X139900499Y-112640688D01*
X139869800Y-112526117D01*
X139869798Y-112526112D01*
X139810491Y-112423390D01*
X139810490Y-112423389D01*
X139810489Y-112423387D01*
X139726613Y-112339511D01*
X139726610Y-112339509D01*
X139726609Y-112339508D01*
X139623887Y-112280201D01*
X139623882Y-112280199D01*
X139509311Y-112249500D01*
X139509309Y-112249500D01*
X139390691Y-112249500D01*
X139390689Y-112249500D01*
X139276117Y-112280199D01*
X139276112Y-112280201D01*
X139173390Y-112339508D01*
X139089508Y-112423390D01*
X139030201Y-112526112D01*
X139030199Y-112526117D01*
X138999500Y-112640688D01*
X127497119Y-112640688D01*
X127492894Y-112636214D01*
X127485489Y-112623387D01*
X127401613Y-112539511D01*
X127401559Y-112539479D01*
X127400447Y-112538302D01*
X127390710Y-112512745D01*
X127380253Y-112487499D01*
X127380689Y-112486444D01*
X127380283Y-112485376D01*
X127391467Y-112460424D01*
X127401925Y-112435176D01*
X127460489Y-112376613D01*
X127519799Y-112273886D01*
X127550499Y-112159311D01*
X127550500Y-112159311D01*
X127550500Y-112040689D01*
X127550499Y-112040688D01*
X127519800Y-111926117D01*
X127519798Y-111926112D01*
X127460491Y-111823390D01*
X127460490Y-111823389D01*
X127460489Y-111823387D01*
X127376613Y-111739511D01*
X127376610Y-111739509D01*
X127376609Y-111739508D01*
X127273887Y-111680201D01*
X127273882Y-111680199D01*
X127159311Y-111649500D01*
X127159309Y-111649500D01*
X127040691Y-111649500D01*
X127040689Y-111649500D01*
X126926117Y-111680199D01*
X126926112Y-111680201D01*
X126823390Y-111739508D01*
X126739508Y-111823390D01*
X126680201Y-111926112D01*
X126680199Y-111926117D01*
X126649500Y-112040688D01*
X126649500Y-112159311D01*
X126680199Y-112273882D01*
X126680201Y-112273887D01*
X126739508Y-112376609D01*
X126739509Y-112376610D01*
X126739511Y-112376613D01*
X126786285Y-112423387D01*
X126823072Y-112460174D01*
X126833415Y-112485145D01*
X126844692Y-112509682D01*
X126844150Y-112511062D01*
X126844746Y-112512500D01*
X126825026Y-112562795D01*
X126824054Y-112563843D01*
X126764511Y-112623387D01*
X126757283Y-112635904D01*
X126751632Y-112642004D01*
X126732879Y-112650622D01*
X126716500Y-112663189D01*
X126706904Y-112662559D01*
X126700170Y-112665655D01*
X126688561Y-112661356D01*
X126669034Y-112660076D01*
X126660011Y-112656338D01*
X126660001Y-112656335D01*
X126620154Y-112648409D01*
X126600500Y-112644500D01*
X125374500Y-112644500D01*
X125322174Y-112622826D01*
X125300500Y-112570500D01*
X125300500Y-109740688D01*
X135149500Y-109740688D01*
X135149500Y-109859311D01*
X135180199Y-109973882D01*
X135180201Y-109973887D01*
X135239508Y-110076609D01*
X135239509Y-110076610D01*
X135239511Y-110076613D01*
X135323387Y-110160489D01*
X135323389Y-110160490D01*
X135323390Y-110160491D01*
X135351307Y-110176609D01*
X135426114Y-110219799D01*
X135426115Y-110219799D01*
X135426117Y-110219800D01*
X135483402Y-110235149D01*
X135540688Y-110250499D01*
X135540689Y-110250500D01*
X135540691Y-110250500D01*
X135659311Y-110250500D01*
X135659311Y-110250499D01*
X135773886Y-110219799D01*
X135876613Y-110160489D01*
X135960489Y-110076613D01*
X136019799Y-109973886D01*
X136050499Y-109859311D01*
X136050500Y-109859311D01*
X136050500Y-109840688D01*
X139649500Y-109840688D01*
X139649500Y-109959311D01*
X139680199Y-110073882D01*
X139680201Y-110073887D01*
X139739508Y-110176609D01*
X139739509Y-110176610D01*
X139739511Y-110176613D01*
X139823387Y-110260489D01*
X139926114Y-110319799D01*
X139926115Y-110319799D01*
X139926117Y-110319800D01*
X139983402Y-110335149D01*
X140040688Y-110350499D01*
X140040689Y-110350500D01*
X140040691Y-110350500D01*
X140159311Y-110350500D01*
X140159311Y-110350499D01*
X140273886Y-110319799D01*
X140376613Y-110260489D01*
X140460489Y-110176613D01*
X140519799Y-110073886D01*
X140550499Y-109959311D01*
X140550500Y-109959311D01*
X140550500Y-109940688D01*
X141349500Y-109940688D01*
X141349500Y-110059311D01*
X141380199Y-110173882D01*
X141380201Y-110173887D01*
X141439508Y-110276609D01*
X141439509Y-110276610D01*
X141439511Y-110276613D01*
X141523387Y-110360489D01*
X141626114Y-110419799D01*
X141626115Y-110419799D01*
X141626117Y-110419800D01*
X141683402Y-110435149D01*
X141740688Y-110450499D01*
X141740689Y-110450500D01*
X141740691Y-110450500D01*
X141859311Y-110450500D01*
X141859311Y-110450499D01*
X141973886Y-110419799D01*
X142076613Y-110360489D01*
X142160489Y-110276613D01*
X142219799Y-110173886D01*
X142250499Y-110059311D01*
X142250500Y-110059311D01*
X142250500Y-109940689D01*
X142250499Y-109940688D01*
X142219800Y-109826117D01*
X142219798Y-109826112D01*
X142160491Y-109723390D01*
X142160490Y-109723389D01*
X142160489Y-109723387D01*
X142076613Y-109639511D01*
X142076610Y-109639509D01*
X142076609Y-109639508D01*
X141973887Y-109580201D01*
X141973882Y-109580199D01*
X141859311Y-109549500D01*
X141859309Y-109549500D01*
X141740691Y-109549500D01*
X141740689Y-109549500D01*
X141626117Y-109580199D01*
X141626112Y-109580201D01*
X141523390Y-109639508D01*
X141439508Y-109723390D01*
X141380201Y-109826112D01*
X141380199Y-109826117D01*
X141349500Y-109940688D01*
X140550500Y-109940688D01*
X140550500Y-109840689D01*
X140550499Y-109840688D01*
X140546593Y-109826112D01*
X140523705Y-109740691D01*
X140519800Y-109726117D01*
X140519798Y-109726112D01*
X140460491Y-109623390D01*
X140460490Y-109623389D01*
X140460489Y-109623387D01*
X140376613Y-109539511D01*
X140376610Y-109539509D01*
X140376609Y-109539508D01*
X140273887Y-109480201D01*
X140273882Y-109480199D01*
X140159311Y-109449500D01*
X140159309Y-109449500D01*
X140040691Y-109449500D01*
X140040689Y-109449500D01*
X139926117Y-109480199D01*
X139926112Y-109480201D01*
X139823390Y-109539508D01*
X139739508Y-109623390D01*
X139680201Y-109726112D01*
X139680199Y-109726117D01*
X139649500Y-109840688D01*
X136050500Y-109840688D01*
X136050500Y-109740689D01*
X136050499Y-109740688D01*
X136046593Y-109726112D01*
X136019799Y-109626114D01*
X135993290Y-109580199D01*
X135960491Y-109523390D01*
X135960490Y-109523389D01*
X135960489Y-109523387D01*
X135876613Y-109439511D01*
X135876610Y-109439509D01*
X135876609Y-109439508D01*
X135773887Y-109380201D01*
X135773882Y-109380199D01*
X135659311Y-109349500D01*
X135659309Y-109349500D01*
X135540691Y-109349500D01*
X135540689Y-109349500D01*
X135426117Y-109380199D01*
X135426112Y-109380201D01*
X135323390Y-109439508D01*
X135239508Y-109523390D01*
X135180201Y-109626112D01*
X135180199Y-109626117D01*
X135149500Y-109740688D01*
X125300500Y-109740688D01*
X125300500Y-107643751D01*
X125650000Y-107643751D01*
X125650000Y-107856248D01*
X125683241Y-108066123D01*
X125683244Y-108066136D01*
X125748904Y-108268217D01*
X125748906Y-108268221D01*
X125845375Y-108457550D01*
X125845378Y-108457556D01*
X125884728Y-108511716D01*
X126517037Y-107879407D01*
X126534075Y-107942993D01*
X126599901Y-108057007D01*
X126692993Y-108150099D01*
X126807007Y-108215925D01*
X126870590Y-108232962D01*
X126238282Y-108865270D01*
X126292449Y-108904624D01*
X126481778Y-109001093D01*
X126481782Y-109001095D01*
X126683863Y-109066755D01*
X126683876Y-109066758D01*
X126893751Y-109100000D01*
X127106249Y-109100000D01*
X127316123Y-109066758D01*
X127316136Y-109066755D01*
X127518217Y-109001095D01*
X127518221Y-109001093D01*
X127538642Y-108990688D01*
X148849500Y-108990688D01*
X148849500Y-109109311D01*
X148880199Y-109223882D01*
X148880201Y-109223887D01*
X148939508Y-109326609D01*
X148939509Y-109326610D01*
X148939511Y-109326613D01*
X149023387Y-109410489D01*
X149126114Y-109469799D01*
X149126115Y-109469799D01*
X149126117Y-109469800D01*
X149183402Y-109485149D01*
X149240688Y-109500499D01*
X149240689Y-109500500D01*
X149240691Y-109500500D01*
X149359311Y-109500500D01*
X149359311Y-109500499D01*
X149473886Y-109469799D01*
X149576613Y-109410489D01*
X149660489Y-109326613D01*
X149719799Y-109223886D01*
X149750499Y-109109311D01*
X149750500Y-109109311D01*
X149750500Y-108990689D01*
X149750499Y-108990688D01*
X149719800Y-108876117D01*
X149719798Y-108876112D01*
X149660491Y-108773390D01*
X149660490Y-108773389D01*
X149660489Y-108773387D01*
X149576613Y-108689511D01*
X149576610Y-108689509D01*
X149576609Y-108689508D01*
X149473887Y-108630201D01*
X149473882Y-108630199D01*
X149359311Y-108599500D01*
X149359309Y-108599500D01*
X149240691Y-108599500D01*
X149240689Y-108599500D01*
X149126117Y-108630199D01*
X149126112Y-108630201D01*
X149023390Y-108689508D01*
X148939508Y-108773390D01*
X148880201Y-108876112D01*
X148880199Y-108876117D01*
X148849500Y-108990688D01*
X127538642Y-108990688D01*
X127677558Y-108919907D01*
X127707554Y-108904623D01*
X127707561Y-108904618D01*
X127761716Y-108865270D01*
X127761717Y-108865270D01*
X127129409Y-108232962D01*
X127192993Y-108215925D01*
X127307007Y-108150099D01*
X127400099Y-108057007D01*
X127465925Y-107942993D01*
X127482962Y-107879409D01*
X128115270Y-108511717D01*
X128115270Y-108511716D01*
X128154618Y-108457561D01*
X128154623Y-108457554D01*
X128251093Y-108268221D01*
X128251095Y-108268216D01*
X128292532Y-108140688D01*
X135949500Y-108140688D01*
X135949500Y-108259311D01*
X135980199Y-108373882D01*
X135980201Y-108373887D01*
X136039508Y-108476609D01*
X136039509Y-108476610D01*
X136039511Y-108476613D01*
X136123387Y-108560489D01*
X136226114Y-108619799D01*
X136226115Y-108619799D01*
X136226117Y-108619800D01*
X136283402Y-108635149D01*
X136340688Y-108650499D01*
X136340689Y-108650500D01*
X136340691Y-108650500D01*
X136459311Y-108650500D01*
X136459311Y-108650499D01*
X136573886Y-108619799D01*
X136676613Y-108560489D01*
X136760489Y-108476613D01*
X136819799Y-108373886D01*
X136850499Y-108259311D01*
X136850500Y-108259311D01*
X136850500Y-108140689D01*
X136850499Y-108140688D01*
X136819800Y-108026117D01*
X136819798Y-108026112D01*
X136791380Y-107976891D01*
X136760491Y-107923390D01*
X136760490Y-107923389D01*
X136760489Y-107923387D01*
X136757101Y-107919999D01*
X153750136Y-107919999D01*
X153750137Y-107920000D01*
X154553012Y-107920000D01*
X154535795Y-107929940D01*
X154479940Y-107985795D01*
X154440444Y-108054204D01*
X154420000Y-108130504D01*
X154420000Y-108209496D01*
X154440444Y-108285796D01*
X154479940Y-108354205D01*
X154535795Y-108410060D01*
X154553012Y-108420000D01*
X153750137Y-108420000D01*
X153758427Y-108461682D01*
X153758430Y-108461693D01*
X153833809Y-108643675D01*
X153943246Y-108807459D01*
X154082540Y-108946753D01*
X154246324Y-109056190D01*
X154428306Y-109131569D01*
X154428317Y-109131572D01*
X154621510Y-109170000D01*
X155020000Y-109170000D01*
X155020000Y-108470000D01*
X155520000Y-108470000D01*
X155520000Y-109170000D01*
X155918490Y-109170000D01*
X156111682Y-109131572D01*
X156111693Y-109131569D01*
X156293675Y-109056190D01*
X156457459Y-108946753D01*
X156596753Y-108807459D01*
X156706190Y-108643675D01*
X156781569Y-108461693D01*
X156781572Y-108461682D01*
X156789863Y-108420000D01*
X155986988Y-108420000D01*
X156004205Y-108410060D01*
X156060060Y-108354205D01*
X156099556Y-108285796D01*
X156120000Y-108209496D01*
X156120000Y-108130504D01*
X156099556Y-108054204D01*
X156060060Y-107985795D01*
X156004205Y-107929940D01*
X155986988Y-107920000D01*
X156789863Y-107920000D01*
X156789863Y-107919999D01*
X156781572Y-107878317D01*
X156781569Y-107878306D01*
X156706190Y-107696324D01*
X156596753Y-107532540D01*
X156457459Y-107393246D01*
X156293677Y-107283810D01*
X156237880Y-107260698D01*
X156197832Y-107220649D01*
X156197832Y-107164012D01*
X156213871Y-107140008D01*
X156260515Y-107093365D01*
X156336281Y-106962135D01*
X156375499Y-106815768D01*
X156375500Y-106815768D01*
X156375500Y-106664232D01*
X156375499Y-106664231D01*
X156357049Y-106595375D01*
X156336281Y-106517865D01*
X156260515Y-106386635D01*
X156153365Y-106279485D01*
X156057067Y-106223887D01*
X156022139Y-106203721D01*
X156022130Y-106203717D01*
X155875768Y-106164500D01*
X155875766Y-106164500D01*
X155724234Y-106164500D01*
X155724232Y-106164500D01*
X155577869Y-106203717D01*
X155577860Y-106203721D01*
X155446637Y-106279483D01*
X155339483Y-106386637D01*
X155263721Y-106517860D01*
X155263717Y-106517869D01*
X155224500Y-106664231D01*
X155224500Y-106815768D01*
X155263717Y-106962130D01*
X155263721Y-106962139D01*
X155278815Y-106988282D01*
X155339485Y-107093365D01*
X155446635Y-107200515D01*
X155483000Y-107221510D01*
X155517478Y-107266443D01*
X155520000Y-107285596D01*
X155520000Y-107870000D01*
X155020000Y-107870000D01*
X155020000Y-107170000D01*
X154621510Y-107170000D01*
X154428317Y-107208427D01*
X154428306Y-107208430D01*
X154246324Y-107283809D01*
X154082540Y-107393246D01*
X153943246Y-107532540D01*
X153833809Y-107696324D01*
X153758430Y-107878306D01*
X153758427Y-107878317D01*
X153750136Y-107919999D01*
X136757101Y-107919999D01*
X136676613Y-107839511D01*
X136676610Y-107839509D01*
X136676609Y-107839508D01*
X136573887Y-107780201D01*
X136573882Y-107780199D01*
X136459311Y-107749500D01*
X136459309Y-107749500D01*
X136340691Y-107749500D01*
X136340689Y-107749500D01*
X136226117Y-107780199D01*
X136226112Y-107780201D01*
X136123390Y-107839508D01*
X136039508Y-107923390D01*
X135980201Y-108026112D01*
X135980199Y-108026117D01*
X135949500Y-108140688D01*
X128292532Y-108140688D01*
X128301537Y-108112974D01*
X128316755Y-108066136D01*
X128316758Y-108066123D01*
X128350000Y-107856248D01*
X128350000Y-107643751D01*
X128316758Y-107433876D01*
X128316755Y-107433863D01*
X128251095Y-107231782D01*
X128251093Y-107231778D01*
X128193853Y-107119439D01*
X128193852Y-107119437D01*
X128179203Y-107090688D01*
X134949500Y-107090688D01*
X134949500Y-107209311D01*
X134980199Y-107323882D01*
X134980201Y-107323887D01*
X135039508Y-107426609D01*
X135039509Y-107426610D01*
X135039511Y-107426613D01*
X135123387Y-107510489D01*
X135123389Y-107510490D01*
X135123390Y-107510491D01*
X135226112Y-107569798D01*
X135226114Y-107569799D01*
X135226115Y-107569799D01*
X135226117Y-107569800D01*
X135283402Y-107585149D01*
X135340688Y-107600499D01*
X135340689Y-107600500D01*
X135340691Y-107600500D01*
X135459311Y-107600500D01*
X135459311Y-107600499D01*
X135573886Y-107569799D01*
X135676613Y-107510489D01*
X135760489Y-107426613D01*
X135819799Y-107323886D01*
X135850499Y-107209311D01*
X135850500Y-107209311D01*
X135850500Y-107090689D01*
X135850499Y-107090688D01*
X135819800Y-106976117D01*
X135819798Y-106976112D01*
X135760491Y-106873390D01*
X135760490Y-106873389D01*
X135760489Y-106873387D01*
X135676613Y-106789511D01*
X135676610Y-106789509D01*
X135676609Y-106789508D01*
X135636576Y-106766395D01*
X147475207Y-106766395D01*
X147475207Y-106885018D01*
X147505906Y-106999589D01*
X147505908Y-106999594D01*
X147565215Y-107102316D01*
X147565216Y-107102317D01*
X147565218Y-107102320D01*
X147649094Y-107186196D01*
X147649096Y-107186197D01*
X147649097Y-107186198D01*
X147751819Y-107245505D01*
X147751821Y-107245506D01*
X147751822Y-107245506D01*
X147751824Y-107245507D01*
X147808518Y-107260698D01*
X147866395Y-107276206D01*
X147866396Y-107276207D01*
X147866398Y-107276207D01*
X147985018Y-107276207D01*
X147985018Y-107276206D01*
X148099593Y-107245506D01*
X148202320Y-107186196D01*
X148286196Y-107102320D01*
X148345506Y-106999593D01*
X148376206Y-106885018D01*
X148376207Y-106885018D01*
X148376207Y-106766396D01*
X148376206Y-106766395D01*
X148354328Y-106684745D01*
X148345506Y-106651821D01*
X148312291Y-106594293D01*
X148310907Y-106591313D01*
X148309836Y-106566047D01*
X148306535Y-106540973D01*
X148308656Y-106538208D01*
X148308509Y-106534727D01*
X148325616Y-106516105D01*
X148341014Y-106496040D01*
X148344469Y-106495585D01*
X148346827Y-106493019D01*
X148372092Y-106491948D01*
X148397163Y-106488647D01*
X148423055Y-106495585D01*
X148441397Y-106500500D01*
X148441398Y-106500500D01*
X148560018Y-106500500D01*
X148560018Y-106500499D01*
X148674593Y-106469799D01*
X148777320Y-106410489D01*
X148861196Y-106326613D01*
X148920506Y-106223886D01*
X148951206Y-106109311D01*
X148951207Y-106109311D01*
X148951207Y-105990689D01*
X148951206Y-105990688D01*
X148920507Y-105876117D01*
X148920505Y-105876112D01*
X148861198Y-105773390D01*
X148861197Y-105773389D01*
X148861196Y-105773387D01*
X148777320Y-105689511D01*
X148777317Y-105689509D01*
X148777316Y-105689508D01*
X148674594Y-105630201D01*
X148674589Y-105630199D01*
X148560018Y-105599500D01*
X148560016Y-105599500D01*
X148441398Y-105599500D01*
X148441396Y-105599500D01*
X148326824Y-105630199D01*
X148326819Y-105630201D01*
X148224097Y-105689508D01*
X148140215Y-105773390D01*
X148080908Y-105876112D01*
X148080906Y-105876117D01*
X148050207Y-105990688D01*
X148050207Y-106109311D01*
X148080906Y-106223882D01*
X148080909Y-106223888D01*
X148112485Y-106278580D01*
X148119877Y-106334733D01*
X148085399Y-106379666D01*
X148029246Y-106387058D01*
X147985018Y-106375207D01*
X147985016Y-106375207D01*
X147866398Y-106375207D01*
X147866396Y-106375207D01*
X147751824Y-106405906D01*
X147751819Y-106405908D01*
X147649097Y-106465215D01*
X147565215Y-106549097D01*
X147505908Y-106651819D01*
X147505906Y-106651824D01*
X147475207Y-106766395D01*
X135636576Y-106766395D01*
X135573887Y-106730201D01*
X135573882Y-106730199D01*
X135459311Y-106699500D01*
X135459309Y-106699500D01*
X135340691Y-106699500D01*
X135340689Y-106699500D01*
X135226117Y-106730199D01*
X135226112Y-106730201D01*
X135123390Y-106789508D01*
X135039508Y-106873390D01*
X134980201Y-106976112D01*
X134980199Y-106976117D01*
X134949500Y-107090688D01*
X128179203Y-107090688D01*
X128154623Y-107042447D01*
X128115269Y-106988282D01*
X127482962Y-107620590D01*
X127465925Y-107557007D01*
X127400099Y-107442993D01*
X127307007Y-107349901D01*
X127192993Y-107284075D01*
X127129407Y-107267037D01*
X127761716Y-106634728D01*
X127707556Y-106595378D01*
X127707550Y-106595375D01*
X127518221Y-106498906D01*
X127518217Y-106498904D01*
X127316136Y-106433244D01*
X127316123Y-106433241D01*
X127106249Y-106400000D01*
X126893751Y-106400000D01*
X126683876Y-106433241D01*
X126683863Y-106433244D01*
X126481785Y-106498903D01*
X126292450Y-106595374D01*
X126238282Y-106634729D01*
X126870590Y-107267037D01*
X126807007Y-107284075D01*
X126692993Y-107349901D01*
X126599901Y-107442993D01*
X126534075Y-107557007D01*
X126517037Y-107620590D01*
X125884729Y-106988282D01*
X125845374Y-107042450D01*
X125748903Y-107231785D01*
X125683244Y-107433863D01*
X125683241Y-107433876D01*
X125650000Y-107643751D01*
X125300500Y-107643751D01*
X125300500Y-105111460D01*
X125999500Y-105111460D01*
X125999500Y-105308539D01*
X126037947Y-105501829D01*
X126037950Y-105501839D01*
X126113367Y-105683913D01*
X126117108Y-105689511D01*
X126222861Y-105847782D01*
X126362218Y-105987139D01*
X126526086Y-106096632D01*
X126708165Y-106172051D01*
X126901459Y-106210500D01*
X126901461Y-106210500D01*
X127098539Y-106210500D01*
X127098541Y-106210500D01*
X127291835Y-106172051D01*
X127473914Y-106096632D01*
X127637782Y-105987139D01*
X127777139Y-105847782D01*
X127886632Y-105683914D01*
X127962051Y-105501835D01*
X128000500Y-105308541D01*
X128000500Y-105150688D01*
X130299500Y-105150688D01*
X130299500Y-105269311D01*
X130330199Y-105383882D01*
X130330201Y-105383887D01*
X130389508Y-105486609D01*
X130389509Y-105486610D01*
X130389511Y-105486613D01*
X130473387Y-105570489D01*
X130576114Y-105629799D01*
X130576115Y-105629799D01*
X130576117Y-105629800D01*
X130577614Y-105630201D01*
X130690688Y-105660499D01*
X130690689Y-105660500D01*
X130690691Y-105660500D01*
X130809311Y-105660500D01*
X130809311Y-105660499D01*
X130923886Y-105629799D01*
X131026613Y-105570489D01*
X131110489Y-105486613D01*
X131169799Y-105383886D01*
X131200499Y-105269311D01*
X131200500Y-105269311D01*
X131200500Y-105150689D01*
X131200499Y-105150688D01*
X131169800Y-105036117D01*
X131169798Y-105036112D01*
X131133268Y-104972841D01*
X131114704Y-104940688D01*
X148449500Y-104940688D01*
X148449500Y-105059311D01*
X148480199Y-105173882D01*
X148480201Y-105173887D01*
X148539508Y-105276609D01*
X148539509Y-105276610D01*
X148539511Y-105276613D01*
X148623387Y-105360489D01*
X148726114Y-105419799D01*
X148726115Y-105419799D01*
X148726117Y-105419800D01*
X148783402Y-105435149D01*
X148840688Y-105450499D01*
X148840689Y-105450500D01*
X148840691Y-105450500D01*
X148959311Y-105450500D01*
X148959311Y-105450499D01*
X149073886Y-105419799D01*
X149176613Y-105360489D01*
X149260489Y-105276613D01*
X149319799Y-105173886D01*
X149350499Y-105059311D01*
X149350500Y-105059311D01*
X149350500Y-104940689D01*
X149350499Y-104940688D01*
X149319800Y-104826117D01*
X149319798Y-104826112D01*
X149260491Y-104723390D01*
X149260490Y-104723389D01*
X149260489Y-104723387D01*
X149176613Y-104639511D01*
X149176610Y-104639509D01*
X149176609Y-104639508D01*
X149092051Y-104590688D01*
X151249500Y-104590688D01*
X151249500Y-104709311D01*
X151280199Y-104823882D01*
X151280201Y-104823887D01*
X151339508Y-104926609D01*
X151339509Y-104926610D01*
X151339511Y-104926613D01*
X151423387Y-105010489D01*
X151423389Y-105010490D01*
X151423390Y-105010491D01*
X151507945Y-105059309D01*
X151526114Y-105069799D01*
X151526115Y-105069799D01*
X151526117Y-105069800D01*
X151583402Y-105085149D01*
X151640688Y-105100499D01*
X151640689Y-105100500D01*
X151640691Y-105100500D01*
X151759311Y-105100500D01*
X151759311Y-105100499D01*
X151873886Y-105069799D01*
X151976613Y-105010489D01*
X152060489Y-104926613D01*
X152119799Y-104823886D01*
X152150499Y-104709311D01*
X152150500Y-104709311D01*
X152150500Y-104590689D01*
X152150499Y-104590688D01*
X152147688Y-104580199D01*
X152119799Y-104476114D01*
X152076143Y-104400500D01*
X152060491Y-104373390D01*
X152060490Y-104373389D01*
X152060489Y-104373387D01*
X151976613Y-104289511D01*
X151976610Y-104289509D01*
X151976609Y-104289508D01*
X151873887Y-104230201D01*
X151873882Y-104230199D01*
X151759311Y-104199500D01*
X151759309Y-104199500D01*
X151640691Y-104199500D01*
X151640689Y-104199500D01*
X151526117Y-104230199D01*
X151526112Y-104230201D01*
X151423390Y-104289508D01*
X151339508Y-104373390D01*
X151280201Y-104476112D01*
X151280199Y-104476117D01*
X151249500Y-104590688D01*
X149092051Y-104590688D01*
X149073887Y-104580201D01*
X149073882Y-104580199D01*
X148959311Y-104549500D01*
X148959309Y-104549500D01*
X148840691Y-104549500D01*
X148840689Y-104549500D01*
X148726117Y-104580199D01*
X148726112Y-104580201D01*
X148623390Y-104639508D01*
X148539508Y-104723390D01*
X148480201Y-104826112D01*
X148480199Y-104826117D01*
X148449500Y-104940688D01*
X131114704Y-104940688D01*
X131110491Y-104933390D01*
X131110490Y-104933389D01*
X131110489Y-104933387D01*
X131026613Y-104849511D01*
X131026610Y-104849509D01*
X131026609Y-104849508D01*
X130923887Y-104790201D01*
X130923882Y-104790199D01*
X130809311Y-104759500D01*
X130809309Y-104759500D01*
X130690691Y-104759500D01*
X130690689Y-104759500D01*
X130576117Y-104790199D01*
X130576112Y-104790201D01*
X130473390Y-104849508D01*
X130389508Y-104933390D01*
X130330201Y-105036112D01*
X130330199Y-105036117D01*
X130299500Y-105150688D01*
X128000500Y-105150688D01*
X128000500Y-105111459D01*
X127962051Y-104918165D01*
X127886632Y-104736086D01*
X127777139Y-104572218D01*
X127637782Y-104432861D01*
X127589351Y-104400500D01*
X127473913Y-104323367D01*
X127291839Y-104247950D01*
X127291829Y-104247947D01*
X127162388Y-104222200D01*
X127098541Y-104209500D01*
X126901459Y-104209500D01*
X126846662Y-104220399D01*
X126708170Y-104247947D01*
X126708160Y-104247950D01*
X126526086Y-104323367D01*
X126362218Y-104432860D01*
X126362217Y-104432862D01*
X126222862Y-104572217D01*
X126222860Y-104572218D01*
X126113367Y-104736086D01*
X126037950Y-104918160D01*
X126037947Y-104918170D01*
X125999500Y-105111460D01*
X125300500Y-105111460D01*
X125300500Y-103890688D01*
X144349500Y-103890688D01*
X144349500Y-104009311D01*
X144380199Y-104123882D01*
X144380201Y-104123887D01*
X144439508Y-104226609D01*
X144439509Y-104226610D01*
X144439511Y-104226613D01*
X144523387Y-104310489D01*
X144523389Y-104310490D01*
X144523390Y-104310491D01*
X144626112Y-104369798D01*
X144626114Y-104369799D01*
X144626115Y-104369799D01*
X144626117Y-104369800D01*
X144683402Y-104385149D01*
X144740688Y-104400499D01*
X144740689Y-104400500D01*
X144740691Y-104400500D01*
X144859311Y-104400500D01*
X144859311Y-104400499D01*
X144973886Y-104369799D01*
X145076613Y-104310489D01*
X145160489Y-104226613D01*
X145219799Y-104123886D01*
X145250499Y-104009311D01*
X145250500Y-104009311D01*
X145250500Y-103890689D01*
X145250499Y-103890688D01*
X145227538Y-103804994D01*
X145223705Y-103790688D01*
X148399500Y-103790688D01*
X148399500Y-103909311D01*
X148430199Y-104023882D01*
X148430201Y-104023887D01*
X148489508Y-104126609D01*
X148489509Y-104126610D01*
X148489511Y-104126613D01*
X148573387Y-104210489D01*
X148573389Y-104210490D01*
X148573390Y-104210491D01*
X148676112Y-104269798D01*
X148676114Y-104269799D01*
X148676115Y-104269799D01*
X148676117Y-104269800D01*
X148733402Y-104285149D01*
X148790688Y-104300499D01*
X148790689Y-104300500D01*
X148790691Y-104300500D01*
X148909311Y-104300500D01*
X148909311Y-104300499D01*
X149023886Y-104269799D01*
X149126613Y-104210489D01*
X149210489Y-104126613D01*
X149269799Y-104023886D01*
X149300499Y-103909311D01*
X149300500Y-103909311D01*
X149300500Y-103790689D01*
X149300499Y-103790688D01*
X149296593Y-103776112D01*
X149269799Y-103676114D01*
X149244358Y-103632049D01*
X149210491Y-103573390D01*
X149210490Y-103573389D01*
X149210489Y-103573387D01*
X149126613Y-103489511D01*
X149126610Y-103489509D01*
X149126609Y-103489508D01*
X149023887Y-103430201D01*
X149023882Y-103430199D01*
X148909311Y-103399500D01*
X148909309Y-103399500D01*
X148790691Y-103399500D01*
X148790689Y-103399500D01*
X148676117Y-103430199D01*
X148676112Y-103430201D01*
X148573390Y-103489508D01*
X148489508Y-103573390D01*
X148430201Y-103676112D01*
X148430199Y-103676117D01*
X148399500Y-103790688D01*
X145223705Y-103790688D01*
X145219800Y-103776117D01*
X145219798Y-103776112D01*
X145160491Y-103673390D01*
X145160490Y-103673389D01*
X145160489Y-103673387D01*
X145076613Y-103589511D01*
X145076610Y-103589509D01*
X145076609Y-103589508D01*
X144973887Y-103530201D01*
X144973882Y-103530199D01*
X144859311Y-103499500D01*
X144859309Y-103499500D01*
X144740691Y-103499500D01*
X144740689Y-103499500D01*
X144626117Y-103530199D01*
X144626112Y-103530201D01*
X144523390Y-103589508D01*
X144439508Y-103673390D01*
X144380201Y-103776112D01*
X144380199Y-103776117D01*
X144349500Y-103890688D01*
X125300500Y-103890688D01*
X125300500Y-102571460D01*
X125999500Y-102571460D01*
X125999500Y-102768539D01*
X126037947Y-102961829D01*
X126037950Y-102961839D01*
X126113367Y-103143913D01*
X126222860Y-103307781D01*
X126362218Y-103447139D01*
X126526086Y-103556632D01*
X126605463Y-103589511D01*
X126708165Y-103632051D01*
X126901459Y-103670500D01*
X126901461Y-103670500D01*
X127098539Y-103670500D01*
X127098541Y-103670500D01*
X127291835Y-103632051D01*
X127473914Y-103556632D01*
X127637782Y-103447139D01*
X127777139Y-103307782D01*
X127886632Y-103143914D01*
X127962051Y-102961835D01*
X128000500Y-102768541D01*
X128000500Y-102610688D01*
X130299500Y-102610688D01*
X130299500Y-102729311D01*
X130330199Y-102843882D01*
X130330201Y-102843887D01*
X130389508Y-102946609D01*
X130389509Y-102946610D01*
X130389511Y-102946613D01*
X130473387Y-103030489D01*
X130576114Y-103089799D01*
X130576115Y-103089799D01*
X130576117Y-103089800D01*
X130633402Y-103105149D01*
X130690688Y-103120499D01*
X130690689Y-103120500D01*
X130690691Y-103120500D01*
X130809311Y-103120500D01*
X130809311Y-103120499D01*
X130923886Y-103089799D01*
X131026613Y-103030489D01*
X131110489Y-102946613D01*
X131169799Y-102843886D01*
X131200499Y-102729311D01*
X131200500Y-102729311D01*
X131200500Y-102610689D01*
X131200499Y-102610688D01*
X131169800Y-102496117D01*
X131169798Y-102496112D01*
X131110491Y-102393390D01*
X131110490Y-102393389D01*
X131110489Y-102393387D01*
X131026613Y-102309511D01*
X131026610Y-102309509D01*
X131026609Y-102309508D01*
X130923887Y-102250201D01*
X130923882Y-102250199D01*
X130809311Y-102219500D01*
X130809309Y-102219500D01*
X130690691Y-102219500D01*
X130690689Y-102219500D01*
X130576117Y-102250199D01*
X130576112Y-102250201D01*
X130473390Y-102309508D01*
X130389508Y-102393390D01*
X130330201Y-102496112D01*
X130330199Y-102496117D01*
X130299500Y-102610688D01*
X128000500Y-102610688D01*
X128000500Y-102571459D01*
X127962051Y-102378165D01*
X127939568Y-102323887D01*
X127886632Y-102196086D01*
X127840439Y-102126953D01*
X127816207Y-102090688D01*
X144349500Y-102090688D01*
X144349500Y-102209311D01*
X144380199Y-102323882D01*
X144380201Y-102323887D01*
X144439508Y-102426609D01*
X144439509Y-102426610D01*
X144439511Y-102426613D01*
X144523387Y-102510489D01*
X144626114Y-102569799D01*
X144626115Y-102569799D01*
X144626117Y-102569800D01*
X144683402Y-102585149D01*
X144740688Y-102600499D01*
X144740689Y-102600500D01*
X144740691Y-102600500D01*
X144859311Y-102600500D01*
X144859311Y-102600499D01*
X144973886Y-102569799D01*
X145076613Y-102510489D01*
X145160489Y-102426613D01*
X145219799Y-102323886D01*
X145250499Y-102209311D01*
X145250500Y-102209311D01*
X145250500Y-102090689D01*
X145250499Y-102090688D01*
X145219800Y-101976117D01*
X145219798Y-101976112D01*
X145160491Y-101873390D01*
X145160490Y-101873389D01*
X145160489Y-101873387D01*
X145076613Y-101789511D01*
X145076610Y-101789509D01*
X145076609Y-101789508D01*
X144973887Y-101730201D01*
X144973882Y-101730199D01*
X144859311Y-101699500D01*
X144859309Y-101699500D01*
X144740691Y-101699500D01*
X144740689Y-101699500D01*
X144626117Y-101730199D01*
X144626112Y-101730201D01*
X144523390Y-101789508D01*
X144439508Y-101873390D01*
X144380201Y-101976112D01*
X144380199Y-101976117D01*
X144349500Y-102090688D01*
X127816207Y-102090688D01*
X127777139Y-102032218D01*
X127637781Y-101892860D01*
X127473913Y-101783367D01*
X127291839Y-101707950D01*
X127291829Y-101707947D01*
X127162388Y-101682200D01*
X127098541Y-101669500D01*
X126901459Y-101669500D01*
X126846662Y-101680399D01*
X126708170Y-101707947D01*
X126708160Y-101707950D01*
X126526086Y-101783367D01*
X126362218Y-101892860D01*
X126362217Y-101892862D01*
X126222862Y-102032217D01*
X126222860Y-102032218D01*
X126113367Y-102196086D01*
X126037950Y-102378160D01*
X126037947Y-102378170D01*
X126011628Y-102510489D01*
X125999831Y-102569798D01*
X125999500Y-102571460D01*
X125300500Y-102571460D01*
X125300500Y-99265180D01*
X125999500Y-99265180D01*
X125999500Y-100994820D01*
X126008233Y-101038722D01*
X126041496Y-101088504D01*
X126091278Y-101121767D01*
X126135180Y-101130500D01*
X126135181Y-101130500D01*
X127864819Y-101130500D01*
X127864820Y-101130500D01*
X127908722Y-101121767D01*
X127958504Y-101088504D01*
X127991767Y-101038722D01*
X128000500Y-100994820D01*
X128000500Y-100990688D01*
X140749500Y-100990688D01*
X140749500Y-101109311D01*
X140780199Y-101223882D01*
X140780201Y-101223887D01*
X140839508Y-101326609D01*
X140839509Y-101326610D01*
X140839511Y-101326613D01*
X140923387Y-101410489D01*
X141026114Y-101469799D01*
X141026115Y-101469799D01*
X141026117Y-101469800D01*
X141083402Y-101485149D01*
X141140688Y-101500499D01*
X141140689Y-101500500D01*
X141140691Y-101500500D01*
X141259311Y-101500500D01*
X141259311Y-101500499D01*
X141373886Y-101469799D01*
X141476613Y-101410489D01*
X141560489Y-101326613D01*
X141619799Y-101223886D01*
X141650499Y-101109311D01*
X141650500Y-101109311D01*
X141650500Y-100990689D01*
X141650499Y-100990688D01*
X143099500Y-100990688D01*
X143099500Y-101109311D01*
X143130199Y-101223882D01*
X143130201Y-101223887D01*
X143189508Y-101326609D01*
X143189509Y-101326610D01*
X143189511Y-101326613D01*
X143273387Y-101410489D01*
X143376114Y-101469799D01*
X143376115Y-101469799D01*
X143376117Y-101469800D01*
X143433402Y-101485149D01*
X143490688Y-101500499D01*
X143490689Y-101500500D01*
X143490691Y-101500500D01*
X143609311Y-101500500D01*
X143609311Y-101500499D01*
X143723886Y-101469799D01*
X143826613Y-101410489D01*
X143910489Y-101326613D01*
X143969799Y-101223886D01*
X144000499Y-101109311D01*
X144000500Y-101109311D01*
X144000500Y-100990689D01*
X144000499Y-100990688D01*
X143975808Y-100898537D01*
X143971974Y-100884231D01*
X143969799Y-100876114D01*
X143910489Y-100773387D01*
X143826613Y-100689511D01*
X143826610Y-100689509D01*
X143826609Y-100689508D01*
X143723887Y-100630201D01*
X143723882Y-100630199D01*
X143609311Y-100599500D01*
X143609309Y-100599500D01*
X143490691Y-100599500D01*
X143490689Y-100599500D01*
X143376117Y-100630199D01*
X143376112Y-100630201D01*
X143273390Y-100689508D01*
X143189508Y-100773390D01*
X143130201Y-100876112D01*
X143130199Y-100876117D01*
X143099500Y-100990688D01*
X141650499Y-100990688D01*
X141619800Y-100876117D01*
X141619798Y-100876112D01*
X141560491Y-100773390D01*
X141560490Y-100773389D01*
X141560489Y-100773387D01*
X141476613Y-100689511D01*
X141476610Y-100689509D01*
X141476609Y-100689508D01*
X141373887Y-100630201D01*
X141373882Y-100630199D01*
X141259311Y-100599500D01*
X141259309Y-100599500D01*
X141140691Y-100599500D01*
X141140689Y-100599500D01*
X141026117Y-100630199D01*
X141026112Y-100630201D01*
X140923390Y-100689508D01*
X140839508Y-100773390D01*
X140780201Y-100876112D01*
X140780199Y-100876117D01*
X140749500Y-100990688D01*
X128000500Y-100990688D01*
X128000500Y-99279999D01*
X153750136Y-99279999D01*
X153750137Y-99280000D01*
X154553012Y-99280000D01*
X154535795Y-99289940D01*
X154479940Y-99345795D01*
X154440444Y-99414204D01*
X154420000Y-99490504D01*
X154420000Y-99569496D01*
X154440444Y-99645796D01*
X154479940Y-99714205D01*
X154535795Y-99770060D01*
X154553012Y-99780000D01*
X153750137Y-99780000D01*
X153758427Y-99821682D01*
X153758430Y-99821693D01*
X153833809Y-100003675D01*
X153943246Y-100167459D01*
X154082540Y-100306753D01*
X154246324Y-100416190D01*
X154428306Y-100491569D01*
X154428317Y-100491572D01*
X154621510Y-100530000D01*
X155020000Y-100530000D01*
X155020000Y-99830000D01*
X155520000Y-99830000D01*
X155520000Y-100414403D01*
X155498326Y-100466729D01*
X155483000Y-100478489D01*
X155446638Y-100499482D01*
X155339483Y-100606637D01*
X155263721Y-100737860D01*
X155263717Y-100737869D01*
X155224500Y-100884231D01*
X155224500Y-101035768D01*
X155263717Y-101182130D01*
X155263721Y-101182139D01*
X155339483Y-101313362D01*
X155339485Y-101313365D01*
X155446635Y-101420515D01*
X155577865Y-101496281D01*
X155724231Y-101535499D01*
X155724232Y-101535500D01*
X155724234Y-101535500D01*
X155875768Y-101535500D01*
X155875768Y-101535499D01*
X156022135Y-101496281D01*
X156153365Y-101420515D01*
X156260515Y-101313365D01*
X156336281Y-101182135D01*
X156375499Y-101035768D01*
X156375500Y-101035768D01*
X156375500Y-100884232D01*
X156375499Y-100884231D01*
X156336282Y-100737869D01*
X156336281Y-100737865D01*
X156260515Y-100606635D01*
X156213871Y-100559991D01*
X156192198Y-100507667D01*
X156213872Y-100455341D01*
X156237881Y-100439299D01*
X156293675Y-100416189D01*
X156457459Y-100306753D01*
X156596753Y-100167459D01*
X156706190Y-100003675D01*
X156781569Y-99821693D01*
X156781572Y-99821682D01*
X156789863Y-99780000D01*
X155986988Y-99780000D01*
X156004205Y-99770060D01*
X156060060Y-99714205D01*
X156099556Y-99645796D01*
X156120000Y-99569496D01*
X156120000Y-99490504D01*
X156099556Y-99414204D01*
X156060060Y-99345795D01*
X156004205Y-99289940D01*
X155986988Y-99280000D01*
X156789863Y-99280000D01*
X156789863Y-99279999D01*
X156781572Y-99238317D01*
X156781569Y-99238306D01*
X156706190Y-99056324D01*
X156596753Y-98892540D01*
X156457459Y-98753246D01*
X156293675Y-98643809D01*
X156111693Y-98568430D01*
X156111682Y-98568427D01*
X155918490Y-98530000D01*
X155520000Y-98530000D01*
X155520000Y-99230000D01*
X155020000Y-99230000D01*
X155020000Y-98530000D01*
X154621510Y-98530000D01*
X154428317Y-98568427D01*
X154428306Y-98568430D01*
X154246324Y-98643809D01*
X154082540Y-98753246D01*
X153943246Y-98892540D01*
X153833809Y-99056324D01*
X153758430Y-99238306D01*
X153758427Y-99238317D01*
X153750136Y-99279999D01*
X128000500Y-99279999D01*
X128000500Y-99265180D01*
X127991767Y-99221278D01*
X127958504Y-99171496D01*
X127908722Y-99138233D01*
X127864820Y-99129500D01*
X126135180Y-99129500D01*
X126113229Y-99133866D01*
X126091277Y-99138233D01*
X126041496Y-99171495D01*
X126041495Y-99171496D01*
X126008233Y-99221277D01*
X126002431Y-99250444D01*
X125999500Y-99265180D01*
X125300500Y-99265180D01*
X125300500Y-98490688D01*
X146099500Y-98490688D01*
X146099500Y-98609311D01*
X146130199Y-98723882D01*
X146130201Y-98723887D01*
X146189508Y-98826609D01*
X146189509Y-98826610D01*
X146189511Y-98826613D01*
X146273387Y-98910489D01*
X146273389Y-98910490D01*
X146273390Y-98910491D01*
X146358196Y-98959454D01*
X146376114Y-98969799D01*
X146376115Y-98969799D01*
X146376117Y-98969800D01*
X146418394Y-98981128D01*
X146490688Y-99000499D01*
X146490689Y-99000500D01*
X146490691Y-99000500D01*
X146609311Y-99000500D01*
X146609311Y-99000499D01*
X146723886Y-98969799D01*
X146826613Y-98910489D01*
X146910489Y-98826613D01*
X146969799Y-98723886D01*
X147000499Y-98609311D01*
X147000500Y-98609311D01*
X147000500Y-98490689D01*
X147000499Y-98490688D01*
X146969800Y-98376117D01*
X146969798Y-98376112D01*
X146910491Y-98273390D01*
X146910490Y-98273389D01*
X146910489Y-98273387D01*
X146826613Y-98189511D01*
X146826610Y-98189509D01*
X146826609Y-98189508D01*
X146723887Y-98130201D01*
X146723882Y-98130199D01*
X146609311Y-98099500D01*
X146609309Y-98099500D01*
X146490691Y-98099500D01*
X146490689Y-98099500D01*
X146376117Y-98130199D01*
X146376112Y-98130201D01*
X146273390Y-98189508D01*
X146189508Y-98273390D01*
X146130201Y-98376112D01*
X146130199Y-98376117D01*
X146099500Y-98490688D01*
X125300500Y-98490688D01*
X125300500Y-96790688D01*
X141449500Y-96790688D01*
X141449500Y-96909311D01*
X141480199Y-97023882D01*
X141480201Y-97023887D01*
X141539508Y-97126609D01*
X141539509Y-97126610D01*
X141539511Y-97126613D01*
X141623387Y-97210489D01*
X141726114Y-97269799D01*
X141726115Y-97269799D01*
X141726117Y-97269800D01*
X141783402Y-97285149D01*
X141840688Y-97300499D01*
X141840689Y-97300500D01*
X141840691Y-97300500D01*
X141959311Y-97300500D01*
X141959311Y-97300499D01*
X142073886Y-97269799D01*
X142176613Y-97210489D01*
X142260489Y-97126613D01*
X142310098Y-97040688D01*
X142649500Y-97040688D01*
X142649500Y-97159311D01*
X142680199Y-97273882D01*
X142680201Y-97273887D01*
X142739508Y-97376609D01*
X142739509Y-97376610D01*
X142739511Y-97376613D01*
X142823387Y-97460489D01*
X142926114Y-97519799D01*
X142926115Y-97519799D01*
X142926117Y-97519800D01*
X142983402Y-97535149D01*
X143040688Y-97550499D01*
X143040689Y-97550500D01*
X143040691Y-97550500D01*
X143159311Y-97550500D01*
X143159311Y-97550499D01*
X143273886Y-97519799D01*
X143376613Y-97460489D01*
X143460489Y-97376613D01*
X143519799Y-97273886D01*
X143550499Y-97159311D01*
X143550500Y-97159311D01*
X143550500Y-97040689D01*
X143550499Y-97040688D01*
X143539730Y-97000499D01*
X143519799Y-96926114D01*
X143462352Y-96826613D01*
X143460491Y-96823390D01*
X143460490Y-96823389D01*
X143460489Y-96823387D01*
X143376613Y-96739511D01*
X143376610Y-96739509D01*
X143376609Y-96739508D01*
X143273887Y-96680201D01*
X143273882Y-96680199D01*
X143159311Y-96649500D01*
X143159309Y-96649500D01*
X143040691Y-96649500D01*
X143040689Y-96649500D01*
X142926117Y-96680199D01*
X142926112Y-96680201D01*
X142823390Y-96739508D01*
X142739508Y-96823390D01*
X142680201Y-96926112D01*
X142680199Y-96926117D01*
X142649500Y-97040688D01*
X142310098Y-97040688D01*
X142319799Y-97023886D01*
X142350499Y-96909311D01*
X142350500Y-96909311D01*
X142350500Y-96790689D01*
X142350499Y-96790688D01*
X142319800Y-96676117D01*
X142319798Y-96676112D01*
X142260491Y-96573390D01*
X142260490Y-96573389D01*
X142260489Y-96573387D01*
X142177790Y-96490688D01*
X147949500Y-96490688D01*
X147949500Y-96609311D01*
X147980199Y-96723882D01*
X147980201Y-96723887D01*
X148039508Y-96826609D01*
X148039509Y-96826610D01*
X148039511Y-96826613D01*
X148123387Y-96910489D01*
X148123389Y-96910490D01*
X148123390Y-96910491D01*
X148150450Y-96926114D01*
X148226114Y-96969799D01*
X148226115Y-96969799D01*
X148226117Y-96969800D01*
X148283402Y-96985149D01*
X148340688Y-97000499D01*
X148340689Y-97000500D01*
X148340691Y-97000500D01*
X148459311Y-97000500D01*
X148459311Y-97000499D01*
X148573886Y-96969799D01*
X148676613Y-96910489D01*
X148747675Y-96839426D01*
X148800000Y-96817753D01*
X148852324Y-96839426D01*
X148923387Y-96910489D01*
X148923389Y-96910490D01*
X148923390Y-96910491D01*
X148950450Y-96926114D01*
X149026114Y-96969799D01*
X149026115Y-96969799D01*
X149026117Y-96969800D01*
X149083402Y-96985149D01*
X149140688Y-97000499D01*
X149140689Y-97000500D01*
X149140691Y-97000500D01*
X149259311Y-97000500D01*
X149259311Y-97000499D01*
X149373886Y-96969799D01*
X149476613Y-96910489D01*
X149560489Y-96826613D01*
X149619799Y-96723886D01*
X149650499Y-96609311D01*
X149650500Y-96609311D01*
X149650500Y-96490689D01*
X149650499Y-96490688D01*
X149619800Y-96376117D01*
X149619798Y-96376112D01*
X149560491Y-96273390D01*
X149560490Y-96273389D01*
X149560489Y-96273387D01*
X149476613Y-96189511D01*
X149476610Y-96189509D01*
X149476609Y-96189508D01*
X149373887Y-96130201D01*
X149373882Y-96130199D01*
X149259311Y-96099500D01*
X149259309Y-96099500D01*
X149140691Y-96099500D01*
X149140689Y-96099500D01*
X149026117Y-96130199D01*
X149026112Y-96130201D01*
X148923390Y-96189508D01*
X148923387Y-96189510D01*
X148923387Y-96189511D01*
X148852324Y-96260573D01*
X148800000Y-96282247D01*
X148747675Y-96260573D01*
X148676613Y-96189511D01*
X148676610Y-96189509D01*
X148676609Y-96189508D01*
X148573887Y-96130201D01*
X148573882Y-96130199D01*
X148459311Y-96099500D01*
X148459309Y-96099500D01*
X148340691Y-96099500D01*
X148340689Y-96099500D01*
X148226117Y-96130199D01*
X148226112Y-96130201D01*
X148123390Y-96189508D01*
X148039508Y-96273390D01*
X147980201Y-96376112D01*
X147980199Y-96376117D01*
X147949500Y-96490688D01*
X142177790Y-96490688D01*
X142176613Y-96489511D01*
X142176610Y-96489509D01*
X142176609Y-96489508D01*
X142073887Y-96430201D01*
X142073882Y-96430199D01*
X141959311Y-96399500D01*
X141959309Y-96399500D01*
X141840691Y-96399500D01*
X141840689Y-96399500D01*
X141726117Y-96430199D01*
X141726112Y-96430201D01*
X141623390Y-96489508D01*
X141539508Y-96573390D01*
X141480201Y-96676112D01*
X141480199Y-96676117D01*
X141449500Y-96790688D01*
X125300500Y-96790688D01*
X125300500Y-94952083D01*
X125300616Y-94947934D01*
X125303048Y-94904623D01*
X125318498Y-94629494D01*
X125319428Y-94621254D01*
X125360638Y-94378713D01*
X125899500Y-94378713D01*
X125899500Y-94621286D01*
X125931160Y-94861782D01*
X125931162Y-94861791D01*
X125993945Y-95096099D01*
X126086772Y-95320203D01*
X126086775Y-95320211D01*
X126208061Y-95530285D01*
X126208065Y-95530291D01*
X126355735Y-95722738D01*
X126527262Y-95894265D01*
X126719711Y-96041936D01*
X126929788Y-96163224D01*
X127153900Y-96256054D01*
X127388211Y-96318838D01*
X127388214Y-96318838D01*
X127388217Y-96318839D01*
X127494951Y-96332890D01*
X127628712Y-96350500D01*
X127628714Y-96350500D01*
X127871286Y-96350500D01*
X127871288Y-96350500D01*
X128056575Y-96326106D01*
X128111782Y-96318839D01*
X128111782Y-96318838D01*
X128111789Y-96318838D01*
X128346100Y-96256054D01*
X128570212Y-96163224D01*
X128780289Y-96041936D01*
X128972738Y-95894265D01*
X129144265Y-95722738D01*
X129291936Y-95530289D01*
X129413224Y-95320212D01*
X129506054Y-95096100D01*
X129568838Y-94861789D01*
X129600500Y-94621288D01*
X129600500Y-94378712D01*
X129568838Y-94138211D01*
X129506054Y-93903900D01*
X129413224Y-93679788D01*
X129392418Y-93643751D01*
X129291938Y-93469714D01*
X129291934Y-93469708D01*
X129144264Y-93277261D01*
X128972738Y-93105735D01*
X128780291Y-92958065D01*
X128780285Y-92958061D01*
X128758753Y-92945630D01*
X128654051Y-92885180D01*
X132519500Y-92885180D01*
X132519500Y-94614820D01*
X132528233Y-94658722D01*
X132561496Y-94708504D01*
X132611278Y-94741767D01*
X132655180Y-94750500D01*
X132655181Y-94750500D01*
X134384819Y-94750500D01*
X134384820Y-94750500D01*
X134428722Y-94741767D01*
X134478504Y-94708504D01*
X134511767Y-94658722D01*
X134520500Y-94614820D01*
X134520500Y-93651460D01*
X135059500Y-93651460D01*
X135059500Y-93848539D01*
X135097947Y-94041829D01*
X135097950Y-94041839D01*
X135173367Y-94223913D01*
X135276801Y-94378712D01*
X135282861Y-94387782D01*
X135422218Y-94527139D01*
X135586086Y-94636632D01*
X135768165Y-94712051D01*
X135961459Y-94750500D01*
X135961461Y-94750500D01*
X136158539Y-94750500D01*
X136158541Y-94750500D01*
X136351835Y-94712051D01*
X136533914Y-94636632D01*
X136697782Y-94527139D01*
X136837139Y-94387782D01*
X136946632Y-94223914D01*
X137022051Y-94041835D01*
X137060500Y-93848541D01*
X137060500Y-93651460D01*
X137599500Y-93651460D01*
X137599500Y-93848539D01*
X137637947Y-94041829D01*
X137637950Y-94041839D01*
X137713367Y-94223913D01*
X137816801Y-94378712D01*
X137822861Y-94387782D01*
X137962218Y-94527139D01*
X138126086Y-94636632D01*
X138308165Y-94712051D01*
X138501459Y-94750500D01*
X138501461Y-94750500D01*
X138698539Y-94750500D01*
X138698541Y-94750500D01*
X138891835Y-94712051D01*
X139073914Y-94636632D01*
X139237782Y-94527139D01*
X139377139Y-94387782D01*
X139486632Y-94223914D01*
X139562051Y-94041835D01*
X139600500Y-93848541D01*
X139600500Y-93651459D01*
X139598967Y-93643751D01*
X139790000Y-93643751D01*
X139790000Y-93856248D01*
X139823241Y-94066123D01*
X139823244Y-94066136D01*
X139888904Y-94268217D01*
X139888906Y-94268221D01*
X139985375Y-94457550D01*
X139985378Y-94457556D01*
X140024728Y-94511716D01*
X140657037Y-93879407D01*
X140674075Y-93942993D01*
X140739901Y-94057007D01*
X140832993Y-94150099D01*
X140947007Y-94215925D01*
X141010590Y-94232962D01*
X140378282Y-94865270D01*
X140432449Y-94904624D01*
X140621778Y-95001093D01*
X140621782Y-95001095D01*
X140823863Y-95066755D01*
X140823876Y-95066758D01*
X141033751Y-95100000D01*
X141246249Y-95100000D01*
X141456123Y-95066758D01*
X141456136Y-95066755D01*
X141658217Y-95001095D01*
X141658221Y-95001093D01*
X141847554Y-94904623D01*
X141847561Y-94904618D01*
X141901716Y-94865270D01*
X141901717Y-94865270D01*
X141269409Y-94232962D01*
X141332993Y-94215925D01*
X141447007Y-94150099D01*
X141540099Y-94057007D01*
X141605925Y-93942993D01*
X141622962Y-93879409D01*
X142255270Y-94511717D01*
X142255270Y-94511716D01*
X142294618Y-94457561D01*
X142294623Y-94457554D01*
X142391093Y-94268221D01*
X142391095Y-94268217D01*
X142456755Y-94066136D01*
X142456758Y-94066123D01*
X142490000Y-93856248D01*
X142490000Y-93643751D01*
X142456758Y-93433876D01*
X142456755Y-93433863D01*
X142391095Y-93231782D01*
X142391093Y-93231778D01*
X142294624Y-93042449D01*
X142294625Y-93042449D01*
X142255269Y-92988282D01*
X141622962Y-93620590D01*
X141605925Y-93557007D01*
X141540099Y-93442993D01*
X141447007Y-93349901D01*
X141332993Y-93284075D01*
X141269407Y-93267036D01*
X141651265Y-92885180D01*
X144109500Y-92885180D01*
X144109500Y-94614820D01*
X144118233Y-94658722D01*
X144151496Y-94708504D01*
X144201278Y-94741767D01*
X144245180Y-94750500D01*
X144245181Y-94750500D01*
X145974819Y-94750500D01*
X145974820Y-94750500D01*
X146018722Y-94741767D01*
X146068504Y-94708504D01*
X146101767Y-94658722D01*
X146110500Y-94614820D01*
X146110500Y-93651460D01*
X146649500Y-93651460D01*
X146649500Y-93848539D01*
X146687947Y-94041829D01*
X146687950Y-94041839D01*
X146763367Y-94223913D01*
X146866801Y-94378712D01*
X146872861Y-94387782D01*
X147012218Y-94527139D01*
X147176086Y-94636632D01*
X147358165Y-94712051D01*
X147551459Y-94750500D01*
X147551461Y-94750500D01*
X147748539Y-94750500D01*
X147748541Y-94750500D01*
X147941835Y-94712051D01*
X148123914Y-94636632D01*
X148287782Y-94527139D01*
X148427139Y-94387782D01*
X148536632Y-94223914D01*
X148612051Y-94041835D01*
X148650500Y-93848541D01*
X148650500Y-93651460D01*
X149189500Y-93651460D01*
X149189500Y-93848539D01*
X149227947Y-94041829D01*
X149227950Y-94041839D01*
X149303367Y-94223913D01*
X149406801Y-94378712D01*
X149412861Y-94387782D01*
X149552218Y-94527139D01*
X149716086Y-94636632D01*
X149898165Y-94712051D01*
X150091459Y-94750500D01*
X150091461Y-94750500D01*
X150288539Y-94750500D01*
X150288541Y-94750500D01*
X150481835Y-94712051D01*
X150663914Y-94636632D01*
X150827782Y-94527139D01*
X150967139Y-94387782D01*
X151076632Y-94223914D01*
X151152051Y-94041835D01*
X151190500Y-93848541D01*
X151190500Y-93651459D01*
X151188967Y-93643751D01*
X151380000Y-93643751D01*
X151380000Y-93856248D01*
X151413241Y-94066123D01*
X151413244Y-94066136D01*
X151478904Y-94268217D01*
X151478906Y-94268221D01*
X151575375Y-94457550D01*
X151575378Y-94457556D01*
X151614728Y-94511716D01*
X152247037Y-93879407D01*
X152264075Y-93942993D01*
X152329901Y-94057007D01*
X152422993Y-94150099D01*
X152537007Y-94215925D01*
X152600590Y-94232962D01*
X151968282Y-94865270D01*
X152022449Y-94904624D01*
X152211778Y-95001093D01*
X152211782Y-95001095D01*
X152413863Y-95066755D01*
X152413876Y-95066758D01*
X152623751Y-95100000D01*
X152836249Y-95100000D01*
X153046123Y-95066758D01*
X153046136Y-95066755D01*
X153248217Y-95001095D01*
X153248221Y-95001093D01*
X153437554Y-94904623D01*
X153437561Y-94904618D01*
X153491716Y-94865270D01*
X153491717Y-94865270D01*
X152859409Y-94232962D01*
X152922993Y-94215925D01*
X153037007Y-94150099D01*
X153130099Y-94057007D01*
X153195925Y-93942993D01*
X153212962Y-93879409D01*
X153845270Y-94511717D01*
X153845270Y-94511716D01*
X153884618Y-94457561D01*
X153884623Y-94457554D01*
X153924795Y-94378713D01*
X156399500Y-94378713D01*
X156399500Y-94621286D01*
X156431160Y-94861782D01*
X156431162Y-94861791D01*
X156493945Y-95096099D01*
X156586772Y-95320203D01*
X156586775Y-95320211D01*
X156708061Y-95530285D01*
X156708065Y-95530291D01*
X156855735Y-95722738D01*
X157027262Y-95894265D01*
X157219711Y-96041936D01*
X157429788Y-96163224D01*
X157653900Y-96256054D01*
X157888211Y-96318838D01*
X157888214Y-96318838D01*
X157888217Y-96318839D01*
X157994951Y-96332890D01*
X158128712Y-96350500D01*
X158128714Y-96350500D01*
X158371286Y-96350500D01*
X158371288Y-96350500D01*
X158556575Y-96326106D01*
X158611782Y-96318839D01*
X158611782Y-96318838D01*
X158611789Y-96318838D01*
X158846100Y-96256054D01*
X159070212Y-96163224D01*
X159280289Y-96041936D01*
X159472738Y-95894265D01*
X159644265Y-95722738D01*
X159791936Y-95530289D01*
X159913224Y-95320212D01*
X160006054Y-95096100D01*
X160068838Y-94861789D01*
X160100500Y-94621288D01*
X160100500Y-94378712D01*
X160068838Y-94138211D01*
X160006054Y-93903900D01*
X159913224Y-93679788D01*
X159892418Y-93643751D01*
X159791938Y-93469714D01*
X159791934Y-93469708D01*
X159644264Y-93277261D01*
X159472738Y-93105735D01*
X159280291Y-92958065D01*
X159280285Y-92958061D01*
X159070211Y-92836775D01*
X159070203Y-92836772D01*
X158846099Y-92743945D01*
X158611791Y-92681162D01*
X158611782Y-92681160D01*
X158418480Y-92655712D01*
X158371288Y-92649500D01*
X158128712Y-92649500D01*
X158085736Y-92655157D01*
X157888217Y-92681160D01*
X157888208Y-92681162D01*
X157653900Y-92743945D01*
X157429796Y-92836772D01*
X157429788Y-92836775D01*
X157219714Y-92958061D01*
X157219708Y-92958065D01*
X157027261Y-93105735D01*
X156855735Y-93277261D01*
X156708065Y-93469708D01*
X156708061Y-93469714D01*
X156586775Y-93679788D01*
X156586772Y-93679796D01*
X156493945Y-93903900D01*
X156431162Y-94138208D01*
X156431160Y-94138217D01*
X156399500Y-94378713D01*
X153924795Y-94378713D01*
X153943147Y-94342695D01*
X153943147Y-94342694D01*
X153981095Y-94268216D01*
X154046755Y-94066136D01*
X154046758Y-94066123D01*
X154080000Y-93856248D01*
X154080000Y-93643751D01*
X154046758Y-93433876D01*
X154046755Y-93433863D01*
X153981095Y-93231782D01*
X153981093Y-93231778D01*
X153884624Y-93042449D01*
X153884625Y-93042449D01*
X153845269Y-92988282D01*
X153212962Y-93620590D01*
X153195925Y-93557007D01*
X153130099Y-93442993D01*
X153037007Y-93349901D01*
X152922993Y-93284075D01*
X152859407Y-93267037D01*
X153491716Y-92634728D01*
X153437556Y-92595378D01*
X153437550Y-92595375D01*
X153248221Y-92498906D01*
X153248217Y-92498904D01*
X153046136Y-92433244D01*
X153046123Y-92433241D01*
X152836249Y-92400000D01*
X152623751Y-92400000D01*
X152413876Y-92433241D01*
X152413863Y-92433244D01*
X152211785Y-92498903D01*
X152022450Y-92595374D01*
X151968282Y-92634729D01*
X152600590Y-93267037D01*
X152537007Y-93284075D01*
X152422993Y-93349901D01*
X152329901Y-93442993D01*
X152264075Y-93557007D01*
X152247037Y-93620590D01*
X151614729Y-92988282D01*
X151575374Y-93042450D01*
X151478903Y-93231785D01*
X151413244Y-93433863D01*
X151413241Y-93433876D01*
X151380000Y-93643751D01*
X151188967Y-93643751D01*
X151152051Y-93458165D01*
X151076632Y-93276086D01*
X150967139Y-93112218D01*
X150827782Y-92972861D01*
X150805639Y-92958065D01*
X150663913Y-92863367D01*
X150481839Y-92787950D01*
X150481829Y-92787947D01*
X150332444Y-92758233D01*
X150288541Y-92749500D01*
X150091459Y-92749500D01*
X150047556Y-92758233D01*
X149898170Y-92787947D01*
X149898160Y-92787950D01*
X149716086Y-92863367D01*
X149552218Y-92972860D01*
X149552217Y-92972862D01*
X149412862Y-93112217D01*
X149412860Y-93112218D01*
X149303367Y-93276086D01*
X149227950Y-93458160D01*
X149227947Y-93458170D01*
X149189500Y-93651460D01*
X148650500Y-93651460D01*
X148650500Y-93651459D01*
X148612051Y-93458165D01*
X148536632Y-93276086D01*
X148427139Y-93112218D01*
X148287782Y-92972861D01*
X148265639Y-92958065D01*
X148123913Y-92863367D01*
X147941839Y-92787950D01*
X147941829Y-92787947D01*
X147792444Y-92758233D01*
X147748541Y-92749500D01*
X147551459Y-92749500D01*
X147507556Y-92758233D01*
X147358170Y-92787947D01*
X147358160Y-92787950D01*
X147176086Y-92863367D01*
X147012218Y-92972860D01*
X147012217Y-92972862D01*
X146872862Y-93112217D01*
X146872860Y-93112218D01*
X146763367Y-93276086D01*
X146687950Y-93458160D01*
X146687947Y-93458170D01*
X146649500Y-93651460D01*
X146110500Y-93651460D01*
X146110500Y-92885180D01*
X146101767Y-92841278D01*
X146068504Y-92791496D01*
X146063195Y-92787949D01*
X146018722Y-92758233D01*
X145974820Y-92749500D01*
X144245180Y-92749500D01*
X144223229Y-92753866D01*
X144201277Y-92758233D01*
X144151496Y-92791495D01*
X144151495Y-92791496D01*
X144118233Y-92841277D01*
X144118233Y-92841278D01*
X144109500Y-92885180D01*
X141651265Y-92885180D01*
X141707227Y-92829218D01*
X141901716Y-92634728D01*
X141847556Y-92595378D01*
X141847550Y-92595375D01*
X141658221Y-92498906D01*
X141658217Y-92498904D01*
X141456136Y-92433244D01*
X141456123Y-92433241D01*
X141246249Y-92400000D01*
X141033751Y-92400000D01*
X140823876Y-92433241D01*
X140823863Y-92433244D01*
X140621785Y-92498903D01*
X140432450Y-92595374D01*
X140378282Y-92634729D01*
X141010591Y-93267037D01*
X140947007Y-93284075D01*
X140832993Y-93349901D01*
X140739901Y-93442993D01*
X140674075Y-93557007D01*
X140657037Y-93620590D01*
X140024729Y-92988282D01*
X139985374Y-93042450D01*
X139888903Y-93231785D01*
X139823244Y-93433863D01*
X139823241Y-93433876D01*
X139790000Y-93643751D01*
X139598967Y-93643751D01*
X139562051Y-93458165D01*
X139486632Y-93276086D01*
X139377139Y-93112218D01*
X139237782Y-92972861D01*
X139215639Y-92958065D01*
X139073913Y-92863367D01*
X138891839Y-92787950D01*
X138891829Y-92787947D01*
X138742444Y-92758233D01*
X138698541Y-92749500D01*
X138501459Y-92749500D01*
X138457556Y-92758233D01*
X138308170Y-92787947D01*
X138308160Y-92787950D01*
X138126086Y-92863367D01*
X137962218Y-92972860D01*
X137962217Y-92972862D01*
X137822862Y-93112217D01*
X137822860Y-93112218D01*
X137713367Y-93276086D01*
X137637950Y-93458160D01*
X137637947Y-93458170D01*
X137599500Y-93651460D01*
X137060500Y-93651460D01*
X137060500Y-93651459D01*
X137022051Y-93458165D01*
X136946632Y-93276086D01*
X136837139Y-93112218D01*
X136697782Y-92972861D01*
X136675639Y-92958065D01*
X136533913Y-92863367D01*
X136351839Y-92787950D01*
X136351829Y-92787947D01*
X136202444Y-92758233D01*
X136158541Y-92749500D01*
X135961459Y-92749500D01*
X135917556Y-92758233D01*
X135768170Y-92787947D01*
X135768160Y-92787950D01*
X135586086Y-92863367D01*
X135422218Y-92972860D01*
X135422217Y-92972862D01*
X135282862Y-93112217D01*
X135282860Y-93112218D01*
X135173367Y-93276086D01*
X135097950Y-93458160D01*
X135097947Y-93458170D01*
X135059500Y-93651460D01*
X134520500Y-93651460D01*
X134520500Y-92885180D01*
X134511767Y-92841278D01*
X134478504Y-92791496D01*
X134473195Y-92787949D01*
X134428722Y-92758233D01*
X134384820Y-92749500D01*
X132655180Y-92749500D01*
X132633229Y-92753866D01*
X132611277Y-92758233D01*
X132561496Y-92791495D01*
X132561495Y-92791496D01*
X132528233Y-92841277D01*
X132528233Y-92841278D01*
X132519500Y-92885180D01*
X128654051Y-92885180D01*
X128570211Y-92836775D01*
X128570203Y-92836772D01*
X128346106Y-92743948D01*
X128346102Y-92743947D01*
X128346100Y-92743946D01*
X128310508Y-92734409D01*
X128111791Y-92681162D01*
X128111782Y-92681160D01*
X127918480Y-92655712D01*
X127871288Y-92649500D01*
X127628712Y-92649500D01*
X127585736Y-92655157D01*
X127388217Y-92681160D01*
X127388208Y-92681162D01*
X127153900Y-92743945D01*
X126929796Y-92836772D01*
X126929788Y-92836775D01*
X126719714Y-92958061D01*
X126719708Y-92958065D01*
X126527261Y-93105735D01*
X126355735Y-93277261D01*
X126208065Y-93469708D01*
X126208061Y-93469714D01*
X126086775Y-93679788D01*
X126086772Y-93679796D01*
X125993945Y-93903900D01*
X125931162Y-94138208D01*
X125931160Y-94138217D01*
X125899500Y-94378713D01*
X125360638Y-94378713D01*
X125372500Y-94308898D01*
X125374346Y-94300813D01*
X125417765Y-94150099D01*
X125462062Y-93996338D01*
X125464794Y-93988530D01*
X125586052Y-93695787D01*
X125589646Y-93688325D01*
X125742923Y-93410991D01*
X125747320Y-93403993D01*
X125930678Y-93145575D01*
X125935835Y-93139107D01*
X126146987Y-92902828D01*
X126152828Y-92896987D01*
X126389107Y-92685835D01*
X126395575Y-92680678D01*
X126653993Y-92497320D01*
X126660991Y-92492923D01*
X126938325Y-92339646D01*
X126945787Y-92336052D01*
X127238530Y-92214794D01*
X127246338Y-92212062D01*
X127550813Y-92124346D01*
X127558898Y-92122500D01*
X127871262Y-92069427D01*
X127879494Y-92068498D01*
X128197934Y-92050615D01*
X128202083Y-92050500D01*
X128247595Y-92050500D01*
X157752405Y-92050500D01*
X157797917Y-92050500D01*
X157802065Y-92050615D01*
G37*
%TD.AperFunction*%
%TD*%
%TA.AperFunction,Conductor*%
%TO.N,+5V_BUCK*%
G36*
X126652826Y-112821674D02*
G01*
X126674500Y-112874000D01*
X126674500Y-112959311D01*
X126705199Y-113073882D01*
X126705201Y-113073887D01*
X126764508Y-113176609D01*
X126764509Y-113176610D01*
X126764511Y-113176613D01*
X126848387Y-113260489D01*
X126848389Y-113260490D01*
X126848390Y-113260491D01*
X126900698Y-113290691D01*
X126951114Y-113319799D01*
X126951115Y-113319799D01*
X126951117Y-113319800D01*
X127008402Y-113335149D01*
X127065688Y-113350499D01*
X127065689Y-113350500D01*
X127065691Y-113350500D01*
X127184311Y-113350500D01*
X127184311Y-113350499D01*
X127298886Y-113319799D01*
X127401613Y-113260489D01*
X127485489Y-113176613D01*
X127544799Y-113073886D01*
X127575499Y-112959311D01*
X127575500Y-112959311D01*
X127575500Y-112874000D01*
X127597174Y-112821674D01*
X127649500Y-112800000D01*
X129057834Y-112800000D01*
X129110160Y-112821674D01*
X129121496Y-112836275D01*
X130689662Y-115482554D01*
X130700000Y-115520279D01*
X130700000Y-121471992D01*
X130690086Y-121508991D01*
X130680203Y-121526108D01*
X130680199Y-121526117D01*
X130649500Y-121640688D01*
X130649500Y-121759309D01*
X130659723Y-121797465D01*
X130652329Y-121853617D01*
X130625245Y-121880702D01*
X130523389Y-121939509D01*
X130439508Y-122023390D01*
X130380201Y-122126112D01*
X130380199Y-122126117D01*
X130349500Y-122240688D01*
X130349500Y-122359311D01*
X130380199Y-122473882D01*
X130380201Y-122473887D01*
X130439508Y-122576609D01*
X130439509Y-122576610D01*
X130439511Y-122576613D01*
X130523387Y-122660489D01*
X130626114Y-122719799D01*
X130694653Y-122738164D01*
X130739586Y-122772642D01*
X130749500Y-122809642D01*
X130749500Y-122859311D01*
X130780199Y-122973882D01*
X130780201Y-122973887D01*
X130839508Y-123076609D01*
X130839509Y-123076610D01*
X130839511Y-123076613D01*
X130923387Y-123160489D01*
X131026114Y-123219799D01*
X131026115Y-123219799D01*
X131026117Y-123219800D01*
X131083402Y-123235149D01*
X131140688Y-123250499D01*
X131140689Y-123250500D01*
X131140691Y-123250500D01*
X131259311Y-123250500D01*
X131259311Y-123250499D01*
X131373886Y-123219799D01*
X131476613Y-123160489D01*
X131560489Y-123076613D01*
X131619799Y-122973886D01*
X131640584Y-122896314D01*
X131675062Y-122851382D01*
X131731214Y-122843989D01*
X131761707Y-122860592D01*
X132800000Y-123800000D01*
X132883270Y-123800406D01*
X132935488Y-123822334D01*
X132937237Y-123824338D01*
X132939509Y-123826610D01*
X132939511Y-123826613D01*
X133023387Y-123910489D01*
X133023389Y-123910490D01*
X133023390Y-123910491D01*
X133125967Y-123969714D01*
X133126114Y-123969799D01*
X133126115Y-123969799D01*
X133126117Y-123969800D01*
X133183402Y-123985149D01*
X133240688Y-124000499D01*
X133240689Y-124000500D01*
X133240691Y-124000500D01*
X133359311Y-124000500D01*
X133359311Y-124000499D01*
X133473886Y-123969799D01*
X133576613Y-123910489D01*
X133660489Y-123826613D01*
X133660490Y-123826610D01*
X133660972Y-123826129D01*
X133713297Y-123804455D01*
X134088895Y-123806287D01*
X134140857Y-123827959D01*
X134223387Y-123910489D01*
X134223389Y-123910490D01*
X134223390Y-123910491D01*
X134325967Y-123969714D01*
X134326114Y-123969799D01*
X134326115Y-123969799D01*
X134326117Y-123969800D01*
X134383402Y-123985149D01*
X134440688Y-124000499D01*
X134440689Y-124000500D01*
X134440691Y-124000500D01*
X134559311Y-124000500D01*
X134559311Y-124000499D01*
X134673886Y-123969799D01*
X134776613Y-123910489D01*
X134855148Y-123831953D01*
X134907472Y-123810280D01*
X135194288Y-123811679D01*
X135246248Y-123833350D01*
X135323387Y-123910489D01*
X135323389Y-123910490D01*
X135323390Y-123910491D01*
X135425967Y-123969714D01*
X135426114Y-123969799D01*
X135426115Y-123969799D01*
X135426117Y-123969800D01*
X135483402Y-123985149D01*
X135540688Y-124000499D01*
X135540689Y-124000500D01*
X135540691Y-124000500D01*
X135659311Y-124000500D01*
X135659311Y-124000499D01*
X135773886Y-123969799D01*
X135876613Y-123910489D01*
X135949808Y-123837293D01*
X136002132Y-123815620D01*
X136249434Y-123816826D01*
X136301396Y-123838498D01*
X136373387Y-123910489D01*
X136373389Y-123910490D01*
X136373390Y-123910491D01*
X136475967Y-123969714D01*
X136476114Y-123969799D01*
X136476115Y-123969799D01*
X136476117Y-123969800D01*
X136533402Y-123985149D01*
X136590688Y-124000499D01*
X136590689Y-124000500D01*
X136590691Y-124000500D01*
X136709311Y-124000500D01*
X136709311Y-124000499D01*
X136823886Y-123969799D01*
X136926613Y-123910489D01*
X136994712Y-123842389D01*
X137047033Y-123820717D01*
X137354828Y-123822218D01*
X137406787Y-123843889D01*
X137473387Y-123910489D01*
X137473389Y-123910490D01*
X137473390Y-123910491D01*
X137575967Y-123969714D01*
X137576114Y-123969799D01*
X137576115Y-123969799D01*
X137576117Y-123969800D01*
X137633402Y-123985149D01*
X137690688Y-124000499D01*
X137690689Y-124000500D01*
X137690691Y-124000500D01*
X137809311Y-124000500D01*
X137809311Y-124000499D01*
X137923886Y-123969799D01*
X138026613Y-123910489D01*
X138089371Y-123847730D01*
X138141695Y-123826057D01*
X138359727Y-123827120D01*
X138411691Y-123848793D01*
X138473387Y-123910489D01*
X138473389Y-123910490D01*
X138473390Y-123910491D01*
X138575967Y-123969714D01*
X138576114Y-123969799D01*
X138576115Y-123969799D01*
X138576117Y-123969800D01*
X138633402Y-123985149D01*
X138690688Y-124000499D01*
X138690689Y-124000500D01*
X138690691Y-124000500D01*
X138809311Y-124000500D01*
X138809311Y-124000499D01*
X138923886Y-123969799D01*
X139026613Y-123910489D01*
X139084517Y-123852584D01*
X139136839Y-123830911D01*
X139314385Y-123831777D01*
X139366346Y-123853449D01*
X139411779Y-123898881D01*
X139423387Y-123910489D01*
X139474750Y-123940144D01*
X139525961Y-123969711D01*
X139526114Y-123969799D01*
X139526115Y-123969799D01*
X139526117Y-123969800D01*
X139583402Y-123985149D01*
X139640688Y-124000499D01*
X139640689Y-124000500D01*
X139640691Y-124000500D01*
X139759311Y-124000500D01*
X139759311Y-124000499D01*
X139873886Y-123969799D01*
X139976613Y-123910489D01*
X140029905Y-123857196D01*
X140082227Y-123835523D01*
X153070793Y-123898881D01*
X153299997Y-123900000D01*
X153299997Y-123899999D01*
X153300000Y-123900000D01*
X157100000Y-120600000D01*
X158000000Y-118000000D01*
X158055131Y-116529819D01*
X158077742Y-116479298D01*
X158553857Y-116020702D01*
X158605193Y-116000000D01*
X160625500Y-116000000D01*
X160677826Y-116021674D01*
X160699500Y-116074000D01*
X160699500Y-124547916D01*
X160699384Y-124552065D01*
X160681501Y-124870498D01*
X160680571Y-124878745D01*
X160627499Y-125191097D01*
X160625653Y-125199186D01*
X160537940Y-125503650D01*
X160535199Y-125511484D01*
X160413949Y-125804205D01*
X160410349Y-125811681D01*
X160257085Y-126088993D01*
X160252669Y-126096020D01*
X160069328Y-126354414D01*
X160064155Y-126360902D01*
X159853025Y-126597157D01*
X159847157Y-126603025D01*
X159610902Y-126814155D01*
X159604414Y-126819328D01*
X159346020Y-127002669D01*
X159338993Y-127007085D01*
X159061681Y-127160349D01*
X159054205Y-127163949D01*
X158761484Y-127285199D01*
X158753650Y-127287940D01*
X158449186Y-127375653D01*
X158441097Y-127377499D01*
X158128745Y-127430571D01*
X158120498Y-127431501D01*
X157802066Y-127449384D01*
X157797917Y-127449500D01*
X128202083Y-127449500D01*
X128197934Y-127449384D01*
X127879501Y-127431501D01*
X127871254Y-127430571D01*
X127558902Y-127377499D01*
X127550813Y-127375653D01*
X127246349Y-127287940D01*
X127238515Y-127285199D01*
X126945794Y-127163949D01*
X126938318Y-127160349D01*
X126661006Y-127007085D01*
X126653979Y-127002669D01*
X126395585Y-126819328D01*
X126389097Y-126814155D01*
X126374029Y-126800689D01*
X126152837Y-126603020D01*
X126146979Y-126597162D01*
X125935843Y-126360901D01*
X125930671Y-126354414D01*
X125837242Y-126222738D01*
X125747326Y-126096014D01*
X125742918Y-126089000D01*
X125589650Y-125811681D01*
X125586050Y-125804205D01*
X125464796Y-125511474D01*
X125462059Y-125503650D01*
X125432198Y-125400000D01*
X125374346Y-125199186D01*
X125372500Y-125191097D01*
X125350108Y-125059309D01*
X125319424Y-124878724D01*
X125319423Y-124878713D01*
X125899500Y-124878713D01*
X125899500Y-125121286D01*
X125931160Y-125361782D01*
X125931162Y-125361791D01*
X125993945Y-125596099D01*
X126086772Y-125820203D01*
X126086775Y-125820211D01*
X126208061Y-126030285D01*
X126208065Y-126030291D01*
X126355735Y-126222738D01*
X126527261Y-126394264D01*
X126719708Y-126541934D01*
X126719714Y-126541938D01*
X126865517Y-126626117D01*
X126929788Y-126663224D01*
X127153900Y-126756054D01*
X127388211Y-126818838D01*
X127388214Y-126818838D01*
X127388217Y-126818839D01*
X127494951Y-126832890D01*
X127628712Y-126850500D01*
X127628714Y-126850500D01*
X127871286Y-126850500D01*
X127871288Y-126850500D01*
X128056575Y-126826106D01*
X128111782Y-126818839D01*
X128111782Y-126818838D01*
X128111789Y-126818838D01*
X128346100Y-126756054D01*
X128570212Y-126663224D01*
X128780289Y-126541936D01*
X128972738Y-126394265D01*
X129144265Y-126222738D01*
X129291936Y-126030289D01*
X129413224Y-125820212D01*
X129506054Y-125596100D01*
X129568838Y-125361789D01*
X129600500Y-125121288D01*
X129600500Y-124940688D01*
X140599500Y-124940688D01*
X140599500Y-125059311D01*
X140630199Y-125173882D01*
X140630201Y-125173887D01*
X140689508Y-125276609D01*
X140689509Y-125276610D01*
X140689511Y-125276613D01*
X140760573Y-125347675D01*
X140782247Y-125400000D01*
X140760573Y-125452324D01*
X140709248Y-125503650D01*
X140689508Y-125523390D01*
X140630201Y-125626112D01*
X140630199Y-125626117D01*
X140599500Y-125740688D01*
X140599500Y-125859311D01*
X140630199Y-125973882D01*
X140630201Y-125973887D01*
X140689508Y-126076609D01*
X140689509Y-126076610D01*
X140689511Y-126076613D01*
X140773387Y-126160489D01*
X140773389Y-126160490D01*
X140773390Y-126160491D01*
X140817423Y-126185914D01*
X140851902Y-126230848D01*
X140844509Y-126287000D01*
X140817423Y-126314086D01*
X140773390Y-126339508D01*
X140689508Y-126423390D01*
X140630201Y-126526112D01*
X140630199Y-126526117D01*
X140599500Y-126640688D01*
X140599500Y-126759311D01*
X140630199Y-126873882D01*
X140630201Y-126873887D01*
X140689508Y-126976609D01*
X140689509Y-126976610D01*
X140689511Y-126976613D01*
X140773387Y-127060489D01*
X140876114Y-127119799D01*
X140876115Y-127119799D01*
X140876117Y-127119800D01*
X140933402Y-127135149D01*
X140990688Y-127150499D01*
X140990689Y-127150500D01*
X140990691Y-127150500D01*
X141109311Y-127150500D01*
X141109311Y-127150499D01*
X141223886Y-127119799D01*
X141326613Y-127060489D01*
X141410489Y-126976613D01*
X141469799Y-126873886D01*
X141500499Y-126759311D01*
X141500500Y-126759311D01*
X141500500Y-126740688D01*
X145049500Y-126740688D01*
X145049500Y-126859311D01*
X145080199Y-126973882D01*
X145080201Y-126973887D01*
X145139508Y-127076609D01*
X145139509Y-127076610D01*
X145139511Y-127076613D01*
X145223387Y-127160489D01*
X145223389Y-127160490D01*
X145223390Y-127160491D01*
X145326112Y-127219798D01*
X145326114Y-127219799D01*
X145326115Y-127219799D01*
X145326117Y-127219800D01*
X145383402Y-127235149D01*
X145440688Y-127250499D01*
X145440689Y-127250500D01*
X145440691Y-127250500D01*
X145559311Y-127250500D01*
X145559311Y-127250499D01*
X145673886Y-127219799D01*
X145776613Y-127160489D01*
X145860489Y-127076613D01*
X145919799Y-126973886D01*
X145950499Y-126859311D01*
X145950500Y-126859311D01*
X145950500Y-126740689D01*
X145950499Y-126740688D01*
X145919800Y-126626117D01*
X145919798Y-126626112D01*
X145860491Y-126523390D01*
X145860490Y-126523389D01*
X145860489Y-126523387D01*
X145776613Y-126439511D01*
X145776610Y-126439509D01*
X145776609Y-126439508D01*
X145673887Y-126380201D01*
X145673882Y-126380199D01*
X145559311Y-126349500D01*
X145559309Y-126349500D01*
X145440691Y-126349500D01*
X145440689Y-126349500D01*
X145326117Y-126380199D01*
X145326112Y-126380201D01*
X145223390Y-126439508D01*
X145139508Y-126523390D01*
X145080201Y-126626112D01*
X145080199Y-126626117D01*
X145049500Y-126740688D01*
X141500500Y-126740688D01*
X141500500Y-126640689D01*
X141500499Y-126640688D01*
X141499714Y-126637760D01*
X141469799Y-126526114D01*
X141468225Y-126523387D01*
X141410491Y-126423390D01*
X141410490Y-126423389D01*
X141410489Y-126423387D01*
X141326613Y-126339511D01*
X141326610Y-126339509D01*
X141326609Y-126339508D01*
X141282576Y-126314086D01*
X141248098Y-126269153D01*
X141255490Y-126213000D01*
X141282576Y-126185914D01*
X141326613Y-126160489D01*
X141410489Y-126076613D01*
X141469799Y-125973886D01*
X141500499Y-125859311D01*
X141500500Y-125859311D01*
X141500500Y-125740689D01*
X141500499Y-125740688D01*
X141469800Y-125626117D01*
X141469798Y-125626112D01*
X141410491Y-125523390D01*
X141410490Y-125523389D01*
X141410489Y-125523387D01*
X141339426Y-125452324D01*
X141317753Y-125400000D01*
X141339426Y-125347675D01*
X141410489Y-125276613D01*
X141469799Y-125173886D01*
X141500499Y-125059311D01*
X141500500Y-125059311D01*
X141500500Y-124940689D01*
X141500499Y-124940688D01*
X141483893Y-124878713D01*
X156399500Y-124878713D01*
X156399500Y-125121286D01*
X156431160Y-125361782D01*
X156431162Y-125361791D01*
X156493945Y-125596099D01*
X156586772Y-125820203D01*
X156586775Y-125820211D01*
X156708061Y-126030285D01*
X156708065Y-126030291D01*
X156855735Y-126222738D01*
X157027261Y-126394264D01*
X157219708Y-126541934D01*
X157219714Y-126541938D01*
X157365517Y-126626117D01*
X157429788Y-126663224D01*
X157653900Y-126756054D01*
X157888211Y-126818838D01*
X157888214Y-126818838D01*
X157888217Y-126818839D01*
X157994951Y-126832890D01*
X158128712Y-126850500D01*
X158128714Y-126850500D01*
X158371286Y-126850500D01*
X158371288Y-126850500D01*
X158556575Y-126826106D01*
X158611782Y-126818839D01*
X158611782Y-126818838D01*
X158611789Y-126818838D01*
X158846100Y-126756054D01*
X159070212Y-126663224D01*
X159280289Y-126541936D01*
X159472738Y-126394265D01*
X159644265Y-126222738D01*
X159791936Y-126030289D01*
X159913224Y-125820212D01*
X160006054Y-125596100D01*
X160068838Y-125361789D01*
X160100500Y-125121288D01*
X160100500Y-124878712D01*
X160080052Y-124723390D01*
X160068839Y-124638217D01*
X160068837Y-124638208D01*
X160053293Y-124580199D01*
X160006054Y-124403900D01*
X159913224Y-124179788D01*
X159809712Y-124000500D01*
X159791938Y-123969714D01*
X159791934Y-123969708D01*
X159688970Y-123835523D01*
X159644265Y-123777262D01*
X159472738Y-123605735D01*
X159413772Y-123560489D01*
X159280291Y-123458065D01*
X159280285Y-123458061D01*
X159070211Y-123336775D01*
X159070203Y-123336772D01*
X158846099Y-123243945D01*
X158611791Y-123181162D01*
X158611782Y-123181160D01*
X158418480Y-123155712D01*
X158371288Y-123149500D01*
X158128712Y-123149500D01*
X158085736Y-123155157D01*
X157888217Y-123181160D01*
X157888208Y-123181162D01*
X157653900Y-123243945D01*
X157429796Y-123336772D01*
X157429788Y-123336775D01*
X157219714Y-123458061D01*
X157219708Y-123458065D01*
X157027261Y-123605735D01*
X156855735Y-123777261D01*
X156708065Y-123969708D01*
X156708061Y-123969714D01*
X156586775Y-124179788D01*
X156586772Y-124179796D01*
X156493945Y-124403900D01*
X156431162Y-124638208D01*
X156431160Y-124638217D01*
X156399500Y-124878713D01*
X141483893Y-124878713D01*
X141469799Y-124826114D01*
X141410489Y-124723387D01*
X141326613Y-124639511D01*
X141326610Y-124639509D01*
X141326609Y-124639508D01*
X141223887Y-124580201D01*
X141223882Y-124580199D01*
X141109311Y-124549500D01*
X141109309Y-124549500D01*
X140990691Y-124549500D01*
X140990689Y-124549500D01*
X140876117Y-124580199D01*
X140876112Y-124580201D01*
X140773390Y-124639508D01*
X140689508Y-124723390D01*
X140630201Y-124826112D01*
X140630199Y-124826117D01*
X140599500Y-124940688D01*
X129600500Y-124940688D01*
X129600500Y-124878712D01*
X129580052Y-124723390D01*
X129568839Y-124638217D01*
X129568837Y-124638208D01*
X129553293Y-124580199D01*
X129506054Y-124403900D01*
X129413224Y-124179788D01*
X129309712Y-124000500D01*
X129291938Y-123969714D01*
X129291934Y-123969708D01*
X129188970Y-123835523D01*
X129144265Y-123777262D01*
X128972738Y-123605735D01*
X128913772Y-123560489D01*
X128780291Y-123458065D01*
X128780285Y-123458061D01*
X128570211Y-123336775D01*
X128570203Y-123336772D01*
X128346099Y-123243945D01*
X128111791Y-123181162D01*
X128111782Y-123181160D01*
X127918480Y-123155712D01*
X127871288Y-123149500D01*
X127628712Y-123149500D01*
X127585736Y-123155157D01*
X127388217Y-123181160D01*
X127388208Y-123181162D01*
X127153900Y-123243945D01*
X126929796Y-123336772D01*
X126929788Y-123336775D01*
X126719714Y-123458061D01*
X126719708Y-123458065D01*
X126527261Y-123605735D01*
X126355735Y-123777261D01*
X126208065Y-123969708D01*
X126208061Y-123969714D01*
X126086775Y-124179788D01*
X126086772Y-124179796D01*
X125993945Y-124403900D01*
X125931162Y-124638208D01*
X125931160Y-124638217D01*
X125899500Y-124878713D01*
X125319423Y-124878713D01*
X125318498Y-124870498D01*
X125316005Y-124826112D01*
X125300616Y-124552065D01*
X125300500Y-124547916D01*
X125300500Y-112874000D01*
X125322174Y-112821674D01*
X125374500Y-112800000D01*
X126600500Y-112800000D01*
X126652826Y-112821674D01*
G37*
%TD.AperFunction*%
%TD*%
M02*
